<svg width="375" height="172" viewBox="0 0 375 172" fill="none" xmlns="http://www.w3.org/2000/svg">
<defs>
<filter id="filter0_d_17_1549" x="64" y="65" width="95" height="76" filterUnits="userSpaceOnUse" color-interpolation-filters="sRGB">
<feFlood flood-opacity="0" result="BackgroundImageFix"/>
<feColorMatrix in="SourceAlpha" type="matrix" values="0 0 0 0 0 0 0 0 0 0 0 0 0 0 0 0 0 0 127 0" result="hardAlpha"/>
<feOffset dy="-4"/>
<feGaussianBlur stdDeviation="2"/>
<feComposite in2="hardAlpha" operator="out"/>
<feColorMatrix type="matrix" values="0 0 0 0 0 0 0 0 0 0 0 0 0 0 0 0 0 0 0.05 0"/>
<feBlend mode="normal" in2="BackgroundImageFix" result="effect1_dropShadow_17_1549"/>
<feBlend mode="normal" in="SourceGraphic" in2="effect1_dropShadow_17_1549" result="shape"/>
</filter>
<filter id="filter1_d_17_1549" x="97" y="49" width="29.1103" height="32" filterUnits="userSpaceOnUse" color-interpolation-filters="sRGB">
<feFlood flood-opacity="0" result="BackgroundImageFix"/>
<feColorMatrix in="SourceAlpha" type="matrix" values="0 0 0 0 0 0 0 0 0 0 0 0 0 0 0 0 0 0 127 0" result="hardAlpha"/>
<feOffset dy="4"/>
<feGaussianBlur stdDeviation="2"/>
<feComposite in2="hardAlpha" operator="out"/>
<feColorMatrix type="matrix" values="0 0 0 0 0 0 0 0 0 0 0 0 0 0 0 0 0 0 0.12 0"/>
<feBlend mode="normal" in2="BackgroundImageFix" result="effect1_dropShadow_17_1549"/>
<feBlend mode="normal" in="SourceGraphic" in2="effect1_dropShadow_17_1549" result="shape"/>
</filter>
<filter id="filter2_d_17_1549" x="234.48" y="41.5" width="79.16" height="11" filterUnits="userSpaceOnUse" color-interpolation-filters="sRGB">
<feFlood flood-opacity="0" result="BackgroundImageFix"/>
<feColorMatrix in="SourceAlpha" type="matrix" values="0 0 0 0 0 0 0 0 0 0 0 0 0 0 0 0 0 0 127 0" result="hardAlpha"/>
<feOffset dy="-4"/>
<feGaussianBlur stdDeviation="2"/>
<feComposite in2="hardAlpha" operator="out"/>
<feColorMatrix type="matrix" values="0 0 0 0 0 0 0 0 0 0 0 0 0 0 0 0 0 0 0.05 0"/>
<feBlend mode="normal" in2="BackgroundImageFix" result="effect1_dropShadow_17_1549"/>
<feBlend mode="normal" in="SourceGraphic" in2="effect1_dropShadow_17_1549" result="shape"/>
</filter>
<filter id="filter3_d_17_1549" x="189" y="24" width="169.916" height="103.2" filterUnits="userSpaceOnUse" color-interpolation-filters="sRGB">
<feFlood flood-opacity="0" result="BackgroundImageFix"/>
<feColorMatrix in="SourceAlpha" type="matrix" values="0 0 0 0 0 0 0 0 0 0 0 0 0 0 0 0 0 0 127 0" result="hardAlpha"/>
<feOffset dy="12"/>
<feGaussianBlur stdDeviation="25"/>
<feComposite in2="hardAlpha" operator="out"/>
<feColorMatrix type="matrix" values="0 0 0 0 0.0391493 0 0 0 0 0.126939 0 0 0 0 0.302517 0 0 0 1 0"/>
<feBlend mode="normal" in2="BackgroundImageFix" result="effect1_dropShadow_17_1549"/>
<feBlend mode="normal" in="SourceGraphic" in2="effect1_dropShadow_17_1549" result="shape"/>
</filter>
<filter id="filter4_d_17_1549" x="144" y="73" width="92.7466" height="68" filterUnits="userSpaceOnUse" color-interpolation-filters="sRGB">
<feFlood flood-opacity="0" result="BackgroundImageFix"/>
<feColorMatrix in="SourceAlpha" type="matrix" values="0 0 0 0 0 0 0 0 0 0 0 0 0 0 0 0 0 0 127 0" result="hardAlpha"/>
<feOffset dy="-8"/>
<feGaussianBlur stdDeviation="2"/>
<feComposite in2="hardAlpha" operator="out"/>
<feColorMatrix type="matrix" values="0 0 0 0 0.196078 0 0 0 0 0.501961 0 0 0 0 0.243137 0 0 0 0.24 0"/>
<feBlend mode="normal" in2="BackgroundImageFix" result="effect1_dropShadow_17_1549"/>
<feBlend mode="normal" in="SourceGraphic" in2="effect1_dropShadow_17_1549" result="shape"/>
</filter>
<clipPath id="clip0_17_1549">
<rect width="87" height="68" fill="white" transform="translate(68 73)"/>
</clipPath>
<clipPath id="clip1_17_1549">
<rect width="166" height="111" fill="white" transform="translate(188 30)"/>
</clipPath>
<clipPath id="clip2_17_1549">
<rect width="93" height="68" fill="white" transform="translate(144 73)"/>
</clipPath>
<clipPath id="clip3_17_1549">
<rect width="5.32802" height="5.32802" fill="white" transform="translate(194.75 80.4265)"/>
</clipPath>
</defs>
<g opacity="0.32">
<mask id="mask0_17_1549" style="mask-type:alpha" maskUnits="userSpaceOnUse" x="0" y="0" width="375" height="172">
<rect width="375" height="172" fill="#C4C4C4"/>
</mask>
<g mask="url(#mask0_17_1549)">
<rect x="82" y="83" width="18" height="43" rx="2" fill="#2156F5"/>
<path d="M398 57.8031V120.672C398 121.948 390.658 170.5 389.491 170.5H-1L-19 74.4779L11.7415 72.9757C12.5649 72.9006 13.2511 72.3748 13.5256 71.6237C13.6628 71.3232 13.7314 71.0228 13.7314 70.6472V50.0666C13.7314 48.7897 14.6921 47.7382 15.8586 47.7382H17.5055C18.672 47.7382 19.6327 46.6866 19.6327 45.4097V42.5555C19.6327 41.2786 20.5934 40.227 21.7599 40.227H31.3666C32.5332 40.227 33.4938 41.2786 33.4938 42.5555V44.5835C33.4938 45.8604 34.4545 46.912 35.621 46.912H37.4738C38.6403 46.912 39.601 47.9635 39.601 49.2404V82.9655C39.601 84.2424 40.5616 85.294 41.7282 85.294H47.0118C47.3549 85.294 47.698 85.2189 48.0411 84.9935C48.5215 84.6931 48.8646 84.3175 49.0018 83.7166L55.2462 64.2627C55.5206 63.3614 56.3441 62.7605 57.2361 62.7605H65.3332H65.4018C66.5684 62.7605 67.4604 61.7089 67.4604 60.432C67.4604 59.1551 68.4211 58.1787 69.5876 58.1787H83.1743C84.3408 58.1787 85.3015 59.2303 85.3015 60.5072C85.3015 61.784 86.2621 62.7605 87.4287 62.7605H89.7617C90.9282 62.7605 91.8889 61.7089 91.8889 60.432V45.3346C91.8889 44.0577 92.8496 43.0061 94.0161 43.0061H115.768C116.935 43.0061 117.896 44.0577 117.896 45.3346V67.3423C117.896 68.6192 118.856 69.6708 120.023 69.6708H124.003C125.169 69.6708 126.13 70.7223 126.13 71.9992V76.581C126.13 77.4072 126.473 78.0833 127.091 78.5339C127.434 78.7593 127.845 78.9095 128.257 78.9095H160.714C161.881 78.9095 162.841 77.8579 162.841 76.581V55.2493C162.841 54.6484 163.047 54.0476 163.459 53.5969L175.467 40.4524C176.291 39.551 177.595 39.551 178.418 40.4524L189.397 52.4702C189.809 52.9209 190.015 53.4467 190.015 54.1227V76.3557C190.015 77.6326 190.975 78.6842 192.142 78.6842H198.798C199.964 78.6842 200.925 77.6326 200.925 76.3557V64.413C200.925 63.1361 201.886 62.0845 203.052 62.0845H207.718C208.885 62.0845 209.846 61.0329 209.846 59.756V26.7069C209.846 25.43 210.806 24.3785 211.973 24.3785H218.08C218.698 24.3785 219.246 24.6789 219.658 25.1296L231.324 39.1003C231.667 39.551 231.872 40.0768 231.872 40.6777V58.9298C231.872 59.3805 232.01 59.8311 232.216 60.2067C232.559 60.8076 233.245 61.1832 233.931 61.1832H239.97C241.136 61.1832 242.097 62.2347 242.097 63.5116V76.581C242.097 77.4072 242.44 78.0833 243.057 78.5339C243.401 78.7593 243.812 78.9095 244.224 78.9095H247.037C248.204 78.9095 248.684 78.3837 248.684 77.1068L248.204 50.7426C248.204 49.6911 248.753 48.7146 249.576 48.1888C251.703 46.9871 255.478 44.2079 255.478 44.2079V31.439C255.478 30.8381 260.281 25.0545 260.281 25.0545C260.212 24.9794 260.144 24.9043 260.075 24.8292C259.526 24.2283 259.389 23.1767 259.663 22.4256C259.732 22.1251 259.938 21.8247 260.144 21.5993C260.212 21.5242 260.212 21.4491 260.281 21.374C260.418 21.1487 260.555 20.9985 260.761 20.8482C260.761 19.9469 260.761 19.0456 260.761 18.1442C260.83 12.6611 260.281 6.57703 261.31 1.169C261.379 0.943666 261.653 0.943666 261.653 1.169C262.683 6.57703 262.202 12.6611 262.202 18.1442C262.202 19.0456 262.202 19.9469 262.202 20.8482C262.477 20.9985 262.751 21.2989 262.957 21.5993C263.026 21.6745 263.094 21.7496 263.163 21.8998C263.643 22.726 263.712 24.3785 262.614 25.0545C262.82 25.1296 267.829 30.6127 267.829 31.2136L268.309 44.3582C268.309 44.3582 272.358 47.1373 274.554 48.1888C275.446 48.6395 275.995 49.616 276.063 50.6675L276.887 90.026C276.887 91.2278 277.779 92.2042 278.877 92.2794L287.797 92.9554C289.032 93.0305 290.062 91.9789 290.062 90.6269V63.9623C290.062 62.6854 291.022 61.6338 292.189 61.6338H299.394C300.56 61.6338 301.521 60.5823 301.521 59.3054V57.2774C301.521 56.0005 302.482 54.9489 303.648 54.9489H317.647C318.813 54.9489 319.774 56.0005 319.774 57.2774V58.5542C319.774 59.8311 320.735 60.8827 321.901 60.8827H324.92C326.087 60.8827 327.048 59.8311 327.048 58.5542V46.5364C327.048 45.2595 328.008 44.2079 329.175 44.2079H361.632C361.975 44.2079 362.318 44.283 362.592 44.5084C363.279 44.8839 363.69 45.6351 363.69 46.5364V76.2055C363.69 77.4824 364.651 78.5339 365.817 78.5339H373.983C375.15 78.5339 376.11 77.4824 376.11 76.2055V53.4467C376.11 52.9209 376.248 52.4702 376.522 52.0947C376.934 51.4938 377.551 51.1182 378.238 51.1182H380.09C381.257 51.1182 382.218 50.0666 382.218 48.7897V45.1844C382.218 43.9075 383.178 42.8559 384.345 42.8559H389.491C390.658 42.8559 391.618 43.9075 391.618 45.1844V52.8458C391.618 54.1227 392.579 55.1742 393.746 55.1742H396.079C397.039 55.4747 398 56.5262 398 57.8031Z" fill="#007F3E"/>
</g>
</g>
<g clip-path="url(#clip0_17_1549)" filter="url(#filter0_d_17_1549)">
<path d="M151.3 74.7H70.8V140.8H151.3V74.7Z" fill="#2F9E44"/>
<path d="M78.3 74.7H70.8V140.8H78.3V74.7Z" fill="#00803D"/>
<path d="M78.3 74.7H70.8V78.2H78.3V74.7Z" fill="#007F3E"/>
<path d="M143.7 74.7H78.3V78.2H143.7V74.7Z" fill="#007A3A"/>
<path d="M151.3 74.7H143.8V140.8H151.3V74.7Z" fill="#51CF66"/>
<path d="M151.3 74.7H143.8V78.2H151.3V74.7Z" fill="#007A3A"/>
<path d="M90.2 81.5H83.7V88H90.2V81.5Z" fill="#B2F2BB"/>
<path d="M102.3 81.5H95.8V88H102.3V81.5Z" fill="#B2F2BB"/>
<path d="M114.3 81.5H107.8V88H114.3V81.5Z" fill="#B2F2BB"/>
<path d="M126.3 81.5H119.8V88H126.3V81.5Z" fill="#B2F2BB"/>
<path d="M138.3 81.5H131.8V88H138.3V81.5Z" fill="#B2F2BB"/>
<path d="M90.2 93.1H83.7V99.6H90.2V93.1Z" fill="#B2F2BB"/>
<path d="M102.3 93.1H95.8V99.6H102.3V93.1Z" fill="#B2F2BB"/>
<path d="M114.3 93.1H107.8V99.6H114.3V93.1Z" fill="#B2F2BB"/>
<path d="M126.3 93.1H119.8V99.6H126.3V93.1Z" fill="#B2F2BB"/>
<path d="M138.3 93.1H131.8V99.6H138.3V93.1Z" fill="#B2F2BB"/>
<path d="M90.2 104.7H83.7V111.2H90.2V104.7Z" fill="#B2F2BB"/>
<path d="M102.3 104.7H95.8V111.2H102.3V104.7Z" fill="#B2F2BB"/>
<path d="M114.3 104.7H107.8V111.2H114.3V104.7Z" fill="#B2F2BB"/>
<path d="M126.3 104.7H119.8V111.2H126.3V104.7Z" fill="#B2F2BB"/>
<path d="M138.3 104.7H131.8V111.2H138.3V104.7Z" fill="#B2F2BB"/>
<path d="M90.2 116.3H83.7V122.8H90.2V116.3Z" fill="#B2F2BB"/>
<path d="M102.3 116.3H95.8V122.8H102.3V116.3Z" fill="#B2F2BB"/>
<path d="M114.3 116.3H107.8V122.8H114.3V116.3Z" fill="#B2F2BB"/>
<path d="M126.4 127H95.8V140.8H126.4V127Z" fill="#007F3E"/>
<path d="M116.8 131.3H105.3V140.9H116.8V131.3Z" fill="#51CF66"/>
<path d="M126.3 116.3H119.8V122.8H126.3V116.3Z" fill="#B2F2BB"/>
<path d="M138.3 116.3H131.8V122.8H138.3V116.3Z" fill="#B2F2BB"/>
<path d="M89.7 82.1H84.3V87.5H89.7V82.1Z" fill="#2F9E44"/>
<path d="M101.7 82.1H96.3V87.5H101.7V82.1Z" fill="#2F9E44"/>
<path d="M113.7 82.1H108.3V87.5H113.7V82.1Z" fill="#2F9E44"/>
<path d="M125.8 82.1H120.4V87.5H125.8V82.1Z" fill="#2F9E44"/>
<path d="M137.8 82.1H132.4V87.5H137.8V82.1Z" fill="#2F9E44"/>
<path d="M89.7 93.7H84.3V99.1H89.7V93.7Z" fill="#2F9E44"/>
<path d="M101.7 93.7H96.3V99.1H101.7V93.7Z" fill="#2F9E44"/>
<path d="M113.7 93.7H108.3V99.1H113.7V93.7Z" fill="#2F9E44"/>
<path d="M125.8 93.7H120.4V99.1H125.8V93.7Z" fill="#2F9E44"/>
<path d="M137.8 93.7H132.4V99.1H137.8V93.7Z" fill="#2F9E44"/>
<path d="M89.7 105.3H84.3V110.7H89.7V105.3Z" fill="#2F9E44"/>
<path d="M101.7 105.3H96.3V110.7H101.7V105.3Z" fill="#2F9E44"/>
<path d="M113.7 105.3H108.3V110.7H113.7V105.3Z" fill="#2F9E44"/>
<path d="M125.8 105.3H120.4V110.7H125.8V105.3Z" fill="#2F9E44"/>
<path d="M137.8 105.3H132.4V110.7H137.8V105.3Z" fill="#2F9E44"/>
<path d="M89.7 116.9H84.3V122.3H89.7V116.9Z" fill="#2F9E44"/>
<path d="M101.7 116.9H96.3V122.3H101.7V116.9Z" fill="#2F9E44"/>
<path d="M116.2 131.8H105.9V140.8H116.2V131.8Z" fill="#2F9E44"/>
<path d="M113.7 116.9H108.3V122.3H113.7V116.9Z" fill="#2F9E44"/>
<path d="M125.8 116.9H120.4V122.3H125.8V116.9Z" fill="#2F9E44"/>
<path d="M137.8 116.9H132.4V122.3H137.8V116.9Z" fill="#2F9E44"/>
<path opacity="0.4" d="M124.2 99.1H122.1L120.4 97.9V96.4L124.2 99.1Z" fill="#51CF66"/>
<path opacity="0.4" d="M120.4 108.4V110.7H123.7L120.4 108.4Z" fill="#51CF66"/>
<path opacity="0.4" d="M101.7 84.9V83.5L99.8 82.1H97.7L101.7 84.9Z" fill="#51CF66"/>
<path opacity="0.4" d="M108.3 94.5V95.9L112.9 99.1H113.7V98.2L108.3 94.5Z" fill="#51CF66"/>
<path opacity="0.4" d="M88.9 99.1H89.7V98.2L84.3 94.4V95.9L88.9 99.1Z" fill="#51CF66"/>
<path opacity="0.4" d="M98.3 87.5L96.3 86.1V87.5H98.3Z" fill="#51CF66"/>
<path opacity="0.4" d="M89.7 82.9V82.1H88.5L89.7 82.9Z" fill="#51CF66"/>
<path opacity="0.4" d="M84.3 86.9L85.1 87.5H89.7V87L84.3 83.3V86.9Z" fill="#51CF66"/>
<path opacity="0.4" d="M110.6 105.3L113.7 107.4V105.3H110.6Z" fill="#51CF66"/>
<path opacity="0.4" d="M116.2 132.9V131.8H114.6L116.2 132.9Z" fill="#51CF66"/>
<path opacity="0.4" d="M137.8 97.2V93.7H132.8L137.8 97.2Z" fill="#51CF66"/>
<path opacity="0.4" d="M132.6 116.9H132.4V120.4L135 122.3H137.8V120.5L132.6 116.9Z" fill="#51CF66"/>
<path opacity="0.4" d="M101.7 99.1V95.4L99.3 93.7H96.3V95.3L101.7 99.1Z" fill="#51CF66"/>
<path opacity="0.4" d="M113.7 86.6V85.1L109.4 82.1H108.3V82.8L113.7 86.6Z" fill="#51CF66"/>
<path opacity="0.4" d="M99.9 105.3H97.8L101.7 108V106.5L99.9 105.3Z" fill="#51CF66"/>
<path opacity="0.4" d="M120.4 119.4V120.9L122.2 122.2H124.3L120.4 119.4Z" fill="#51CF66"/>
<path opacity="0.4" d="M124 93.7L125.8 94.9V93.7H124Z" fill="#51CF66"/>
<path opacity="0.4" d="M132.4 98.1V99.1H133.8L132.4 98.1Z" fill="#51CF66"/>
<path opacity="0.4" d="M133.1 105.3H132.4V106.3L137.8 110V108.6L133.1 105.3Z" fill="#51CF66"/>
<path opacity="0.4" d="M123.9 105.3H121.8L125.8 108V106.6L123.9 105.3Z" fill="#51CF66"/>
<path opacity="0.4" d="M120.4 82.1V85.1L123.9 87.5H125.8V85.1L121.4 82.1H120.4Z" fill="#51CF66"/>
<path opacity="0.4" d="M132.4 84V85.5L135.3 87.5H137.4L132.4 84Z" fill="#51CF66"/>
<path opacity="0.4" d="M137.1 82.1H135L137.8 84V82.6L137.1 82.1Z" fill="#51CF66"/>
<path opacity="0.4" d="M98.3 110.7L96.3 109.3V110.7H98.3Z" fill="#51CF66"/>
<path opacity="0.4" d="M89.7 108.3V105.3H85.3L89.7 108.3Z" fill="#51CF66"/>
<path opacity="0.4" d="M85 110.7H89.7V110.2L84.3 106.5V110.2L85 110.7Z" fill="#51CF66"/>
<path opacity="0.4" d="M99.2 116.9H96.3V118.5L101.7 122.3V118.6L99.2 116.9Z" fill="#51CF66"/>
<path opacity="0.4" d="M108.7 131.8L116.2 136.9V134.3L112.6 131.8H108.7Z" fill="#51CF66"/>
<path opacity="0.4" d="M89.7 118.9L86.8 116.9H84.8L89.7 120.3V118.9Z" fill="#51CF66"/>
<path opacity="0.4" d="M108.3 121.3L109.7 122.3H113.7V121.4L108.3 117.7V121.3Z" fill="#51CF66"/>
<path opacity="0.4" d="M116.2 140.8L105.9 133.5V134.5L114.7 140.8H116.2Z" fill="#51CF66"/>
<path d="M154.2 73.3H68V76.5H154.2V73.3Z" fill="#00803D"/>
<path d="M78.3 73.3H68V76.5H78.3V73.3Z" fill="#007F3E"/>
<path d="M154.1 73.3H143.8V76.5H154.1V73.3Z" fill="#51CF66"/>
<path d="M95.8 136H70.8V140.8H95.8V136Z" fill="#007F3E"/>
<path d="M151.3 136H126.3V140.8H151.3V136Z" fill="#007F3E"/>
<path d="M111 131.5V141" stroke="white" stroke-width="0.5"/>
</g>
<g filter="url(#filter1_d_17_1549)">
<path opacity="0.1" d="M119.036 49.2156C118.773 48.9531 118.361 48.9531 118.117 49.2156C117.873 49.4781 117.873 49.8905 118.117 50.1343C119.861 51.8778 120.817 54.2026 120.817 56.6774C120.817 59.1521 119.842 61.4769 118.117 63.2017C117.873 63.4642 117.873 63.8766 118.117 64.1204C118.229 64.2516 118.398 64.3078 118.567 64.3078C118.736 64.3078 118.886 64.2329 119.036 64.1204C121.023 62.1518 122.11 59.4896 122.11 56.6774C122.11 53.8651 121.023 51.1841 119.036 49.2156Z" fill="#51CF66"/>
<path opacity="0.1" d="M102.294 56.6586C102.294 54.1839 103.269 51.8591 104.993 50.1155C105.256 49.853 105.256 49.4406 104.993 49.1969C104.731 48.9344 104.318 48.9344 104.075 49.1969C102.087 51.1654 101 53.8276 101 56.6586C101 59.4896 102.087 62.1331 104.093 64.1391C104.206 64.2704 104.375 64.3266 104.543 64.3266C104.712 64.3266 104.881 64.2516 104.993 64.1204C105.256 63.8579 105.256 63.4454 104.993 63.2017C103.269 61.4581 102.294 59.1334 102.294 56.6586Z" fill="#51CF66"/>
<path opacity="0.5" d="M118.267 56.6586C118.267 58.4584 117.573 60.127 116.299 61.4019C116.055 61.6644 116.055 62.0768 116.299 62.3205C116.411 62.4518 116.58 62.508 116.748 62.508C116.917 62.508 117.086 62.433 117.217 62.283C118.736 60.7832 119.561 58.7771 119.561 56.6399C119.561 54.5026 118.736 52.4965 117.217 50.9967C116.955 50.7342 116.542 50.7342 116.299 50.9967C116.055 51.2591 116.055 51.6716 116.299 51.9153C117.555 53.1714 118.267 54.8588 118.267 56.6586Z" fill="#51CF66"/>
<path opacity="0.5" d="M105.912 62.3206C106.024 62.4518 106.193 62.508 106.362 62.508C106.531 62.508 106.699 62.433 106.831 62.358C107.074 62.0956 107.074 61.6831 106.831 61.4394C105.556 60.1645 104.862 58.4959 104.862 56.6961C104.862 54.8963 105.556 53.2277 106.831 51.9528C107.074 51.6904 107.074 51.2779 106.831 51.0342C106.568 50.7717 106.156 50.7717 105.912 51.0342C104.393 52.534 103.568 54.5401 103.568 56.6774C103.568 58.8146 104.393 60.802 105.912 62.3206Z" fill="#51CF66"/>
<path d="M114.48 60.502C114.593 60.6333 114.761 60.6895 114.93 60.6895C115.099 60.6895 115.267 60.6333 115.399 60.4833C117.517 58.3647 117.517 54.9151 115.399 52.7965C115.136 52.5341 114.724 52.5341 114.48 52.7965C114.236 53.059 114.236 53.4715 114.48 53.7152C116.092 55.3463 116.092 57.971 114.48 59.5646C114.236 59.8458 114.236 60.2583 114.48 60.502Z" fill="#51CF66"/>
<path d="M107.712 60.502C107.824 60.6332 107.993 60.6895 108.162 60.6895C108.33 60.6895 108.499 60.6332 108.611 60.502C108.855 60.2395 108.855 59.8271 108.611 59.5833C106.999 57.971 106.999 55.3463 108.63 53.7527C108.874 53.4902 108.874 53.0777 108.63 52.834C108.368 52.5715 107.955 52.5715 107.712 52.834C105.612 54.9338 105.612 58.3835 107.712 60.502Z" fill="#51CF66"/>
<path d="M111.555 58.8897C112.787 58.8897 113.786 57.8908 113.786 56.6586C113.786 55.4265 112.787 54.4276 111.555 54.4276C110.323 54.4276 109.324 55.4265 109.324 56.6586C109.324 57.8908 110.323 58.8897 111.555 58.8897Z" fill="#8CE99A"/>
<path d="M112.943 58.8709C112.83 58.9459 112.718 59.0021 112.605 59.0584L113.074 60.4832L111.555 62.0206L110.037 60.4645L110.505 59.0396C110.393 58.9834 110.28 58.9271 110.168 58.8521L105.575 72.7258C105.537 72.8195 105.593 72.932 105.687 72.9695C105.781 73.007 105.893 72.9508 105.931 72.857L106.175 72.1258L111.555 68.4887L116.917 72.1446L117.161 72.8758C117.199 72.9695 117.311 73.0257 117.405 72.9882C117.498 72.9508 117.555 72.857 117.517 72.7445L112.943 58.8709ZM113.205 60.8582L114.63 65.1515L111.818 62.2831L113.205 60.8582ZM109.905 60.8582L111.293 62.2831L108.499 65.1515L109.905 60.8582ZM106.4 71.5446L108.162 66.1827L111.218 68.2637L106.4 71.5446ZM108.368 65.8452L111.555 62.5455L114.743 65.8452L111.555 68.02L108.368 65.8452ZM111.893 68.245L114.949 66.1639L116.73 71.5259L111.893 68.245Z" fill="#51CF66"/>
</g>
<g clip-path="url(#clip1_17_1549)">
<path d="M315.997 53.3758H232.162V139.574H315.997V53.3758Z" fill="#2F9E44"/>
<path d="M315.997 53.3758H311.866V139.574H315.997V53.3758Z" fill="#51CF66"/>
<path d="M236.455 53.3758H232.162V139.574H236.455V53.3758Z" fill="#007F3E"/>
<path d="M315.994 52.52H232V56.685H315.994V52.52Z" fill="#007F3E"/>
<path d="M315.97 52.52H311.92V56.84H315.97V52.52Z" fill="#51CF66"/>
<path d="M275.578 127.076H272.905C270.718 127.076 268.693 127.502 266.83 128.212C261.727 130.2 258.244 134.745 258.244 139.929H290.239C290.239 136.733 288.943 133.822 286.756 131.62C284.083 128.851 280.033 127.076 275.578 127.076Z" fill="#007F3E"/>
<path d="M283.678 131.052H264.4V140H283.678V131.052Z" fill="#51CF66"/>
<path d="M282.544 131.833H265.453V140H282.544V131.833Z" fill="#2F9E44"/>
<path d="M282.625 134.603V136.307L273.229 131.833H276.793L282.625 134.603ZM267.883 131.833H265.453V132.402L281.329 140H282.544V138.864L267.883 131.833ZM273.067 139.929H275.254L265.453 135.242V136.307L273.067 139.929Z" fill="#82C58F"/>
<path d="M274.282 131.833H273.877V140H274.282V131.833Z" fill="#EDFDEF"/>
<path d="M245.041 70.9747H239.776V83.047H245.041V70.9747Z" fill="#B2F2BB"/>
<path d="M244.555 71.4718H240.181V82.4789H244.555V71.4718Z" fill="#2F9E44"/>
<path d="M254.194 70.9747H248.929V83.047H254.194V70.9747Z" fill="#B2F2BB"/>
<path d="M253.789 71.4718H249.415V82.4789H253.789V71.4718Z" fill="#2F9E44"/>
<path d="M263.428 70.9747H258.163V83.047H263.428V70.9747Z" fill="#B2F2BB"/>
<path d="M263.023 71.4718H258.649V82.4789H263.023V71.4718Z" fill="#2F9E44"/>
<path d="M272.662 70.9747H267.397V83.047H272.662V70.9747Z" fill="#B2F2BB"/>
<path d="M272.176 71.4718H267.802V82.4789H272.176V71.4718Z" fill="#2F9E44"/>
<path d="M281.815 70.9747H276.55V83.047H281.815V70.9747Z" fill="#B2F2BB"/>
<path d="M281.41 71.4718H277.036V82.4789H281.41V71.4718Z" fill="#2F9E44"/>
<path d="M291.049 70.9747H285.784V83.047H291.049V70.9747Z" fill="#B2F2BB"/>
<path d="M290.563 71.4718H286.189V82.4789H290.563V71.4718Z" fill="#2F9E44"/>
<path d="M300.202 70.9747H294.937V83.047H300.202V70.9747Z" fill="#B2F2BB"/>
<path d="M299.797 71.4718H295.423V82.4789H299.797V71.4718Z" fill="#2F9E44"/>
<path d="M309.436 70.9747H304.171V83.047H309.436V70.9747Z" fill="#B2F2BB"/>
<path d="M309.031 71.4718H304.657V82.4789H309.031V71.4718Z" fill="#2F9E44"/>
<path d="M245.041 87.5919H239.776V99.6642H245.041V87.5919Z" fill="#B2F2BB"/>
<path d="M244.555 88.16H240.181V99.1671H244.555V88.16Z" fill="#2F9E44"/>
<path d="M254.194 87.5919H248.929V99.6642H254.194V87.5919Z" fill="#B2F2BB"/>
<path d="M253.789 88.16H249.415V99.1671H253.789V88.16Z" fill="#2F9E44"/>
<path d="M263.428 87.5919H258.163V99.6642H263.428V87.5919Z" fill="#B2F2BB"/>
<path d="M263.023 88.16H258.649V99.1671H263.023V88.16Z" fill="#2F9E44"/>
<path d="M272.662 87.5919H267.397V99.6642H272.662V87.5919Z" fill="#B2F2BB"/>
<path d="M272.176 88.16H267.802V99.1671H272.176V88.16Z" fill="#2F9E44"/>
<path d="M281.815 87.5919H276.55V99.6642H281.815V87.5919Z" fill="#B2F2BB"/>
<path d="M281.41 88.16H277.036V99.1671H281.41V88.16Z" fill="#2F9E44"/>
<path d="M291.049 87.5919H285.784V99.6642H291.049V87.5919Z" fill="#B2F2BB"/>
<path d="M290.563 88.16H286.189V99.1671H290.563V88.16Z" fill="#2F9E44"/>
<path d="M300.202 87.5919H294.937V99.6642H300.202V87.5919Z" fill="#B2F2BB"/>
<path d="M299.797 88.16H295.423V99.1671H299.797V88.16Z" fill="#2F9E44"/>
<path d="M309.436 87.5919H304.171V99.6642H309.436V87.5919Z" fill="#B2F2BB"/>
<path d="M309.031 88.16H304.657V99.1671H309.031V88.16Z" fill="#2F9E44"/>
<path d="M245.041 104.209H239.776V116.281H245.041V104.209Z" fill="#B2F2BB"/>
<path d="M244.555 104.777H240.181V115.784H244.555V104.777Z" fill="#2F9E44"/>
<path d="M254.194 104.209H248.929V116.281H254.194V104.209Z" fill="#B2F2BB"/>
<path d="M253.789 104.777H249.415V115.784H253.789V104.777Z" fill="#2F9E44"/>
<path d="M263.428 104.209H258.163V116.281H263.428V104.209Z" fill="#B2F2BB"/>
<path d="M263.023 104.777H258.649V115.784H263.023V104.777Z" fill="#2F9E44"/>
<path d="M272.662 104.209H267.397V116.281H272.662V104.209Z" fill="#B2F2BB"/>
<path d="M272.176 104.777H267.802V115.784H272.176V104.777Z" fill="#2F9E44"/>
<path d="M281.815 104.209H276.55V116.281H281.815V104.209Z" fill="#B2F2BB"/>
<path d="M281.41 104.777H277.036V115.784H281.41V104.777Z" fill="#2F9E44"/>
<path d="M291.049 104.209H285.784V116.281H291.049V104.209Z" fill="#B2F2BB"/>
<path d="M290.563 104.777H286.189V115.784H290.563V104.777Z" fill="#2F9E44"/>
<path d="M300.202 104.209H294.937V116.281H300.202V104.209Z" fill="#B2F2BB"/>
<path d="M299.797 104.777H295.423V115.784H299.797V104.777Z" fill="#2F9E44"/>
<path d="M309.436 104.209H304.171V116.281H309.436V104.209Z" fill="#B2F2BB"/>
<path d="M309.031 104.777H304.657V115.784H309.031V104.777Z" fill="#2F9E44"/>
<path d="M245.041 124.732H239.776V136.804H245.041V124.732Z" fill="#B2F2BB"/>
<path d="M244.555 125.3H240.181V136.307H244.555V125.3Z" fill="#2F9E44"/>
<path d="M254.194 124.732H248.929V136.804H254.194V124.732Z" fill="#B2F2BB"/>
<path d="M253.789 125.3H249.415V136.307H253.789V125.3Z" fill="#2F9E44"/>
<path d="M300.202 124.732H294.937V136.804H300.202V124.732Z" fill="#B2F2BB"/>
<path d="M299.797 125.3H295.423V136.307H299.797V125.3Z" fill="#2F9E44"/>
<path d="M309.436 124.732H304.171V136.804H309.436V124.732Z" fill="#B2F2BB"/>
<path d="M309.031 125.3H304.657V136.307H309.031V125.3Z" fill="#2F9E44"/>
<path d="M267.802 110.032L272.176 112.163V115.713H271.447L267.802 113.938V110.032ZM263.023 94.6222V93.273L258.649 91.1426V92.4918L263.023 94.6222ZM277.036 114.506V115.713H279.547L277.036 114.506ZM272.176 109.535V108.186L267.802 106.055V107.405L272.176 109.535ZM263.023 88.16H260.998L263.023 89.1542V88.16ZM258.649 82.1238L259.378 82.4789H262.132L258.73 80.7746V82.1238H258.649ZM277.036 94.6222V95.9715L281.41 98.1019V96.7526L277.036 94.6222ZM253.789 79.7804V78.4311L249.415 76.3007V77.65L253.789 79.7804ZM295.423 136.236H299.797V135.384L295.423 133.254V136.236ZM251.278 115.713H253.789V113.015L249.415 110.884V114.861L251.278 115.713ZM263.023 115.429V114.08L258.649 111.95V113.299L263.023 115.429ZM304.657 135.739L305.791 136.307H308.545L304.657 134.461V135.739ZM258.649 115.358V115.713H259.378L258.649 115.358ZM263.023 111.595V107.618L258.649 105.487V109.464L263.023 111.595ZM295.423 129.916V131.265L299.797 133.396V132.046L295.423 129.916ZM263.023 105.061V104.777H262.456L263.023 105.061ZM272.176 93.628V92.2788L267.802 90.1484V91.4976L272.176 93.628ZM244.555 115.5L240.181 113.37V114.719L242.287 115.713H244.555V115.5ZM304.657 131.904L309.031 134.035V130.058L304.657 127.928V131.904ZM244.555 105.132L243.745 104.777H240.991L244.474 106.482V105.132H244.555ZM253.789 109.606L249.415 107.476V108.825L253.789 110.955V109.606ZM244.555 98.67L240.181 96.5396V99.0961H244.555V98.67ZM250.792 99.0961H253.546L249.415 97.1077V98.457L250.792 99.0961ZM249.415 129.561L253.789 131.691V130.342L249.415 128.212V129.561ZM240.586 125.3L244.555 127.218V125.868L243.259 125.229H240.586V125.3ZM249.415 81.2006V82.4789H252.088L249.415 81.2006ZM286.432 104.777H286.189V105.984L290.563 108.115V106.766L286.432 104.777ZM272.176 88.7281V88.16H270.88L272.176 88.7281ZM272.176 97.8179L267.802 95.6874V97.0367L272.095 99.1671H272.176V97.8179ZM272.176 78.3601V77.0108L267.802 74.8804V76.2297L272.176 78.3601ZM281.41 93.202V91.8527L277.036 89.7223V91.0716L281.41 93.202ZM272.176 71.4718H267.802V72.3949L272.176 74.5254V71.4718ZM281.41 78.9992V75.0225L277.036 72.892V76.8688L281.41 78.9992ZM277.036 79.3543V80.7036L280.681 82.4789H281.41V81.4847L277.036 79.3543ZM304.657 125.3L309.031 127.502V126.152L307.33 125.3H304.657ZM244.555 94.7643L240.181 92.6339V93.9831L244.555 96.1135V94.7643ZM263.023 72.537L260.917 71.4718H258.649V71.6848L263.023 73.8152V72.537ZM253.789 88.8701L252.331 88.16H249.577L253.789 90.2194V88.8701ZM244.555 130.981L240.181 128.851V132.828L244.555 134.958V130.981ZM244.555 108.541L240.181 106.411V110.387L244.555 112.518V108.541ZM244.555 73.9573L240.181 71.8268V73.1761L244.555 75.3065V73.9573ZM244.555 78.7862L240.181 76.6558V78.005L244.555 80.1354V78.7862ZM240.181 82.1948V82.4789H240.667L240.181 82.1948ZM253.789 104.777H249.415V105.061L253.789 107.192V104.777ZM304.657 109.393L309.031 111.523V110.174L304.657 108.044V109.393ZM305.062 104.777L309.031 106.695V105.345L307.816 104.706H305.062V104.777ZM304.657 94.1962L309.031 96.3266V94.9773L304.657 92.8469V94.1962ZM244.474 136.236L240.181 134.177V135.526L241.801 136.307H244.474V136.236ZM295.423 125.3V127.431L299.797 129.561V125.584L299.149 125.3H295.423ZM249.415 136.236H253.789V135.384L249.415 133.254V136.236ZM249.415 125.3V125.939L253.789 128.07V126.72L250.873 125.3H249.415ZM304.657 114.932L306.277 115.713H309.031L304.657 113.583V114.932ZM308.221 88.16H304.657V90.3614L309.031 92.4918V88.5151L308.221 88.16ZM295.423 98.741V99.0961H296.152L295.423 98.741ZM297.772 104.777H295.423V104.919L299.797 107.05V105.7L297.772 104.777ZM281.41 71.4718H279.466L281.41 72.3949V71.4718ZM295.423 88.373V89.7223L299.797 91.8527V90.5034L295.423 88.373ZM277.036 110.529V111.879L281.41 114.009V112.66L277.036 110.529ZM290.563 79.5673L286.189 77.4369V81.4137L288.457 82.5499H290.563V79.5673ZM286.189 115.003V115.713H287.566L286.189 115.003ZM295.423 109.109V110.458L299.797 112.589V111.239L295.423 109.109ZM286.189 94.2672V95.6164L290.563 97.7468V96.3976L286.189 94.2672ZM304.657 77.4369L309.031 79.5673V78.2181L304.657 76.0877V77.4369ZM304.657 73.3891L309.031 75.5196V74.1703L304.657 72.0399V73.3891ZM290.563 76.9398V75.5906L286.189 73.4602V74.8094L290.563 76.9398ZM299.797 75.0935V73.7442L295.423 71.6138V72.9631L299.797 75.0935ZM295.423 81.9108V82.4789H296.638L295.423 81.9108ZM295.423 77.934V79.2833L299.797 81.4137V80.0644L295.423 77.934Z" fill="#38BD51"/>
<path d="M298.682 46.5H250.36V49.5H298.682V46.5Z" fill="#01803D"/>
<path d="M253.311 46.5H250.36V49.5H253.311V46.5Z" fill="#007F3E"/>
<path d="M298.96 46.5H296.01V49.5H298.96V46.5Z" fill="#51CF66"/>
<g filter="url(#filter2_d_17_1549)">
<path d="M309.232 49.5H238.48V52.5H309.232V49.5Z" fill="#01803D"/>
<path d="M242.8 49.5H238.48V52.5H242.8V49.5Z" fill="#007F3E"/>
<path d="M309.64 49.5H305.32V52.5H309.64V49.5Z" fill="#51CF66"/>
</g>
<g filter="url(#filter3_d_17_1549)">
<path d="M240.087 65.126H240.61L241.697 62.074H241.183L240.366 64.5549H240.33L239.514 62.074H239L240.087 65.126Z" fill="white"/>
<path d="M242.23 65.126H242.703V62.074H242.23V65.126Z" fill="white"/>
<path d="M243.469 65.126H245.406V64.7178H243.943V63.7681H245.328V63.3748H243.943V62.4822H245.406V62.074H243.469V65.126Z" fill="white"/>
<path d="M246.866 65.126H247.339V62.4822H248.298V62.074H245.905V62.4822H246.866V65.126Z" fill="white"/>
<path d="M248.879 65.126H249.34V62.9095H249.374L250.941 65.126H251.369V62.074H250.907V64.2948H250.876L249.306 62.074H248.879V65.126Z" fill="white"/>
<path d="M251.902 65.126H252.399L252.676 64.3011H253.843L254.118 65.126H254.617L253.515 62.074H253.003L251.902 65.126ZM253.24 62.6091H253.276L253.716 63.9204H252.803L253.24 62.6091Z" fill="white"/>
<path d="M255.148 65.126H255.58V62.8862H255.613L256.508 65.126H256.859L257.756 62.8862H257.788V65.126H258.219V62.074H257.673L256.7 64.5084H256.667L255.694 62.074H255.148V65.126Z" fill="white"/>
<path d="M260.169 65.126H260.63V62.9095H260.664L262.231 65.126H262.658V62.074H262.197V64.2948H262.166L260.596 62.074H260.169V65.126Z" fill="white"/>
<path d="M263.191 65.126H263.688L263.965 64.3011H265.133L265.408 65.126H265.907L264.805 62.074H264.293L263.191 65.126ZM264.53 62.6091H264.566L265.006 63.9204H264.092L264.53 62.6091Z" fill="white"/>
<path d="M266.861 65.126H267.335V62.4822H268.293V62.074H265.901V62.4822H266.861V65.126Z" fill="white"/>
<path d="M268.874 65.126H269.348V62.074H268.874V65.126Z" fill="white"/>
<path d="M271.415 65.2C272.296 65.2 272.838 64.5782 272.838 63.6011V63.5968C272.838 62.6176 272.292 62 271.415 62C270.539 62 269.989 62.6155 269.989 63.5968V63.6011C269.989 64.5803 270.526 65.2 271.415 65.2ZM271.415 64.7812C270.827 64.7812 270.473 64.3159 270.473 63.6011V63.5968C270.473 62.8756 270.837 62.4188 271.415 62.4188C271.992 62.4188 272.354 62.8756 272.354 63.5968V63.6011C272.354 64.3159 271.994 64.7812 271.415 64.7812Z" fill="white"/>
<path d="M273.481 65.126H273.942V62.9095H273.976L275.543 65.126H275.97V62.074H275.509V64.2948H275.477L273.908 62.074H273.481V65.126Z" fill="white"/>
<path d="M276.503 65.126H277L277.277 64.3011H278.445L278.72 65.126H279.219L278.117 62.074H277.605L276.503 65.126ZM277.842 62.6091H277.878L278.318 63.9204H277.404L277.842 62.6091Z" fill="white"/>
<path d="M279.75 65.126H281.653V64.7178H280.224V62.074H279.75V65.126Z" fill="white"/>
<path d="M284.671 65.2C285.439 65.2 285.907 64.7453 285.907 64.0748V62.074H285.433V64.0389C285.433 64.4809 285.158 64.7812 284.671 64.7812C284.185 64.7812 283.908 64.4809 283.908 64.0389V62.074H283.434V64.0748C283.434 64.7453 283.906 65.2 284.671 65.2Z" fill="white"/>
<path d="M286.67 65.126H287.131V62.9095H287.165L288.732 65.126H289.159V62.074H288.698V64.2948H288.667L287.097 62.074H286.67V65.126Z" fill="white"/>
<path d="M289.927 65.126H290.401V62.074H289.927V65.126Z" fill="white"/>
<path d="M292.019 65.126H292.541L293.628 62.074H293.114L292.298 64.5549H292.262L291.446 62.074H290.932L292.019 65.126Z" fill="white"/>
<path d="M294.161 65.126H296.099V64.7178H294.635V63.7681H296.02V63.3748H294.635V62.4822H296.099V62.074H294.161V65.126Z" fill="white"/>
<path d="M296.784 65.126H297.258V63.9521H297.926L298.548 65.126H299.096L298.41 63.8781C298.783 63.7533 299.003 63.4192 299.003 63.0089V63.0046C299.003 62.4378 298.613 62.074 297.987 62.074H296.784V65.126ZM297.258 63.5672V62.4716H297.926C298.292 62.4716 298.516 62.6789 298.516 63.0173V63.0215C298.516 63.3684 298.305 63.5672 297.941 63.5672H297.258Z" fill="white"/>
<path d="M300.709 65.2C301.42 65.2 301.875 64.8362 301.875 64.2525V64.2504C301.875 63.7978 301.613 63.5397 300.972 63.4022L300.64 63.3282C300.244 63.2436 300.083 63.0956 300.083 62.8693V62.8672C300.083 62.5795 300.348 62.4124 300.705 62.4124C301.075 62.4103 301.314 62.5922 301.355 62.8418L301.359 62.8693H301.818L301.816 62.8397C301.782 62.3659 301.359 62 300.712 62C300.064 62 299.608 62.3638 299.605 62.8904V62.8925C299.605 63.343 299.872 63.6307 300.492 63.7618L300.826 63.8337C301.23 63.9204 301.395 64.0727 301.395 64.3075V64.3096C301.395 64.593 301.118 64.7876 300.728 64.7876C300.32 64.7876 300.026 64.6099 300.001 64.3328L299.999 64.3096H299.533L299.536 64.3371C299.578 64.851 300.02 65.2 300.709 65.2Z" fill="white"/>
<path d="M302.499 65.126H302.972V62.074H302.499V65.126Z" fill="white"/>
<path d="M304.512 65.126H304.986V62.4822H305.944V62.074H303.552V62.4822H304.512V65.126Z" fill="white"/>
<path d="M307.365 65.126H307.839V63.876L308.916 62.074H308.389L307.621 63.4044H307.585L306.818 62.074H306.291L307.365 63.876V65.126Z" fill="white"/>
</g>
</g>
<g clip-path="url(#clip2_17_1549)">
<g filter="url(#filter4_d_17_1549)">
<path d="M168.844 85H152.169V91.8444H168.844V85Z" fill="#2F9E44"/>
<path d="M153.538 85H152.169V91.8444H153.538V85Z" fill="#007F3E"/>
<path d="M168.844 85H167.476V91.8444H168.844V85Z" fill="#51CF66"/>
<path d="M172.889 91.8445H148V141H172.889V91.8445Z" fill="#33AD4A"/>
<path d="M173.013 89.5422H148V91.8445H173.013V89.5422Z" fill="#007F3E"/>
<path d="M173.013 133.844H148V140.813L173 141L173.013 133.844Z" fill="#2F9E44"/>
<path d="M149.307 133.844H148V140.813H149.307V133.844Z" fill="#007F3E"/>
<path d="M173.013 133.844H148V135.711H173.013V133.844Z" fill="#007F3E"/>
<path d="M172.889 91.8445H171.644V136.644H172.889V91.8445Z" fill="#51CF66"/>
<path d="M149.244 91.8445H148V136.644H149.244V91.8445Z" fill="#007F3E"/>
<path d="M228.578 85H211.902V91.8444H228.578V85Z" fill="#33AD4A"/>
<path d="M213.458 85H211.902V91.8444H213.458V85Z" fill="#007F3E"/>
<path d="M228.702 85H227.147V91.8444H228.702V85Z" fill="#51CF66"/>
<path d="M232.622 91.8445H207.733V141H232.622V91.8445Z" fill="#33AD4A"/>
<path d="M232.622 91.8445H231.378V141H232.622V91.8445Z" fill="#51CF66"/>
<path d="M208.978 91.8445H207.733V141H208.978V91.8445Z" fill="#007F3E"/>
<path d="M232.747 89.5422H207.733V91.8445H232.747V89.5422Z" fill="#007F3E"/>
<path d="M232.747 133.844H207.733V140.813H232.747V133.844Z" fill="#2F9E44"/>
<path d="M232.747 133.844H231.44V140.813H232.747V133.844Z" fill="#51CF66"/>
<path d="M232.747 133.844H207.733V135.711H232.747V133.844Z" fill="#007F3E"/>
</g>
<path d="M212.027 137.329H168.72V141H212L212.027 137.329Z" fill="#007F3E"/>
<path d="M169.964 103.418V120.716V122.271V137.329H210.782V122.271V120.716V103.418H169.964Z" fill="#33AD4A"/>
<path d="M207.733 103.418V120.716V122.769V137.329H210.782V122.769V120.716V103.418H207.733Z" fill="#51CF66"/>
<path d="M169.964 103.418V120.716V123.018V137.329H173.013V123.018V120.716V103.418H169.964Z" fill="#007F3E"/>
<path d="M211.778 113.809H169.031V116.111H211.778V113.809Z" fill="#51CF66"/>
<path d="M211.778 114.929H169.031V116.111H211.778V114.929Z" fill="#007F3E"/>
<path d="M211.778 102.733H169.031V105.036H211.778V102.733Z" fill="#007F3E"/>
<path d="M211.778 103.853H169.031V105.036H211.778V103.853Z" fill="#007F3E"/>
<path d="M200.951 124.449H179.796V137.329H200.951V124.449Z" fill="#007F3E"/>
<path d="M196.409 128.431H184.4V137.329H196.409V128.431Z" fill="#51CF66"/>
<path d="M195.911 128.867H184.836V137.329H195.911V128.867Z" fill="#2F9E44"/>
<path opacity="0.4" d="M184.836 135.524V134.716L190.809 137.329H188.942L184.836 135.524ZM184.836 131.978V132.787L195.164 137.329H195.911V136.831L184.836 131.978ZM189.627 128.867L195.911 131.667V130.858L191.431 128.929H189.627V128.867ZM187.884 128.867H184.836V129.24L195.911 134.093V132.351L187.884 128.867Z" fill="white"/>
<path d="M190.56 128.867H190.249V137.329H190.56V128.867Z" fill="#EDFDEF"/>
<path d="M190.14 78.7154H189.187V102.715H190.14V78.7154Z" fill="#FF4D00"/>
<path d="M204.922 78.7154H190.141V87.4571H204.922V78.7154Z" fill="#FF4D00"/>
<g clip-path="url(#clip3_17_1549)">
<path d="M198.163 82.4727C198.104 82.4727 198.041 82.4272 198.023 82.3713L197.447 80.5981C197.429 80.5421 197.399 80.5421 197.381 80.5981L196.805 82.3713C196.787 82.4273 196.724 82.4727 196.665 82.4727H194.801C194.742 82.4727 194.733 82.5007 194.78 82.5354L196.289 83.6311C196.336 83.6658 196.36 83.7392 196.342 83.7952L195.766 85.5683C195.748 85.6243 195.772 85.6417 195.819 85.607L197.328 84.5113C197.375 84.4767 197.453 84.4767 197.5 84.5113L199.009 85.6071C199.056 85.6418 199.08 85.6244 199.062 85.5684L198.486 83.7953C198.468 83.7393 198.491 83.6659 198.539 83.6312L200.047 82.5355C200.095 82.5008 200.086 82.4728 200.027 82.4728H198.163V82.4727Z" fill="#FFDE70"/>
</g>
<path d="M199.831 107.027H180.915V111.196H199.831V107.027Z" fill="#51CF66"/>
<path d="M217.274 107.083H225.026L217.274 98V107.083Z" fill="#38BD51"/>
<path d="M217.274 98L225.026 107.083V98H217.274Z" fill="#2F9E44"/>
<path d="M225.026 98H217.274V107.144H225.026V98Z" stroke="#B2F2BB" stroke-width="0.75" stroke-miterlimit="10"/>
<path d="M221.15 98V107.083" stroke="#B2F2BB" stroke-width="0.5" stroke-miterlimit="10"/>
<path d="M216 107.79H226.265V106.466H216V107.79Z" fill="#2F9E44"/>
<path d="M155.274 107.083H163.026L155.274 98V107.083Z" fill="#38BD51"/>
<path d="M155.274 98L163.026 107.083V98H155.274Z" fill="#2F9E44"/>
<path d="M163.026 98H155.274V107.144H163.026V98Z" stroke="#B2F2BB" stroke-width="0.75" stroke-miterlimit="10"/>
<path d="M159.15 98V107.083" stroke="#B2F2BB" stroke-width="0.5" stroke-miterlimit="10"/>
<path d="M154 107.79H164.265V106.466H154V107.79Z" fill="#2F9E44"/>
<path d="M217.274 125.083H225.026L217.274 116V125.083Z" fill="#38BD51"/>
<path d="M217.274 116L225.026 125.083V116H217.274Z" fill="#2F9E44"/>
<path d="M225.026 116H217.274V125.144H225.026V116Z" stroke="#B2F2BB" stroke-width="0.75" stroke-miterlimit="10"/>
<path d="M221.15 116V125.083" stroke="#B2F2BB" stroke-width="0.5" stroke-miterlimit="10"/>
<path d="M216 125.79H226.265V124.466H216V125.79Z" fill="#2F9E44"/>
<path d="M155.274 125.083H163.026L155.274 116V125.083Z" fill="#38BD51"/>
<path d="M155.274 116L163.026 125.083V116H155.274Z" fill="#2F9E44"/>
<path d="M163.026 116H155.274V125.144H163.026V116Z" stroke="#B2F2BB" stroke-width="0.75" stroke-miterlimit="10"/>
<path d="M159.15 116V125.083" stroke="#B2F2BB" stroke-width="0.5" stroke-miterlimit="10"/>
<path d="M154 125.79H164.265V124.466H154V125.79Z" fill="#2F9E44"/>
</g>
</svg>
