<svg width="375" height="120" viewBox="0 0 375 120" fill="none" xmlns="http://www.w3.org/2000/svg">
<mask id="mask0_2359_1752" style="mask-type:luminance" maskUnits="userSpaceOnUse" x="0" y="0" width="375" height="120">
<path d="M375 0H0V120H375V0Z" fill="white"/>
</mask>
<g mask="url(#mask0_2359_1752)">
<path d="M0 -144H375V144.074C375 144.074 331 165 187.5 165C44 165 0 144.074 0 144.074V-144Z" fill="url(#paint0_linear_2359_1752)"/>
<path opacity="0.5" d="M114.861 50.3252L112.842 48.6859C111.77 47.8155 110.196 47.9789 109.325 49.0508L107.686 51.0698C106.816 52.1416 106.979 53.7161 108.051 54.5864L110.07 56.2258C111.142 57.0961 112.716 56.9327 113.586 55.8609L115.226 53.8419C116.096 52.77 115.933 51.1956 114.861 50.3252Z" stroke="#5E71EA" stroke-width="3"/>
<path opacity="0.5" d="M78.8609 81.3252L76.8419 79.6859C75.77 78.8155 74.1956 78.9789 73.3253 80.0508L71.6859 82.0698C70.8155 83.1416 70.9789 84.7161 72.0508 85.5864L74.0698 87.2258C75.1416 88.0961 76.7161 87.9327 77.5864 86.8609L79.2258 84.8419C80.0961 83.77 79.9328 82.1956 78.8609 81.3252Z" stroke="#4C61DD" stroke-width="3"/>
<path opacity="0.32" d="M1.01897 84.4463C10.6053 103.116 33.5111 110.479 52.1806 100.893C70.8501 91.3065 78.2134 68.4007 68.6271 49.7312C59.0408 31.0617 36.1349 23.6984 17.4655 33.2847C-1.204 42.871 -8.56735 65.7769 1.01897 84.4463Z" stroke="url(#paint1_linear_2359_1752)" stroke-width="40"/>
<path opacity="0.5" d="M253.861 49.3252L251.842 47.6859C250.77 46.8155 249.195 46.9789 248.325 48.0508L246.686 50.0698C245.815 51.1416 245.979 52.7161 247.051 53.5864L249.07 55.2258C250.141 56.0961 251.716 55.9327 252.586 54.8609L254.226 52.8419C255.096 51.77 254.933 50.1956 253.861 49.3252Z" stroke="#5E71EA" stroke-width="3"/>
</g>
<path opacity="0.24" d="M360 81.2904C360 96.2568 347.359 109 331 109C314.641 109 302 96.2568 302 81.2904C302 66.3239 314.641 53.5807 331 53.5807C347.359 53.5807 360 66.3239 360 81.2904Z" stroke="url(#paint2_linear_2359_1752)" stroke-width="22"/>
<defs>
<linearGradient id="paint0_linear_2359_1752" x1="187.5" y1="-144" x2="188" y2="264" gradientUnits="userSpaceOnUse">
<stop stop-color="#0049B8"/>
<stop offset="1" stop-color="#003392"/>
</linearGradient>
<linearGradient id="paint1_linear_2359_1752" x1="76.6905" y1="-11" x2="20.6453" y2="106.334" gradientUnits="userSpaceOnUse">
<stop stop-color="#6579F0"/>
<stop offset="1" stop-color="#4054C6" stop-opacity="0"/>
</linearGradient>
<linearGradient id="paint2_linear_2359_1752" x1="292.912" y1="62.7837" x2="346.282" y2="121.746" gradientUnits="userSpaceOnUse">
<stop stop-color="#6579F0"/>
<stop offset="1" stop-color="#4559D1" stop-opacity="0"/>
</linearGradient>
</defs>
</svg>
