<svg width="14" height="14" viewBox="0 0 14 14" fill="none" xmlns="http://www.w3.org/2000/svg">
<path d="M2.91663 10.7916C2.68456 10.7916 2.462 10.8838 2.29791 11.0479C2.13381 11.212 2.04163 11.4346 2.04163 11.6666C2.04163 11.8987 2.13381 12.1213 2.29791 12.2854C2.462 12.4495 2.68456 12.5416 2.91663 12.5416H11.0833C11.3154 12.5416 11.5379 12.4495 11.702 12.2854C11.8661 12.1213 11.9583 11.8987 11.9583 11.6666C11.9583 11.4346 11.8661 11.212 11.702 11.0479C11.5379 10.8838 11.3154 10.7916 11.0833 10.7916H2.91663ZM10.0934 6.38398C9.92929 6.21994 9.70677 6.12779 9.47475 6.12779C9.24273 6.12779 9.02021 6.21994 8.85613 6.38398L7.87496 7.36456V2.33331C7.87496 2.10125 7.78277 1.87869 7.61868 1.71459C7.45458 1.5505 7.23202 1.45831 6.99996 1.45831C6.7679 1.45831 6.54534 1.5505 6.38124 1.71459C6.21715 1.87869 6.12496 2.10125 6.12496 2.33331V7.36515L5.14379 6.38398C5.06255 6.3027 4.9661 6.23822 4.85994 6.19422C4.75378 6.15022 4.64 6.12756 4.52508 6.12753C4.41017 6.1275 4.29637 6.15011 4.19019 6.19406C4.08401 6.23801 3.98753 6.30245 3.90625 6.38369C3.7421 6.54776 3.64986 6.77031 3.6498 7.0024C3.64978 7.11731 3.67238 7.23111 3.71633 7.33729C3.76029 7.44347 3.82472 7.53995 3.90596 7.62123L6.38104 10.0963C6.54513 10.2604 6.76765 10.3525 6.99967 10.3525C7.23169 10.3525 7.45421 10.2604 7.61829 10.0963L10.0934 7.62123C10.2574 7.45714 10.3496 7.23462 10.3496 7.0026C10.3496 6.77059 10.2574 6.54807 10.0934 6.38398Z" fill="#003392"/>
</svg>
