<svg width="30" height="30" viewBox="0 0 30 30" fill="none" xmlns="http://www.w3.org/2000/svg">
<path fill-rule="evenodd" clip-rule="evenodd" d="M1.52344 8.23242V4.86328C1.52344 3.02168 3.02171 1.52344 4.86328 1.52344H8.23242C8.6531 1.52344 8.99414 1.18239 8.99414 0.761719C8.99414 0.341045 8.6531 0 8.23242 0H4.86328C2.18168 0 0 2.18165 0 4.86328V8.23242C0 8.6531 0.341045 8.99414 0.761719 8.99414C1.18239 8.99414 1.52344 8.6531 1.52344 8.23242ZM8.23242 28.4765C8.6531 28.4765 8.99414 28.8176 8.99414 29.2382C8.99414 29.6589 8.6531 30 8.23242 30H4.86328C2.18168 30 0 27.8183 0 25.1367V21.7675C0 21.3469 0.341045 21.0058 0.761719 21.0058C1.18239 21.0058 1.52344 21.3469 1.52344 21.7675V25.1367C1.52344 26.9783 3.02171 28.4765 4.86328 28.4765H8.23242ZM30 21.7675V25.1367C30 27.8183 27.8183 30 25.1367 30H21.7676C21.3469 30 21.0059 29.6589 21.0059 29.2382C21.0059 28.8176 21.3469 28.4765 21.7676 28.4765H25.1367C26.9783 28.4765 28.4766 26.9783 28.4766 25.1367V21.7675C28.4766 21.3469 28.8176 21.0058 29.2383 21.0058C29.659 21.0058 30 21.3469 30 21.7675ZM30 4.86328V8.23242C30 8.6531 29.659 8.99414 29.2383 8.99414C28.8176 8.99414 28.4766 8.6531 28.4766 8.23242V4.86328C28.4766 3.02168 26.9783 1.52344 25.1367 1.52344H21.7676C21.3469 1.52344 21.0059 1.18239 21.0059 0.761719C21.0059 0.341045 21.3469 0 21.7676 0H25.1367C27.8183 0 30 2.18165 30 4.86328ZM20.2566 22.1728C20.5776 21.8764 20.5974 21.376 20.301 21.055C20.0045 20.7341 19.5041 20.7143 19.1832 21.0107C18.0413 22.0655 16.5556 22.6464 14.9999 22.6464C13.4442 22.6464 11.9586 22.0655 10.8167 21.0107C10.4957 20.7143 9.99536 20.7341 9.6989 21.055C9.40247 21.376 9.42231 21.8764 9.74323 22.1728C11.1783 23.4984 13.0452 24.2284 14.9999 24.2284C16.9547 24.2284 18.8215 23.4984 20.2566 22.1728ZM16.582 11.3086V16.9336C16.582 18.0483 15.6752 18.9551 14.5605 18.9551H13.916C13.4791 18.9551 13.125 18.6009 13.125 18.1641C13.125 17.7272 13.4791 17.3731 13.916 17.3731H14.5605C14.8029 17.3731 15 17.1759 15 16.9336V11.3086C15 10.8717 15.3541 10.5176 15.791 10.5176C16.2279 10.5176 16.582 10.8717 16.582 11.3086ZM22.0312 13.5205V11.2647C22.0312 10.8521 21.6968 10.5176 21.2842 10.5176C20.8716 10.5176 20.5371 10.8521 20.5371 11.2647V13.5205C20.5371 13.9331 20.8716 14.2676 21.2842 14.2676C21.6968 14.2676 22.0312 13.9331 22.0312 13.5205ZM8.14453 13.5205C8.14453 13.9331 8.47902 14.2676 8.8916 14.2676C9.30419 14.2676 9.63867 13.9331 9.63867 13.5205V11.2647C9.63867 10.8521 9.30419 10.5176 8.8916 10.5176C8.47902 10.5176 8.14453 10.8521 8.14453 11.2647V13.5205Z" fill="#007F3E"/>
</svg>
