<svg width="52" height="52" viewBox="0 0 52 52" fill="none" xmlns="http://www.w3.org/2000/svg">
<rect width="52" height="52" rx="12" fill="url(#paint0_linear_2202_5869)"/>
<ellipse cx="26" cy="34" rx="17" ry="5" fill="#399200"/>
<path d="M37.9979 15.3334V28.2437C38.0111 28.5385 37.9621 28.8329 37.8539 29.1075C37.6851 29.5466 37.3818 29.921 36.9875 30.1774C36.5932 30.4338 36.128 30.5591 35.6582 30.5354C34.3084 30.516 32.9605 30.6448 31.6387 30.9193C30.0687 31.1265 28.5579 31.6533 27.1993 32.4671V14.6387C28.5064 14.0096 29.9097 13.6041 31.3508 13.4389C32.8197 13.1458 34.3167 13.0171 35.8142 13.0549C36.1081 13.0497 36.3994 13.1113 36.6661 13.2349C36.942 13.3525 37.1904 13.5229 37.398 13.7388C37.6009 13.963 37.7597 14.2236 37.8659 14.5067C37.9619 14.7719 38.0075 15.0515 37.9979 15.3334ZM20.7202 13.4017C19.2358 13.1026 17.7227 12.9698 16.2088 13.0057C15.9196 13.0025 15.6326 13.0571 15.3648 13.1663C15.0969 13.2755 14.8536 13.4371 14.6491 13.6417C14.4445 13.8462 14.2829 14.0895 14.1737 14.3574C14.0645 14.6252 14.0099 14.9122 14.0131 15.2014V28.2437C13.9777 28.5628 14.0142 28.8859 14.1201 29.189C14.226 29.4922 14.3986 29.7678 14.625 29.9954C14.8408 30.2209 15.1023 30.3976 15.3921 30.5135C15.6818 30.6294 15.9931 30.6819 16.3048 30.6673C17.6915 30.65 19.0758 30.7868 20.4323 31.0753C21.9752 31.2566 23.463 31.7594 24.7997 32.5511V14.6375C23.5204 13.9955 22.1407 13.5775 20.7202 13.4017ZM18.3205 17.6251H19.8203C20.059 17.6251 20.2879 17.7199 20.4567 17.8887C20.6254 18.0574 20.7202 18.2863 20.7202 18.525C20.7202 18.7636 20.6254 18.9925 20.4567 19.1613C20.2879 19.3301 20.059 19.4249 19.8203 19.4249H18.3205C18.0819 19.4249 17.853 19.3301 17.6842 19.1613C17.5155 18.9925 17.4207 18.7636 17.4207 18.525C17.4207 18.2863 17.5155 18.0574 17.6842 17.8887C17.853 17.7199 18.0819 17.6251 18.3205 17.6251ZM20.5282 26.6359H18.3205C18.0819 26.6359 17.853 26.5411 17.6842 26.3723C17.5155 26.2036 17.4207 25.9747 17.4207 25.736C17.4207 25.4973 17.5155 25.2685 17.6842 25.0997C17.853 24.9309 18.0819 24.8361 18.3205 24.8361H20.5282C20.7669 24.8361 20.9958 24.9309 21.1646 25.0997C21.3333 25.2685 21.4281 25.4973 21.4281 25.736C21.4281 25.9747 21.3333 26.2036 21.1646 26.3723C20.9958 26.5411 20.7669 26.6359 20.5282 26.6359ZM22.532 23.0364H18.5125C18.2739 23.0364 18.045 22.9416 17.8762 22.7728C17.7075 22.604 17.6126 22.3752 17.6126 22.1365C17.6126 21.8978 17.7075 21.6689 17.8762 21.5002C18.045 21.3314 18.2739 21.2366 18.5125 21.2366H22.532C22.7706 21.2366 22.9995 21.3314 23.1683 21.5002C23.337 21.6689 23.4319 21.8978 23.4319 22.1365C23.4319 22.3752 23.337 22.604 23.1683 22.7728C22.9995 22.9416 22.7706 23.0364 22.532 23.0364Z" fill="white"/>
<defs>
<linearGradient id="paint0_linear_2202_5869" x1="26" y1="0" x2="26" y2="52" gradientUnits="userSpaceOnUse">
<stop stop-color="#83D718"/>
<stop offset="1" stop-color="#4CAA12"/>
</linearGradient>
</defs>
</svg>
