<svg width="65" height="64" viewBox="0 0 65 64" fill="none" xmlns="http://www.w3.org/2000/svg">
<path d="M32.5191 -9.55447e-06C26.1901 -0.00378769 20.0021 1.86929 14.7376 5.38235C9.47318 8.89541 5.36868 13.8907 2.94319 19.7365C0.517691 25.5823 -0.119857 32.016 1.11116 38.2241C2.34218 44.4323 5.38648 50.1359 9.85909 54.6139C14.3317 59.0918 20.0317 62.1429 26.2384 63.3814C32.445 64.6198 38.8795 63.9899 44.7282 61.5714C50.5769 59.1529 55.5771 55.0544 59.0964 49.7941C62.6157 44.5338 64.4962 38.3481 64.5 32.0191C64.4782 23.5404 61.103 15.4147 55.1112 9.41575C49.1195 3.41682 40.9978 0.0319258 32.5191 -9.55447e-06ZM32.5701 62.2165C26.585 62.2254 20.7318 60.4581 15.7517 57.1384C10.7716 53.8188 6.88852 49.0961 4.59405 43.5682C2.29958 38.0404 1.69693 31.9561 2.8624 26.0855C4.02788 20.215 6.90906 14.8223 11.1412 10.5902C15.3733 6.35809 20.766 3.4769 26.6365 2.31143C32.507 1.14595 38.5914 1.7486 44.1192 4.04308C49.647 6.33755 54.3697 10.2207 57.6894 15.2008C61.009 20.1809 62.7763 26.034 62.7675 32.0191C62.7207 40.0135 59.5242 47.6672 53.8712 53.3202C48.2182 58.9732 40.5645 62.1697 32.5701 62.2165Z" fill="white"/>
<path d="M20.742 6.51592C20.742 18.949 20.6974 31.2484 20.6974 43.586C19.6083 41.8599 17.6592 41.4013 15.8822 41.1274H5.5L6.23248 42.8153L15.8567 42.7261C16.9039 42.6865 17.9371 42.9769 18.8103 43.5564C19.6835 44.1359 20.3525 44.9751 20.7229 45.9554V48.777C19.6083 47.0955 17.6975 46.6369 15.9713 46.414L7.88854 46.3694L8.86306 47.9172L15.9267 47.8216C16.9528 47.7979 17.9613 48.0908 18.815 48.6607C19.6686 49.2305 20.3259 50.0496 20.6974 51.0063V53.5032C19.7166 51.7707 18.0732 51.0955 15.9713 51.0446L11.207 50.9554L12.8885 52.6815L16.1115 52.5923C19.156 52.9108 20.7866 54.6879 21.3471 57.828V57.9618C21.3981 58.0573 21.3981 58.1911 21.449 58.3248L21.3981 57.7325C21.4399 57.6476 21.4575 57.5528 21.449 57.4586V57.5987L22.156 55.6178C22.6928 54.6869 23.4722 53.9191 24.4111 53.3963C25.35 52.8736 26.4132 52.6155 27.4873 52.6497H52.2452L53.8376 50.9554C44.0669 50.9554 37.1497 51 27.4299 51C25.5191 51.2293 23.6083 51.6369 22.2834 53.0446V50.5541C22.852 49.7053 23.6262 49.0142 24.5339 48.5453C25.4416 48.0764 26.4532 47.845 27.4745 47.8726H56.2197L57.2962 46.1847C47.5255 46.1847 37.1497 46.2356 27.4299 46.2356C25.5191 46.4586 23.6083 46.8726 22.2834 48.2802V45.5477C22.8508 44.6973 23.6246 44.0046 24.5324 43.5345C25.4403 43.0645 26.4526 42.8323 27.4745 42.8599H58.8885L59.5255 41.1783C49.7548 41.1783 37.1815 41.2165 27.4618 41.2165C25.551 41.4458 23.6401 41.8535 22.3153 43.2739V5.64968L20.742 6.51592Z" fill="white"/>
<path d="M25.9778 35.949H25.4555V35.0318H25.9778V32.777H28.4045C28.7393 32.7589 29.0742 32.8107 29.3878 32.9292C29.7014 33.0476 29.987 33.2301 30.2262 33.4649C30.4828 33.7458 30.68 34.0757 30.8059 34.4347C30.9318 34.7937 30.9837 35.1745 30.9587 35.5541C30.9979 36.286 30.7717 37.0074 30.3217 37.586C30.0861 37.8577 29.7914 38.0718 29.4602 38.212C29.1289 38.3523 28.77 38.4148 28.4109 38.3949H25.9778V35.949ZM27.2517 35.0318H28.5256V35.949H27.2517V37.3503H28.3345C28.5143 37.3601 28.6941 37.3316 28.862 37.2669C29.03 37.2021 29.1823 37.1024 29.309 36.9745C29.6174 36.6123 29.7707 36.1432 29.7358 35.6688C29.7711 35.1923 29.648 34.7176 29.3854 34.3185C29.2285 34.1393 29.031 34.0001 28.8094 33.9126C28.5879 33.8251 28.3486 33.7917 28.1116 33.8153H27.2517V35.0318Z" fill="white"/>
<path d="M31.6338 32.777H32.8695V34.9299H35.1433V32.777H36.4172V38.3949H35.1433V35.9681H32.8695V38.3949H31.6338V32.777Z" fill="white"/>
<path d="M41.9459 38.9236L41.1497 38.2165C40.7316 38.4423 40.2616 38.5543 39.7866 38.5414C39.406 38.5576 39.0265 38.4895 38.6752 38.3419C38.324 38.1944 38.0097 37.971 37.7548 37.6879C37.2571 37.1182 36.9952 36.3802 37.0223 35.6242C36.993 34.8524 37.2544 34.0978 37.7548 33.5095C38.0195 33.2378 38.3359 33.0218 38.6854 32.8743C39.0349 32.7268 39.4105 32.6508 39.7898 32.6508C40.1692 32.6508 40.5447 32.7268 40.8942 32.8743C41.2437 33.0218 41.5602 33.2378 41.8249 33.5095C42.3154 34.0973 42.5697 34.8465 42.5382 35.6114C42.5621 36.37 42.2981 37.1095 41.7994 37.6815L42.5064 38.3185L41.9459 38.9236ZM40.3344 36.3057L40.9714 36.8917C41.2142 36.5125 41.3343 36.0677 41.3153 35.6178C41.336 35.1477 41.2163 34.6821 40.9714 34.2802C40.8337 34.097 40.6553 33.9482 40.4502 33.8458C40.2451 33.7433 40.0191 33.69 39.7898 33.69C39.5606 33.69 39.3345 33.7433 39.1294 33.8458C38.9244 33.9482 38.746 34.097 38.6083 34.2802C38.3634 34.6821 38.2436 35.1477 38.2643 35.6178C38.2498 36.0672 38.3695 36.5107 38.6083 36.8917C38.738 37.0822 38.9145 37.2362 39.1208 37.3388C39.3272 37.4414 39.5565 37.4892 39.7866 37.4777H40.0733C40.1483 37.4736 40.2209 37.4494 40.2835 37.4076L39.7612 36.9427L40.3344 36.3057Z" fill="white"/>
<path d="M47.2644 37.7579C47.0704 38.012 46.8195 38.2171 46.5319 38.3567C46.2757 38.4721 45.9976 38.5308 45.7166 38.5286C45.336 38.5448 44.9565 38.4767 44.6052 38.3292C44.254 38.1816 43.9397 37.9583 43.6848 37.6751C43.1871 37.1054 42.9252 36.3675 42.9523 35.6114C42.923 34.8397 43.1844 34.085 43.6848 33.4968C43.9395 33.2113 44.2545 32.986 44.607 32.8373C44.9596 32.6886 45.3408 32.6201 45.723 32.6369C46.289 32.6238 46.8423 32.806 47.2899 33.1528C47.5191 33.3283 47.709 33.5499 47.8472 33.8034C47.9855 34.0568 48.069 34.3364 48.0924 34.6242H46.9077C46.868 34.3454 46.7232 34.0925 46.5029 33.9172C46.2826 33.7419 46.0035 33.6575 45.723 33.6815C45.4921 33.67 45.2623 33.7185 45.0557 33.8224C44.8492 33.9262 44.6731 34.0817 44.5447 34.2739C44.2997 34.6757 44.18 35.1413 44.2007 35.6114C44.1862 36.0608 44.3059 36.5043 44.5447 36.8853C44.6743 37.0758 44.8508 37.2298 45.0572 37.3324C45.2636 37.435 45.4928 37.4829 45.723 37.4713C45.889 37.4909 46.0572 37.4755 46.2168 37.4262C46.3765 37.3769 46.5241 37.2947 46.6501 37.1849C46.776 37.0751 46.8777 36.9402 46.9484 36.7887C47.0191 36.6373 47.0573 36.4728 47.0606 36.3057H45.7867V35.3567H48.1497V38.3949H47.3854L47.2644 37.7579Z" fill="white"/>
<path d="M48.9777 32.777H50.2516V34.9299H52.5255V32.777H53.7611V38.3949H52.4936V35.9681H50.2197V38.3949H48.9459L48.9777 32.777Z" fill="white"/>
<path d="M54.6401 32.777H55.8694L58.2197 36.5477V32.777H59.3789V38.3949H58.1305L55.7929 34.6305V38.3949H54.6401V32.777Z" fill="white"/>
</svg>
