<svg width="38" height="38" viewBox="0 0 38 38" fill="none" xmlns="http://www.w3.org/2000/svg">
<path d="M14.1287 0C10.5073 0 6.88559 1.3771 4.13101 4.13092C-1.377 9.63893 -1.377 18.617 4.13101 24.1251C9.28753 29.2812 17.4688 29.5844 23.0118 25.0857L24.3706 26.4445C24.2938 26.7209 24.2759 26.9868 24.3183 27.2238C24.3607 27.4609 24.4623 27.6634 24.6161 27.8175L34.4777 37.6787C34.7597 37.9605 35.1987 38.0622 35.6982 37.9613C36.1978 37.8604 36.7169 37.5652 37.1415 37.1406C37.566 36.716 37.8612 36.1968 37.962 35.6973C38.0628 35.1977 37.9611 34.7587 37.6792 34.4769L27.8183 24.616C27.6642 24.4619 27.4615 24.3601 27.2243 24.3177C26.987 24.2752 26.7209 24.2931 26.4443 24.3702L25.0854 23.0113C29.5845 17.4679 29.2817 9.28667 24.1255 4.13092C21.3717 1.3771 17.75 0.000379994 14.1287 0.000379994V0ZM14.1287 3.12241C16.9395 3.12241 19.7507 4.19931 21.9045 6.35312C22.9284 7.37261 23.7409 8.5843 24.2953 9.91863C24.8497 11.253 25.1351 12.6836 25.1351 14.1286C25.1351 15.5735 24.8497 17.0042 24.2953 18.3385C23.7409 19.6728 22.9284 20.8845 21.9045 21.904C20.885 22.9279 19.6733 23.7404 18.339 24.2948C17.0046 24.8492 15.5739 25.1346 14.129 25.1346C12.6841 25.1346 11.2534 24.8492 9.9191 24.2948C8.58477 23.7404 7.37308 22.9279 6.35359 21.904C5.32967 20.8845 4.51719 19.6728 3.96279 18.3385C3.4084 17.0042 3.12301 15.5735 3.12301 14.1286C3.12301 12.6836 3.4084 11.253 3.96279 9.91863C4.51719 8.5843 5.32967 7.37261 6.35359 6.35312C8.5074 4.19931 11.3182 3.12241 14.1287 3.12241Z" fill="#00803D"/>
<path d="M14.2408 6.5511C14.3529 6.5511 14.4612 6.59252 14.5444 6.66738L21.6864 12.457C21.9969 12.7347 21.7997 12.8924 21.3836 12.8921H19.5391V20.2107C19.5391 20.4608 19.3362 20.6637 19.0857 20.6637H9.39703C9.2768 20.6637 9.16149 20.6159 9.07648 20.5309C8.99146 20.4459 8.9437 20.3306 8.9437 20.2104V12.8921H7.09921C6.68311 12.8924 6.48628 12.7347 6.79635 12.457L13.9383 6.66738C14.0216 6.5929 14.1291 6.5511 14.2408 6.5511Z" fill="#00803D"/>
</svg>
