<svg width="40" height="42" viewBox="0 0 40 42" fill="none" xmlns="http://www.w3.org/2000/svg">
<path d="M8.83722 13.3627C8.83722 7.08727 13.835 2 20 2C26.165 2 31.1628 7.08727 31.1628 13.3627C31.1628 19.589 27.6 26.8545 22.0413 29.4526C20.7455 30.0584 19.2545 30.0584 17.9587 29.4526C12.4 26.8545 8.83722 19.589 8.83722 13.3627Z" stroke="#00803D" stroke-width="4"/>
<path d="M23.721 14.1628C23.721 16.2178 22.0551 17.8837 20 17.8837C17.945 17.8837 16.2791 16.2178 16.2791 14.1628C16.2791 12.1078 17.945 10.4418 20 10.4418C22.0551 10.4418 23.721 12.1078 23.721 14.1628Z" stroke="#00803D" stroke-width="3"/>
<path d="M24.2286 38.3261L24.0788 36.848C23.8578 37.0321 23.7292 37.3191 23.7603 37.6269L24.2286 38.3261ZM24.2286 38.3261C23.9751 38.1902 23.7916 37.9348 23.7603 37.627L24.2286 38.3261ZM19.1281 36.0119L19.1047 36.0324V35.7943L20.2133 36.7644L20 37.0082L19.4574 36.3881L19.1281 36.0119ZM20.8953 37.7674C20.8953 37.8457 20.8851 37.9229 20.8654 37.9971L20.6644 37.7674L20.8654 37.5378C20.8851 37.612 20.8953 37.6891 20.8953 37.7674ZM19.1047 38.0313V37.6856V37.5035L19.3356 37.7674L19.1047 38.0313ZM18.1047 35.8256V36.9074L17.8811 37.103L17.7514 36.9895L17.7908 36.3222L17.8202 35.8256H18.1047ZM17.3222 34.4373L16.9824 34.8256H16.4665C16.5574 34.6906 16.6851 34.5802 16.8393 34.5102C16.9936 34.4402 17.1608 34.4168 17.3222 34.4373ZM6.31547 34.4267C8.61501 35.4695 11.7309 36.259 15.314 36.6329V37.1856V37.6856V38.1856V38.433C11.5114 38.0525 8.13168 37.2166 5.57582 36.0574L5.5758 36.0574C4.09638 35.3864 2.85136 34.5883 1.96394 33.6708C1.19607 32.8769 0.665244 31.9584 0.532492 30.9418H2.35227C2.46839 31.4148 2.7538 31.9117 3.25107 32.4259C3.93017 33.1281 4.96031 33.8121 6.31545 34.4267L6.31547 34.4267ZM2.3527 29.9418H0.532328C0.687547 28.7483 1.39019 27.6942 2.38993 26.8057L3.504 28.2117C2.85158 28.8087 2.48811 29.3924 2.3527 29.9418ZM4.18246 27.4577L3.25979 26.2933C3.5466 26.2712 3.83888 26.3875 4.03099 26.6299C4.22311 26.8724 4.2695 27.1836 4.18246 27.4577ZM16.8393 41.0247C16.6851 40.9547 16.5574 40.8443 16.4665 40.7093H16.9824L17.3222 41.0975C17.1608 41.118 16.9936 41.0947 16.8393 41.0247ZM19.1047 39.7405V39.5024L19.1281 39.523L19.4574 39.1467L20 38.5267L20.2133 38.7705L19.1047 39.7405ZM17.4362 39.7093L17.3332 39.5916L17.5965 39.6072L17.626 39.108L17.6543 38.6302L17.8811 38.4318L18.1047 38.6274V39.7093H17.4362ZM16.314 37.1856V37.0606L16.4568 37.1856H16.314ZM16.314 38.1856H16.6439L16.314 38.4743V38.1856ZM35.969 26.6299C36.1611 26.3875 36.4534 26.2712 36.7402 26.2933L35.8176 27.4577C35.7305 27.1836 35.7769 26.8725 35.969 26.6299ZM36.496 28.2117L37.6101 26.8057C38.6098 27.6942 39.3124 28.7483 39.4677 29.9418H37.6473C37.5119 29.3924 37.1484 28.8087 36.496 28.2117ZM39.4681 30.9418C39.2078 32.9639 37.3859 34.5884 35.0381 35.7649C32.533 37.0201 29.1161 37.9364 25.2386 38.3741L25.0581 36.5925C28.7863 36.1697 31.9768 35.2958 34.2359 34.1638L34.0119 33.7168L34.2359 34.1638C35.4758 33.5426 36.3333 32.9014 36.8868 32.2777C37.2845 31.8295 37.5358 31.3773 37.6454 30.9418H39.4681Z" fill="#007F3E" stroke="#00803D"/>
</svg>
