<svg width="38" height="36" viewBox="0 0 38 36" fill="none" xmlns="http://www.w3.org/2000/svg">
<circle cx="18" cy="18" r="18" fill="white"/>
<path d="M18.0096 2C14.8451 1.99811 11.7511 2.93465 9.11882 4.69118C6.48659 6.44771 4.43434 8.94535 3.22159 11.8682C2.00885 14.7911 1.69007 18.008 2.30558 21.1121C2.92109 24.2161 4.44324 27.068 6.67954 29.3069C8.91585 31.5459 11.7659 33.0715 14.8692 33.6907C17.9725 34.3099 21.1898 33.995 24.1141 32.7857C27.0384 31.5765 29.5385 29.5272 31.2982 26.8971C33.0579 24.2669 33.9981 21.1741 34 18.0096C33.9891 13.7702 32.3015 9.70735 29.3056 6.70788C26.3097 3.70842 22.2489 2.01597 18.0096 2ZM18.035 33.1083C15.0425 33.1127 12.1159 32.229 9.62586 30.5692C7.13581 28.9094 5.19426 26.548 4.04702 23.7841C2.89979 21.0202 2.59846 17.978 3.1812 15.0428C3.76394 12.1075 5.20453 9.41116 7.32058 7.2951C9.43664 5.17905 12.133 3.73846 15.0683 3.15572C18.0035 2.57298 21.0457 2.87431 23.8096 4.02155C26.5735 5.16878 28.9349 7.11034 30.5947 9.60039C32.2545 12.0904 33.1382 15.017 33.1337 18.0096C33.1103 22.0068 31.5121 25.8336 28.6856 28.6601C25.8591 31.4866 22.0322 33.0849 18.035 33.1083Z" fill="#00803D"/>
<path d="M12.121 5.25783C12.121 11.4744 12.0987 17.6241 12.0987 23.7928C11.5541 22.9298 10.5796 22.7005 9.69108 22.5635H4.5L4.86624 23.4075L9.67834 23.3629C10.202 23.3431 10.7186 23.4883 11.1551 23.7781C11.5917 24.0678 11.9263 24.4874 12.1115 24.9776V26.3884C11.5541 25.5476 10.5987 25.3183 9.73567 25.2069L5.69427 25.1846L6.18153 25.9585L9.71337 25.9107C10.2264 25.8988 10.7307 26.0453 11.1575 26.3302C11.5843 26.6151 11.913 27.0247 12.0987 27.503V28.7514C11.6083 27.8852 10.7866 27.5476 9.73567 27.5221L7.3535 27.4776L8.19427 28.3406L9.80573 28.296C11.328 28.4553 12.1433 29.3438 12.4236 30.9139V30.9807C12.449 31.0285 12.449 31.0954 12.4745 31.1623L12.449 30.8661C12.4699 30.8236 12.4787 30.7763 12.4745 30.7291V30.7992L12.828 29.8088C13.0964 29.3433 13.4861 28.9594 13.9556 28.698C14.425 28.4367 14.9566 28.3076 15.4936 28.3247H27.8726L28.6688 27.4776C23.7834 27.4776 20.3248 27.4999 15.465 27.4999C14.5096 27.6145 13.5541 27.8183 12.8917 28.5221V27.2769C13.176 26.8525 13.5631 26.507 14.0169 26.2725C14.4708 26.0381 14.9766 25.9223 15.4873 25.9362H29.8599L30.3981 25.0922C25.5127 25.0922 20.3248 25.1177 15.465 25.1177C14.5096 25.2292 13.5541 25.4362 12.8917 26.14V24.7737C13.1754 24.3485 13.5623 24.0022 14.0162 23.7671C14.4701 23.5321 14.9763 23.416 15.4873 23.4298H31.1943L31.5127 22.589C26.6274 22.589 20.3408 22.6081 15.4809 22.6081C14.5255 22.7228 13.5701 22.9266 12.9076 23.6368V4.82471L12.121 5.25783Z" fill="#00803D"/>
<path d="M14.7392 19.9745H14.478V19.5159H14.7392V18.3885H15.9525C16.1199 18.3794 16.2874 18.4053 16.4442 18.4645C16.601 18.5238 16.7438 18.615 16.8634 18.7324C16.9917 18.8729 17.0903 19.0378 17.1532 19.2173C17.2162 19.3968 17.2421 19.5872 17.2296 19.777C17.2492 20.143 17.1361 20.5037 16.9111 20.7929C16.7933 20.9288 16.646 21.0359 16.4804 21.106C16.3147 21.1761 16.1353 21.2074 15.9557 21.1974H14.7392V19.9745ZM15.3761 19.5159H16.0131V19.9745H15.3761V20.6751H15.9175C16.0074 20.68 16.0973 20.6658 16.1813 20.6334C16.2653 20.601 16.3414 20.5512 16.4048 20.4872C16.559 20.3061 16.6356 20.0716 16.6182 19.8343C16.6358 19.5961 16.5743 19.3588 16.443 19.1592C16.3645 19.0696 16.2658 19 16.155 18.9563C16.0442 18.9125 15.9246 18.8958 15.8061 18.9076H15.3761V19.5159Z" fill="#00803D"/>
<path d="M17.5669 18.3887H18.1847V19.4651H19.3217V18.3887H19.9586V21.1976H19.3217V19.9842H18.1847V21.1976H17.5669V18.3887Z" fill="#00803D"/>
<path d="M22.7227 21.4616L22.3246 21.108C22.1155 21.2209 21.8805 21.2769 21.643 21.2705C21.4527 21.2786 21.263 21.2445 21.0873 21.1707C20.9117 21.097 20.7546 20.9853 20.6271 20.8437C20.3783 20.5589 20.2473 20.1899 20.2609 19.8119C20.2462 19.426 20.3769 19.0487 20.6271 18.7545C20.7595 18.6187 20.9177 18.5107 21.0924 18.4369C21.2672 18.3632 21.455 18.3252 21.6446 18.3252C21.8343 18.3252 22.0221 18.3632 22.1968 18.4369C22.3716 18.5107 22.5298 18.6187 22.6622 18.7545C22.9074 19.0484 23.0346 19.423 23.0188 19.8055C23.0308 20.1848 22.8988 20.5545 22.6494 20.8405L23.0029 21.159L22.7227 21.4616ZM21.9169 20.1526L22.2354 20.4456C22.3568 20.256 22.4169 20.0336 22.4074 19.8087C22.4177 19.5736 22.3579 19.3408 22.2354 19.1399C22.1666 19.0483 22.0774 18.9739 21.9748 18.9227C21.8723 18.8714 21.7593 18.8448 21.6446 18.8448C21.53 18.8448 21.417 18.8714 21.3144 18.9227C21.2119 18.9739 21.1227 19.0483 21.0539 19.1399C20.9314 19.3408 20.8715 19.5736 20.8819 19.8087C20.8746 20.0334 20.9345 20.2551 21.0539 20.4456C21.1187 20.5409 21.207 20.6179 21.3101 20.6692C21.4133 20.7205 21.528 20.7444 21.643 20.7386H21.7864C21.8239 20.7366 21.8602 20.7245 21.8915 20.7036L21.6303 20.4711L21.9169 20.1526Z" fill="#00803D"/>
<path d="M25.3823 20.8791C25.2853 21.0062 25.1598 21.1087 25.016 21.1785C24.8879 21.2362 24.7489 21.2655 24.6084 21.2645C24.4181 21.2726 24.2283 21.2385 24.0527 21.1647C23.8771 21.091 23.7199 20.9793 23.5925 20.8377C23.3436 20.5529 23.2126 20.1839 23.2262 19.8059C23.2115 19.42 23.3422 19.0427 23.5925 18.7486C23.7198 18.6058 23.8773 18.4932 24.0536 18.4188C24.2298 18.3444 24.4204 18.3102 24.6116 18.3186C24.8946 18.3121 25.1712 18.4032 25.395 18.5766C25.5096 18.6643 25.6046 18.7751 25.6737 18.9019C25.7428 19.0286 25.7846 19.1684 25.7963 19.3123H25.2039C25.1841 19.1729 25.1117 19.0464 25.0015 18.9587C24.8913 18.8711 24.7518 18.8289 24.6116 18.8409C24.4961 18.8352 24.3812 18.8594 24.2779 18.9113C24.1747 18.9633 24.0866 19.041 24.0224 19.1371C23.8999 19.338 23.8401 19.5708 23.8504 19.8059C23.8431 20.0306 23.903 20.2523 24.0224 20.4428C24.0872 20.5381 24.1755 20.6151 24.2787 20.6664C24.3818 20.7177 24.4965 20.7416 24.6116 20.7358C24.6945 20.7456 24.7786 20.7379 24.8585 20.7133C24.9383 20.6886 25.0121 20.6475 25.0751 20.5926C25.1381 20.5377 25.1889 20.4702 25.2242 20.3945C25.2596 20.3188 25.2787 20.2366 25.2804 20.153H24.6434V19.6785H25.8249V21.1976H25.4428L25.3823 20.8791Z" fill="#00803D"/>
<path d="M26.2386 18.3887H26.8755V19.4651H28.0125V18.3887H28.6303V21.1976H27.9965V19.9842H26.8596V21.1976H26.2227L26.2386 18.3887Z" fill="#00803D"/>
<path d="M29.0703 18.3887H29.685L30.8601 20.274V18.3887H31.4397V21.1976H30.8155L29.6467 19.3154V21.1976H29.0703V18.3887Z" fill="#00803D"/>
<circle cx="20" cy="18" r="18" fill="white"/>
<path d="M20.0096 2C16.8451 1.99811 13.7511 2.93465 11.1188 4.69118C8.48659 6.44771 6.43434 8.94535 5.22159 11.8682C4.00885 14.7911 3.69007 18.008 4.30558 21.1121C4.92109 24.2161 6.44324 27.068 8.67954 29.3069C10.9158 31.5459 13.7659 33.0715 16.8692 33.6907C19.9725 34.3099 23.1898 33.995 26.1141 32.7857C29.0384 31.5765 31.5385 29.5272 33.2982 26.8971C35.0579 24.2669 35.9981 21.1741 36 18.0096C35.9891 13.7702 34.3015 9.70735 31.3056 6.70788C28.3097 3.70842 24.2489 2.01597 20.0096 2ZM20.035 33.1083C17.0425 33.1127 14.1159 32.229 11.6259 30.5692C9.13581 28.9094 7.19426 26.548 6.04702 23.7841C4.89979 21.0202 4.59846 17.978 5.1812 15.0428C5.76394 12.1075 7.20453 9.41116 9.32058 7.2951C11.4366 5.17905 14.133 3.73846 17.0683 3.15572C20.0035 2.57298 23.0457 2.87431 25.8096 4.02155C28.5735 5.16878 30.9349 7.11034 32.5947 9.60039C34.2545 12.0904 35.1382 15.017 35.1337 18.0096C35.1103 22.0068 33.5121 25.8336 30.6856 28.6601C27.8591 31.4866 24.0322 33.0849 20.035 33.1083Z" fill="#00803D"/>
<path d="M14.121 5.25783C14.121 11.4744 14.0987 17.6241 14.0987 23.7928C13.5541 22.9298 12.5796 22.7005 11.6911 22.5635H6.5L6.86624 23.4075L11.6783 23.3629C12.202 23.3431 12.7186 23.4883 13.1551 23.7781C13.5917 24.0678 13.9263 24.4874 14.1115 24.9776V26.3884C13.5541 25.5476 12.5987 25.3183 11.7357 25.2069L7.69427 25.1846L8.18153 25.9585L11.7134 25.9107C12.2264 25.8988 12.7307 26.0453 13.1575 26.3302C13.5843 26.6151 13.913 27.0247 14.0987 27.503V28.7514C13.6083 27.8852 12.7866 27.5476 11.7357 27.5221L9.3535 27.4776L10.1943 28.3406L11.8057 28.296C13.328 28.4553 14.1433 29.3438 14.4236 30.9139V30.9807C14.449 31.0285 14.449 31.0954 14.4745 31.1623L14.449 30.8661C14.4699 30.8236 14.4787 30.7763 14.4745 30.7291V30.7992L14.828 29.8088C15.0964 29.3433 15.4861 28.9594 15.9556 28.698C16.425 28.4367 16.9566 28.3076 17.4936 28.3247H29.8726L30.6688 27.4776C25.7834 27.4776 22.3248 27.4999 17.465 27.4999C16.5096 27.6145 15.5541 27.8183 14.8917 28.5221V27.2769C15.176 26.8525 15.5631 26.507 16.0169 26.2725C16.4708 26.0381 16.9766 25.9223 17.4873 25.9362H31.8599L32.3981 25.0922C27.5127 25.0922 22.3248 25.1177 17.465 25.1177C16.5096 25.2292 15.5541 25.4362 14.8917 26.14V24.7737C15.1754 24.3485 15.5623 24.0022 16.0162 23.7671C16.4701 23.5321 16.9763 23.416 17.4873 23.4298H33.1943L33.5127 22.589C28.6274 22.589 22.3408 22.6081 17.4809 22.6081C16.5255 22.7228 15.5701 22.9266 14.9076 23.6368V4.82471L14.121 5.25783Z" fill="#00803D"/>
<path d="M16.7392 19.9745H16.478V19.5159H16.7392V18.3885H17.9525C18.1199 18.3794 18.2874 18.4053 18.4442 18.4645C18.601 18.5238 18.7438 18.615 18.8634 18.7324C18.9917 18.8729 19.0903 19.0378 19.1532 19.2173C19.2162 19.3968 19.2421 19.5872 19.2296 19.777C19.2492 20.143 19.1361 20.5037 18.9111 20.7929C18.7933 20.9288 18.646 21.0359 18.4804 21.106C18.3147 21.1761 18.1353 21.2074 17.9557 21.1974H16.7392V19.9745ZM17.3761 19.5159H18.0131V19.9745H17.3761V20.6751H17.9175C18.0074 20.68 18.0973 20.6658 18.1813 20.6334C18.2653 20.601 18.3414 20.5512 18.4048 20.4872C18.559 20.3061 18.6356 20.0716 18.6182 19.8343C18.6358 19.5961 18.5743 19.3588 18.443 19.1592C18.3645 19.0696 18.2658 19 18.155 18.9563C18.0442 18.9125 17.9246 18.8958 17.8061 18.9076H17.3761V19.5159Z" fill="#00803D"/>
<path d="M19.5669 18.3887H20.1847V19.4651H21.3217V18.3887H21.9586V21.1976H21.3217V19.9842H20.1847V21.1976H19.5669V18.3887Z" fill="#00803D"/>
<path d="M24.7227 21.4616L24.3246 21.108C24.1155 21.2209 23.8805 21.2769 23.643 21.2705C23.4527 21.2786 23.263 21.2445 23.0873 21.1707C22.9117 21.097 22.7546 20.9853 22.6271 20.8437C22.3783 20.5589 22.2473 20.1899 22.2609 19.8119C22.2462 19.426 22.3769 19.0487 22.6271 18.7545C22.7595 18.6187 22.9177 18.5107 23.0924 18.4369C23.2672 18.3632 23.455 18.3252 23.6446 18.3252C23.8343 18.3252 24.0221 18.3632 24.1968 18.4369C24.3716 18.5107 24.5298 18.6187 24.6622 18.7545C24.9074 19.0484 25.0346 19.423 25.0188 19.8055C25.0308 20.1848 24.8988 20.5545 24.6494 20.8405L25.0029 21.159L24.7227 21.4616ZM23.9169 20.1526L24.2354 20.4456C24.3568 20.256 24.4169 20.0336 24.4074 19.8087C24.4177 19.5736 24.3579 19.3408 24.2354 19.1399C24.1666 19.0483 24.0774 18.9739 23.9748 18.9227C23.8723 18.8714 23.7593 18.8448 23.6446 18.8448C23.53 18.8448 23.417 18.8714 23.3144 18.9227C23.2119 18.9739 23.1227 19.0483 23.0539 19.1399C22.9314 19.3408 22.8715 19.5736 22.8819 19.8087C22.8746 20.0334 22.9345 20.2551 23.0539 20.4456C23.1187 20.5409 23.207 20.6179 23.3101 20.6692C23.4133 20.7205 23.528 20.7444 23.643 20.7386H23.7864C23.8239 20.7366 23.8602 20.7245 23.8915 20.7036L23.6303 20.4711L23.9169 20.1526Z" fill="#00803D"/>
<path d="M27.3823 20.8791C27.2853 21.0062 27.1598 21.1087 27.016 21.1785C26.8879 21.2362 26.7489 21.2655 26.6084 21.2645C26.4181 21.2726 26.2283 21.2385 26.0527 21.1647C25.8771 21.091 25.7199 20.9793 25.5925 20.8377C25.3436 20.5529 25.2126 20.1839 25.2262 19.8059C25.2115 19.42 25.3422 19.0427 25.5925 18.7486C25.7198 18.6058 25.8773 18.4932 26.0536 18.4188C26.2298 18.3444 26.4204 18.3102 26.6116 18.3186C26.8946 18.3121 27.1712 18.4032 27.395 18.5766C27.5096 18.6643 27.6046 18.7751 27.6737 18.9019C27.7428 19.0286 27.7846 19.1684 27.7963 19.3123H27.2039C27.1841 19.1729 27.1117 19.0464 27.0015 18.9587C26.8913 18.8711 26.7518 18.8289 26.6116 18.8409C26.4961 18.8352 26.3812 18.8594 26.2779 18.9113C26.1747 18.9633 26.0866 19.041 26.0224 19.1371C25.8999 19.338 25.8401 19.5708 25.8504 19.8059C25.8431 20.0306 25.903 20.2523 26.0224 20.4428C26.0872 20.5381 26.1755 20.6151 26.2787 20.6664C26.3818 20.7177 26.4965 20.7416 26.6116 20.7358C26.6945 20.7456 26.7786 20.7379 26.8585 20.7133C26.9383 20.6886 27.0121 20.6475 27.0751 20.5926C27.1381 20.5377 27.1889 20.4702 27.2242 20.3945C27.2596 20.3188 27.2787 20.2366 27.2804 20.153H26.6434V19.6785H27.8249V21.1976H27.4428L27.3823 20.8791Z" fill="#00803D"/>
<path d="M28.2386 18.3887H28.8755V19.4651H30.0125V18.3887H30.6303V21.1976H29.9965V19.9842H28.8596V21.1976H28.2227L28.2386 18.3887Z" fill="#00803D"/>
<path d="M31.0703 18.3887H31.685L32.8601 20.274V18.3887H33.4397V21.1976H32.8155L31.6467 19.3154V21.1976H31.0703V18.3887Z" fill="#00803D"/>
</svg>
