<svg width="14" height="14" viewBox="0 0 14 14" fill="none" xmlns="http://www.w3.org/2000/svg">
<path d="M7.00016 0.333313C3.32683 0.333313 0.333496 3.32665 0.333496 6.99998C0.333496 10.6733 3.32683 13.6666 7.00016 13.6666C10.6735 13.6666 13.6668 10.6733 13.6668 6.99998C13.6668 3.32665 10.6735 0.333313 7.00016 0.333313ZM9.90016 9.37998C9.80683 9.53998 9.64016 9.62665 9.46683 9.62665C9.38016 9.62665 9.2935 9.60665 9.2135 9.55331L7.14683 8.31998C6.6335 8.01331 6.2535 7.33998 6.2535 6.74665V4.01331C6.2535 3.73998 6.48016 3.51331 6.7535 3.51331C7.02683 3.51331 7.2535 3.73998 7.2535 4.01331V6.74665C7.2535 6.98665 7.4535 7.33998 7.66016 7.45998L9.72683 8.69331C9.96683 8.83331 10.0468 9.13998 9.90016 9.37998Z" fill="#003392"/>
</svg>
