<svg width="16" height="16" viewBox="0 0 16 16" fill="none" xmlns="http://www.w3.org/2000/svg">
<path d="M8.5 10.6134H8.93333C9.36667 10.6134 9.72667 10.2267 9.72667 9.76005C9.72667 9.18005 9.52 9.06671 9.18 8.94671L8.50667 8.71338V10.6134H8.5Z" fill="#FB8500"/>
<path d="M7.98023 1.26661C4.30021 1.27995 1.32021 4.27328 1.33354 7.95327C1.34687 11.6333 4.34021 14.6133 8.02023 14.5999C11.7002 14.5866 14.6802 11.5933 14.6669 7.91327C14.6536 4.23328 11.6602 1.25995 7.98023 1.26661ZM9.5069 7.99993C10.0269 8.17993 10.7269 8.5666 10.7269 9.75993C10.7269 10.7866 9.92023 11.6133 8.93356 11.6133H8.50023V11.9999C8.50023 12.2733 8.27356 12.4999 8.00023 12.4999C7.72689 12.4999 7.50023 12.2733 7.50023 11.9999V11.6133H7.26023C6.16687 11.6133 5.28021 10.6933 5.28021 9.55993C5.28021 9.2866 5.50687 9.05993 5.78021 9.05993C6.05354 9.05993 6.28021 9.2866 6.28021 9.55993C6.28021 10.1399 6.72023 10.6133 7.26023 10.6133H7.50023V8.35993L6.49354 7.99993C5.97354 7.81993 5.27354 7.43327 5.27354 6.23995C5.27354 5.21328 6.08021 4.38661 7.06689 4.38661H7.50023V3.99995C7.50023 3.72661 7.72689 3.49995 8.00023 3.49995C8.27356 3.49995 8.50023 3.72661 8.50023 3.99995V4.38661H8.74023C9.83356 4.38661 10.7202 5.30661 10.7202 6.43995C10.7202 6.71327 10.4936 6.93993 10.2202 6.93993C9.94689 6.93993 9.72023 6.71327 9.72023 6.43995C9.72023 5.85995 9.28023 5.38661 8.74023 5.38661H8.50023V7.63993L9.5069 7.99993Z" fill="#FB8500"/>
<path d="M6.27979 6.24672C6.27979 6.82673 6.48645 6.94007 6.82644 7.06007L7.49977 7.2934V5.38672H7.06644C6.63312 5.38672 6.27979 5.77339 6.27979 6.24672Z" fill="#FB8500"/>
</svg>
