<svg width="52" height="52" viewBox="0 0 52 52" fill="none" xmlns="http://www.w3.org/2000/svg">
<rect width="52" height="52" rx="12" fill="url(#paint0_linear_2202_5868)"/>
<ellipse cx="26" cy="34" rx="17" ry="5" fill="#235EB5"/>
<g clip-path="url(#clip0_2202_5868)">
<path fill-rule="evenodd" clip-rule="evenodd" d="M32.3334 12.5554V32.4446C32.3333 32.7078 32.2759 32.9678 32.1651 33.2066C32.0544 33.4454 31.8929 33.6572 31.692 33.8273C31.4911 33.9973 31.2556 34.1216 31.0018 34.1915C30.748 34.2613 30.4821 34.275 30.2225 34.2317L19.8525 32.5038C19.2883 32.4097 18.7757 32.1184 18.4059 31.6819C18.0362 31.2453 17.8333 30.6918 17.8334 30.1197V14.8802C17.8333 14.3082 18.0362 13.7546 18.4059 13.3181C18.7757 12.8815 19.2883 12.5903 19.8525 12.4962L30.2225 10.7683C30.4822 10.7249 30.7482 10.7387 31.0021 10.8086C31.256 10.8785 31.4916 11.0029 31.6925 11.1731C31.8934 11.3433 32.0548 11.5552 32.1655 11.7942C32.2762 12.0331 32.3335 12.2921 32.3334 12.5554ZM34.7501 14.0416C35.3598 14.0415 35.947 14.2717 36.3941 14.6863C36.8411 15.1009 37.115 15.6691 37.1607 16.2771L37.1667 16.4583V28.5416C37.1669 29.1513 36.9367 29.7386 36.5221 30.1856C36.1075 30.6327 35.5393 30.9065 34.9313 30.9523L34.7501 30.9583H33.5418V14.0416H34.7501ZM26.8959 20.6875C26.4152 20.6875 25.9542 20.8784 25.6143 21.2183C25.2744 21.5583 25.0834 22.0193 25.0834 22.5C25.0834 22.9807 25.2744 23.4417 25.6143 23.7816C25.9542 24.1215 26.4152 24.3125 26.8959 24.3125C27.3766 24.3125 27.8376 24.1215 28.1775 23.7816C28.5175 23.4417 28.7084 22.9807 28.7084 22.5C28.7084 22.0193 28.5175 21.5583 28.1775 21.2183C27.8376 20.8784 27.3766 20.6875 26.8959 20.6875Z" fill="white"/>
</g>
<defs>
<linearGradient id="paint0_linear_2202_5868" x1="26" y1="0" x2="26" y2="52" gradientUnits="userSpaceOnUse">
<stop stop-color="#6C98DB"/>
<stop offset="1" stop-color="#376DAC"/>
</linearGradient>
<clipPath id="clip0_2202_5868">
<rect width="27" height="27" fill="white" transform="translate(13 9)"/>
</clipPath>
</defs>
</svg>
