<svg width="16" height="16" viewBox="0 0 16 16" fill="none" xmlns="http://www.w3.org/2000/svg">
<path d="M6.6665 10.3333C6.39317 10.3333 6.1665 10.56 6.1665 10.8333V11.8333C6.1665 12.1066 6.39317 12.3333 6.6665 12.3333C6.93984 12.3333 7.1665 12.1066 7.1665 11.8333V10.8333C7.1665 10.56 6.93984 10.3333 6.6665 10.3333Z" fill="#003392"/>
<path d="M14.6668 14.1666H14.0002V6.65329C14.0002 6.23996 13.8135 5.85329 13.4868 5.59996L8.82016 1.97329C8.34016 1.59329 7.66016 1.59329 7.18016 1.97329L2.5135 5.59996C2.18683 5.85329 2.00016 6.23996 2.00016 6.64663L1.96683 14.1666H1.3335C1.06016 14.1666 0.833496 14.3866 0.833496 14.6666C0.833496 14.94 1.06016 15.1666 1.3335 15.1666H14.6668C14.9402 15.1666 15.1668 14.94 15.1668 14.6666C15.1668 14.3866 14.9402 14.1666 14.6668 14.1666ZM7.00016 4.49996H9.00016C9.2735 4.49996 9.50016 4.72663 9.50016 4.99996C9.50016 5.27329 9.2735 5.49996 9.00016 5.49996H7.00016C6.72683 5.49996 6.50016 5.27329 6.50016 4.99996C6.50016 4.72663 6.72683 4.49996 7.00016 4.49996ZM11.3335 14.1666H4.66683V8.33331C4.66683 7.77998 5.1135 7.33331 5.66683 7.33331H10.3335C10.8868 7.33331 11.3335 7.77998 11.3335 8.33331V14.1666Z" fill="#003392"/>
</svg>
