<svg width="16" height="16" viewBox="0 0 16 16" fill="none" xmlns="http://www.w3.org/2000/svg">
<path d="M10.8265 1.33331H5.17317C3.33317 1.33331 2.6665 1.99998 2.6665 3.87331V12.1266C2.6665 14 3.33317 14.6666 5.17317 14.6666H10.8198C12.6665 14.6666 13.3332 14 13.3332 12.1266V3.87331C13.3332 1.99998 12.6665 1.33331 10.8265 1.33331ZM7.99984 12.8666C7.35984 12.8666 6.83317 12.34 6.83317 11.7C6.83317 11.06 7.35984 10.5333 7.99984 10.5333C8.63984 10.5333 9.1665 11.06 9.1665 11.7C9.1665 12.34 8.63984 12.8666 7.99984 12.8666ZM9.33317 4.16665H6.6665C6.39317 4.16665 6.1665 3.93998 6.1665 3.66665C6.1665 3.39331 6.39317 3.16665 6.6665 3.16665H9.33317C9.6065 3.16665 9.83317 3.39331 9.83317 3.66665C9.83317 3.93998 9.6065 4.16665 9.33317 4.16665Z" fill="#FB8500"/>
</svg>
