<svg width="53" height="52" viewBox="0 0 53 52" fill="none" xmlns="http://www.w3.org/2000/svg">
<rect x="0.5" width="52" height="52" rx="12" fill="url(#paint0_linear_565_3644)"/>
<ellipse cx="26.5" cy="37" rx="17" ry="5" fill="#208D46"/>
<g filter="url(#filter0_d_565_3644)">
<path d="M30.3573 14.1146V20.875C30.3573 21.3792 29.7615 21.6313 29.3948 21.299L27.3896 19.4542C27.1719 19.2479 26.8281 19.2479 26.6104 19.4542L24.6052 21.2875C24.2385 21.6313 23.6427 21.3677 23.6427 20.875V14.1146C23.6427 13.7938 23.8948 13.5417 24.2156 13.5417H29.7844C30.1052 13.5417 30.3573 13.7938 30.3573 14.1146Z" fill="white"/>
<path d="M32.7062 13.6104C32.374 13.5646 32.076 13.8511 32.076 14.1833V21.0813C32.076 21.9521 31.5604 22.7427 30.7583 23.0979C29.9563 23.4417 29.0281 23.2927 28.3865 22.6969L27.3896 21.7802C27.1719 21.574 26.8396 21.574 26.6104 21.7802L25.6135 22.6969C25.201 23.0865 24.6625 23.2813 24.124 23.2813C23.826 23.2813 23.5281 23.224 23.2417 23.0979C22.4396 22.7427 21.924 21.9521 21.924 21.0813V14.1833C21.924 13.8511 21.626 13.5646 21.2938 13.6104C18.0854 14.0115 16.6875 16.1771 16.6875 19.2708V30.7292C16.6875 34.1667 18.4062 36.4583 22.4167 36.4583H31.5833C35.5938 36.4583 37.3125 34.1667 37.3125 30.7292V19.2708C37.3125 16.1771 35.9146 14.0115 32.7062 13.6104ZM33.3021 32.7344H23.5625C23.0927 32.7344 22.7031 32.3448 22.7031 31.875C22.7031 31.4052 23.0927 31.0156 23.5625 31.0156H33.3021C33.7719 31.0156 34.1615 31.4052 34.1615 31.875C34.1615 32.3448 33.7719 32.7344 33.3021 32.7344ZM33.3021 28.1511H28.4323C27.9625 28.1511 27.5729 27.7615 27.5729 27.2917C27.5729 26.8219 27.9625 26.4323 28.4323 26.4323H33.3021C33.7719 26.4323 34.1615 26.8219 34.1615 27.2917C34.1615 27.7615 33.7719 28.1511 33.3021 28.1511Z" fill="white"/>
</g>
<defs>
<filter id="filter0_d_565_3644" x="8" y="7" width="38" height="38" filterUnits="userSpaceOnUse" color-interpolation-filters="sRGB">
<feFlood flood-opacity="0" result="BackgroundImageFix"/>
<feColorMatrix in="SourceAlpha" type="matrix" values="0 0 0 0 0 0 0 0 0 0 0 0 0 0 0 0 0 0 127 0" result="hardAlpha"/>
<feOffset dy="1"/>
<feGaussianBlur stdDeviation="2"/>
<feComposite in2="hardAlpha" operator="out"/>
<feColorMatrix type="matrix" values="0 0 0 0 0 0 0 0 0 0 0 0 0 0 0 0 0 0 0.12 0"/>
<feBlend mode="normal" in2="BackgroundImageFix" result="effect1_dropShadow_565_3644"/>
<feBlend mode="normal" in="SourceGraphic" in2="effect1_dropShadow_565_3644" result="shape"/>
</filter>
<linearGradient id="paint0_linear_565_3644" x1="39.1061" y1="-1.43785e-09" x2="12.0021" y2="51.348" gradientUnits="userSpaceOnUse">
<stop stop-color="#43BA7A"/>
<stop offset="1" stop-color="#1CA143"/>
</linearGradient>
</defs>
</svg>
