<svg width="18" height="21" viewBox="0 0 18 21" fill="none" xmlns="http://www.w3.org/2000/svg">
<path d="M8.99999 0.996338C13.0499 0.996338 16.3567 4.19108 16.4958 8.24539L16.5 8.49634V12.5933L17.88 15.7493C17.949 15.9072 17.9847 16.0777 17.9847 16.2501C17.9847 16.9405 17.425 17.5001 16.7347 17.5001L12 17.5016C12 19.1585 10.6568 20.5016 8.99999 20.5016C7.40231 20.5016 6.09633 19.2527 6.00508 17.6779L5.99954 17.4993L1.27485 17.5001C1.10351 17.5001 0.934005 17.4649 0.776852 17.3966C0.14365 17.1216 -0.146699 16.3853 0.12834 15.7521L1.49999 12.5943V8.49623C1.50059 4.34144 4.85208 0.996338 8.99999 0.996338ZM10.4995 17.4993L7.49999 17.5016C7.49999 18.33 8.17156 19.0016 8.99999 19.0016C9.77969 19.0016 10.4204 18.4067 10.4931 17.6461L10.4995 17.4993ZM8.99999 2.49634C5.67983 2.49634 3.00047 5.17059 2.99999 8.49634V12.906L1.65601 16.0001H16.3525L15 12.9069L15.0001 8.50919L14.9964 8.28399C14.8853 5.05052 12.2416 2.49634 8.99999 2.49634Z" fill="#4188F1"/>
</svg>
