<svg width="26" height="25" viewBox="0 0 26 25" fill="none" xmlns="http://www.w3.org/2000/svg">
<path d="M23.7816 18.0935C23.91 17.8411 23.8987 17.5561 23.7806 17.3209L23.7881 17.316L21.909 14.4284L24.788 12.5549L24.7845 12.5492C24.8884 12.4645 24.9709 12.3565 25.0252 12.2339C25.0796 12.1114 25.1043 11.9778 25.0974 11.8439C25.09 11.7099 25.0511 11.5795 24.9838 11.4633C24.9166 11.3472 24.8229 11.2485 24.7103 11.1754L24.7141 11.168L21.6425 9.60648L23.1995 6.54369L23.1932 6.5405C23.2408 6.41518 23.2583 6.28039 23.2441 6.14708C23.2299 6.01376 23.1845 5.88567 23.1116 5.77316C23.0382 5.66065 22.9393 5.56708 22.8229 5.5001C22.7064 5.43311 22.5758 5.39461 22.4417 5.38773L22.4413 5.37929L18.943 5.5659L18.7641 2.21046L18.7571 2.21084C18.7357 2.07851 18.6834 1.95309 18.6044 1.84473C18.5255 1.73637 18.4221 1.64813 18.3028 1.58714C18.0503 1.4588 17.765 1.46992 17.5301 1.58814L17.5253 1.58067L14.6624 3.44364L12.8103 0.59739L12.8044 0.601216C12.7197 0.4973 12.6117 0.414809 12.4892 0.360434C12.3666 0.306058 12.233 0.281328 12.0991 0.28825C11.965 0.295576 11.8346 0.334439 11.7184 0.401677C11.6022 0.468915 11.5035 0.56263 11.4303 0.675201L11.4226 0.671285L9.87475 3.71611L6.84762 2.17722L6.84457 2.18321C6.71925 2.13559 6.58447 2.11816 6.45115 2.13234C6.31784 2.14652 6.18974 2.1919 6.07723 2.26482C5.96491 2.33821 5.87147 2.43706 5.8045 2.55333C5.73753 2.6696 5.69893 2.80003 5.69181 2.93402L5.68322 2.93468L5.86193 6.28754L2.39568 6.47251L2.39606 6.47952C2.26373 6.50097 2.13831 6.55328 2.02995 6.63222C1.92159 6.71116 1.83335 6.81451 1.77236 6.93389C1.64402 7.18635 1.65514 7.47164 1.77336 7.70656L1.76589 7.71138L3.64501 10.599L0.76599 12.4725L0.769674 12.4779C0.665758 12.5626 0.583268 12.6706 0.528892 12.7932C0.474517 12.9157 0.449786 13.0494 0.456708 13.1832C0.46412 13.3173 0.503036 13.4476 0.570296 13.5638C0.637555 13.6799 0.731261 13.7786 0.843804 13.8517L0.839889 13.8594L3.91124 15.4208L2.35437 18.4833L2.36065 18.4865C2.26856 18.7326 2.28813 19.0168 2.44226 19.2538C2.51568 19.3663 2.61463 19.4598 2.73104 19.5268C2.84746 19.5938 2.97804 19.6323 3.11217 19.6393L3.11254 19.6477L6.61086 19.4611L6.7897 22.8165L6.79671 22.8161C6.81816 22.9485 6.87047 23.0739 6.94941 23.1823C7.02835 23.2906 7.1317 23.3789 7.25109 23.4398C7.50354 23.5682 7.78883 23.5571 8.02361 23.4391L8.02828 23.4462L10.8912 21.5832L12.7435 24.4296L12.7494 24.4258C12.8341 24.5297 12.9421 24.6122 13.0647 24.6666C13.1872 24.7209 13.3209 24.7457 13.4548 24.7387C13.5888 24.7314 13.7192 24.6925 13.8355 24.6253C13.9517 24.5581 14.0504 24.4644 14.1235 24.3518L14.1312 24.3557L15.6789 21.3112L18.7064 22.8502L18.7094 22.8442C18.8347 22.8918 18.9695 22.9093 19.1028 22.8951C19.2362 22.8809 19.3643 22.8355 19.4768 22.7626C19.5891 22.6891 19.6825 22.5902 19.7495 22.4739C19.8165 22.3576 19.8552 22.2271 19.8623 22.0931L19.8708 22.0927L19.6921 18.7399L23.1583 18.5549L23.1579 18.5479C23.2903 18.5265 23.4157 18.4742 23.5241 18.3953C23.6324 18.3163 23.7207 18.2129 23.7816 18.0935ZM9.33746 14.8412L7.15964 12.1725L7.30785 14.9491L6.40163 14.9975L6.17428 10.7404L7.10612 10.6904L9.22107 13.2596L9.07833 10.5852L9.98483 10.537L10.2116 14.7938L9.33746 14.8412ZM11.054 14.7496L10.8271 10.4924L13.8396 10.332L13.8821 11.1297L11.7758 11.2417L11.8233 12.1353L13.8847 12.0256L13.9275 12.8227L11.8658 12.933L11.9176 13.9031L14.0239 13.7911L14.0664 14.5888L11.054 14.7496ZM18.0299 14.3776L17.1272 11.4942L16.5427 14.4566L15.5792 14.5081L14.133 10.3163L15.1477 10.2621L16.0588 13.2984L16.7052 10.1791L17.4135 10.1414L18.3818 13.1748L18.9644 10.0586L19.9791 10.0044L18.9935 14.3265L18.0299 14.3776Z" fill="#ED1F29"/>
</svg>
