<svg width="56" height="56" viewBox="0 0 56 56" fill="none" xmlns="http://www.w3.org/2000/svg">
<circle cx="28" cy="28" r="18" fill="white"/>
<path d="M28.0096 12C24.8451 11.9981 21.7511 12.9347 19.1188 14.6912C16.4866 16.4477 14.4343 18.9453 13.2216 21.8682C12.0088 24.7911 11.6901 28.008 12.3056 31.1121C12.9211 34.2161 14.4432 37.068 16.6795 39.3069C18.9158 41.5459 21.7659 43.0715 24.8692 43.6907C27.9725 44.3099 31.1898 43.995 34.1141 42.7857C37.0384 41.5765 39.5385 39.5272 41.2982 36.8971C43.0579 34.2669 43.9981 31.1741 44 28.0096C43.9891 23.7702 42.3015 19.7073 39.3056 16.7079C36.3097 13.7084 32.2489 12.016 28.0096 12V12ZM28.035 43.1083C25.0425 43.1127 22.1159 42.229 19.6259 40.5692C17.1358 38.9094 15.1943 36.548 14.047 33.7841C12.8998 31.0202 12.5985 27.978 13.1812 25.0428C13.7639 22.1075 15.2045 19.4112 17.3206 17.2951C19.4366 15.1791 22.133 13.7385 25.0683 13.1557C28.0035 12.573 31.0457 12.8743 33.8096 14.0215C36.5735 15.1688 38.9349 17.1103 40.5947 19.6004C42.2545 22.0904 43.1382 25.017 43.1337 28.0096C43.1103 32.0068 41.5121 35.8336 38.6856 38.6601C35.8591 41.4866 32.0322 43.0849 28.035 43.1083V43.1083Z" fill="#00803D"/>
<path d="M22.121 15.2578C22.121 21.4744 22.0987 27.6241 22.0987 33.7928C21.5541 32.9298 20.5796 32.7005 19.6911 32.5636H14.5L14.8662 33.4075L19.6783 33.3629C20.202 33.3431 20.7186 33.4883 21.1552 33.7781C21.5917 34.0678 21.9263 34.4874 22.1115 34.9776V36.3884C21.5541 35.5476 20.5987 35.3183 19.7357 35.2069L15.6943 35.1846L16.1815 35.9585L19.7134 35.9107C20.2264 35.8988 20.7307 36.0453 21.1575 36.3302C21.5843 36.6151 21.913 37.0247 22.0987 37.503V38.7514C21.6083 37.8852 20.7866 37.5476 19.7357 37.5221L17.3535 37.4776L18.1943 38.3406L19.8057 38.296C21.328 38.4553 22.1433 39.3438 22.4236 40.9139V40.9807C22.449 41.0285 22.449 41.0954 22.4745 41.1623L22.449 40.8661C22.4699 40.8236 22.4787 40.7763 22.4745 40.7292V40.7992L22.828 39.8088C23.0964 39.3433 23.4861 38.9594 23.9556 38.698C24.425 38.4367 24.9566 38.3076 25.4936 38.3247H37.8726L38.6688 37.4776C33.7834 37.4776 30.3248 37.4999 25.465 37.4999C24.5096 37.6145 23.5541 37.8183 22.8917 38.5221V37.2769C23.176 36.8525 23.5631 36.507 24.0169 36.2725C24.4708 36.0381 24.9766 35.9224 25.4873 35.9362H39.8599L40.3981 35.0922C35.5127 35.0922 30.3248 35.1177 25.465 35.1177C24.5096 35.2292 23.5541 35.4362 22.8917 36.14V34.7737C23.1754 34.3485 23.5623 34.0022 24.0162 33.7671C24.4701 33.5321 24.9763 33.416 25.4873 33.4298H41.1943L41.5127 32.589C36.6274 32.589 30.3408 32.6081 25.4809 32.6081C24.5255 32.7228 23.5701 32.9266 22.9076 33.6368V14.8247L22.121 15.2578Z" fill="#00803D"/>
<path d="M24.7392 29.9745H24.478V29.5159H24.7392V28.3885H25.9525C26.1199 28.3794 26.2874 28.4053 26.4442 28.4645C26.601 28.5238 26.7438 28.615 26.8634 28.7324C26.9917 28.8729 27.0903 29.0378 27.1532 29.2173C27.2162 29.3968 27.2421 29.5872 27.2296 29.777C27.2492 30.143 27.1361 30.5037 26.9111 30.7929C26.7933 30.9288 26.646 31.0359 26.4804 31.106C26.3147 31.1761 26.1353 31.2074 25.9557 31.1974H24.7392V29.9745ZM25.3761 29.5159H26.0131V29.9745H25.3761V30.6751H25.9175C26.0074 30.68 26.0973 30.6658 26.1813 30.6334C26.2653 30.601 26.3414 30.5512 26.4048 30.4872C26.559 30.3061 26.6356 30.0716 26.6182 29.8343C26.6358 29.5961 26.5743 29.3588 26.443 29.1592C26.3645 29.0696 26.2658 29 26.155 28.9563C26.0442 28.9125 25.9246 28.8958 25.8061 28.9076H25.3761V29.5159Z" fill="#00803D"/>
<path d="M27.5669 28.3887H28.1847V29.4651H29.3217V28.3887H29.9586V31.1976H29.3217V29.9842H28.1847V31.1976H27.5669V28.3887Z" fill="#00803D"/>
<path d="M32.7227 31.4616L32.3246 31.108C32.1155 31.2209 31.8805 31.2769 31.643 31.2705C31.4527 31.2786 31.263 31.2445 31.0873 31.1707C30.9117 31.097 30.7546 30.9853 30.6271 30.8437C30.3783 30.5589 30.2473 30.1899 30.2609 29.8119C30.2462 29.426 30.3769 29.0487 30.6271 28.7545C30.7595 28.6187 30.9177 28.5107 31.0924 28.4369C31.2672 28.3632 31.455 28.3252 31.6446 28.3252C31.8343 28.3252 32.0221 28.3632 32.1968 28.4369C32.3716 28.5107 32.5298 28.6187 32.6622 28.7545C32.9074 29.0484 33.0346 29.423 33.0188 29.8055C33.0308 30.1848 32.8988 30.5545 32.6494 30.8405L33.0029 31.159L32.7227 31.4616ZM31.9169 30.1526L32.2354 30.4456C32.3568 30.256 32.4169 30.0336 32.4074 29.8087C32.4177 29.5736 32.3579 29.3408 32.2354 29.1399C32.1666 29.0483 32.0774 28.9739 31.9748 28.9227C31.8723 28.8714 31.7593 28.8448 31.6446 28.8448C31.53 28.8448 31.417 28.8714 31.3144 28.9227C31.2119 28.9739 31.1227 29.0483 31.0539 29.1399C30.9314 29.3408 30.8715 29.5736 30.8819 29.8087C30.8746 30.0334 30.9345 30.2551 31.0539 30.4456C31.1187 30.5409 31.207 30.6179 31.3101 30.6692C31.4133 30.7205 31.528 30.7444 31.643 30.7386H31.7864C31.8239 30.7366 31.8602 30.7245 31.8915 30.7036L31.6303 30.4711L31.9169 30.1526Z" fill="#00803D"/>
<path d="M35.3823 30.8791C35.2853 31.0062 35.1598 31.1087 35.016 31.1785C34.8879 31.2362 34.7489 31.2655 34.6084 31.2645C34.4181 31.2726 34.2283 31.2385 34.0527 31.1647C33.8771 31.091 33.7199 30.9793 33.5925 30.8377C33.3436 30.5529 33.2126 30.1839 33.2262 29.8059C33.2115 29.42 33.3422 29.0427 33.5925 28.7486C33.7198 28.6058 33.8773 28.4932 34.0536 28.4188C34.2298 28.3444 34.4204 28.3102 34.6116 28.3186C34.8946 28.3121 35.1712 28.4032 35.395 28.5766C35.5096 28.6643 35.6046 28.7751 35.6737 28.9019C35.7428 29.0286 35.7846 29.1684 35.7963 29.3123H35.2039C35.1841 29.1729 35.1117 29.0464 35.0015 28.9587C34.8913 28.8711 34.7518 28.8289 34.6116 28.8409C34.4961 28.8352 34.3812 28.8594 34.2779 28.9113C34.1747 28.9633 34.0866 29.041 34.0224 29.1371C33.8999 29.338 33.8401 29.5708 33.8504 29.8059C33.8431 30.0306 33.903 30.2523 34.0224 30.4428C34.0872 30.5381 34.1755 30.6151 34.2787 30.6664C34.3818 30.7177 34.4965 30.7416 34.6116 30.7358C34.6945 30.7456 34.7786 30.7379 34.8585 30.7133C34.9383 30.6886 35.0121 30.6475 35.0751 30.5926C35.1381 30.5377 35.1889 30.4702 35.2242 30.3945C35.2596 30.3188 35.2787 30.2366 35.2804 30.153H34.6434V29.6785H35.8249V31.1976H35.4428L35.3823 30.8791Z" fill="#00803D"/>
<path d="M36.2386 28.3887H36.8755V29.4651H38.0125V28.3887H38.6303V31.1976H37.9965V29.9842H36.8596V31.1976H36.2227L36.2386 28.3887Z" fill="#00803D"/>
<path d="M39.0703 28.3887H39.685L40.8601 30.274V28.3887H41.4397V31.1976H40.8155L39.6467 29.3154V31.1976H39.0703V28.3887Z" fill="#00803D"/>
<circle opacity="0.24" cx="28" cy="28" r="18" stroke="url(#paint0_linear_3004_4257)" stroke-width="20"/>
<defs>
<linearGradient id="paint0_linear_3004_4257" x1="1.33865" y1="14.6135" x2="40.0478" y2="56" gradientUnits="userSpaceOnUse">
<stop stop-color="#D9EEDD"/>
<stop offset="1" stop-color="#57B569" stop-opacity="0"/>
</linearGradient>
</defs>
</svg>
