<svg width="26" height="26" viewBox="0 0 26 26" fill="none" xmlns="http://www.w3.org/2000/svg">
<ellipse cx="13" cy="20.3667" rx="13" ry="5.2" fill="#F0F4FF"/>
<path d="M10 2C7.38 2 5.25 4.13 5.25 6.75C5.25 9.32 7.26 11.4 9.88 11.49C9.96 11.48 10.04 11.48 10.1 11.49C10.12 11.49 10.13 11.49 10.15 11.49C10.16 11.49 10.16 11.49 10.17 11.49C12.73 11.4 14.74 9.32 14.75 6.75C14.75 4.13 12.62 2 10 2Z" fill="#118A40"/>
<path d="M15.08 14.15C12.29 12.29 7.73996 12.29 4.92996 14.15C3.65996 15 2.95996 16.15 2.95996 17.38C2.95996 18.61 3.65996 19.75 4.91996 20.59C6.31996 21.53 8.15996 22 9.99996 22C11.84 22 13.68 21.53 15.08 20.59C16.34 19.74 17.04 18.6 17.04 17.36C17.03 16.13 16.34 14.99 15.08 14.15Z" fill="#118A40"/>
<path d="M20.9901 7.33998C21.1501 9.27998 19.7701 10.98 17.8601 11.21C17.8501 11.21 17.8501 11.21 17.8401 11.21H17.8101C17.7501 11.21 17.6901 11.21 17.6401 11.23C16.6701 11.28 15.7801 10.97 15.1101 10.4C16.1401 9.47998 16.7301 8.09998 16.6101 6.59998C16.5401 5.78998 16.2601 5.04998 15.8401 4.41998C16.2201 4.22998 16.6601 4.10998 17.1101 4.06998C19.0701 3.89998 20.8201 5.35998 20.9901 7.33998Z" fill="#118A40"/>
<path d="M22.99 16.59C22.91 17.56 22.29 18.4 21.25 18.97C20.25 19.52 18.99 19.78 17.74 19.75C18.46 19.1 18.88 18.29 18.96 17.43C19.06 16.19 18.47 15 17.29 14.05C16.62 13.52 15.84 13.1 14.99 12.79C17.2 12.15 19.98 12.58 21.69 13.96C22.61 14.7 23.08 15.63 22.99 16.59Z" fill="#118A40"/>
</svg>
