<svg width="26" height="26" viewBox="0 0 26 26" fill="none" xmlns="http://www.w3.org/2000/svg">
<ellipse cx="13" cy="20.3667" rx="13" ry="5.2" fill="#EEF3FB"/>
<path d="M19.0325 3.40054C15.6667 1.16403 10.8118 1.19183 7.44725 3.39852C7.1622 3.58548 7.08081 3.97122 7.26286 4.26048C7.44567 4.55094 7.8263 4.63644 8.11261 4.44865C11.0739 2.50645 15.4051 2.4825 18.3611 4.44663C18.6463 4.63614 19.0274 4.55297 19.2119 4.26359C19.3957 3.97542 19.3165 3.58921 19.0325 3.40054Z" fill="#003392" stroke="#003392" stroke-width="0.2"/>
<path d="M21.6488 8.77407C19.9362 6.07016 16.8724 4.3618 13.598 4.21567C10.1261 4.06073 6.87809 5.65485 4.75727 8.80925C4.56662 9.09282 4.63658 9.48084 4.9158 9.67648C5.19629 9.873 5.57935 9.79947 5.77082 9.51469C7.64967 6.72018 10.4927 5.32771 13.5442 5.46389C16.4318 5.59276 19.126 7.09759 20.6165 9.45087C20.8002 9.74081 21.181 9.82518 21.4668 9.63656C21.7513 9.44877 21.8316 9.0628 21.6488 8.77407Z" fill="#003392" stroke="#003392" stroke-width="0.2"/>
<path d="M16.2288 14.582V14.482H16.2242C16.1362 12.8502 14.8115 11.5513 13.1863 11.5513C11.5273 11.5513 10.2288 12.9121 10.1448 14.6238C10.0908 15.7223 10.4415 17.1824 11.172 18.4588C12.1325 20.137 13.6613 21.4118 15.7689 22.0722C16.0949 22.1743 16.4379 21.9867 16.5367 21.6579C16.6353 21.3299 16.4555 20.98 16.1303 20.8781C14.3218 20.3115 13.0406 19.2407 12.2332 17.8301C11.6194 16.7577 11.3295 15.5372 11.3712 14.6861C11.4241 13.6095 12.212 12.8008 13.1863 12.8008C14.1865 12.8008 15.0008 13.629 15.0008 14.655V14.755H15.0055C15.0937 16.3865 16.4229 17.6856 18.0484 17.6856C19.7307 17.6856 21.0909 16.2942 21.0909 14.582C21.0909 10.3739 17.7428 6.63376 13.1981 6.63376C10.786 6.63376 8.44896 7.76035 6.99369 9.72279C5.35033 11.9389 4.95569 14.9817 6.02937 18.4939C6.12974 18.8222 6.47355 19.0082 6.79914 18.9045C7.1238 18.8011 7.30208 18.4503 7.20196 18.1228C6.2362 14.9636 6.58832 12.3439 7.97398 10.4753C9.19094 8.83423 11.1615 7.88318 13.1981 7.88318C17.036 7.88318 19.8629 11.0368 19.8629 14.582C19.8629 15.608 19.0486 16.4362 18.0484 16.4362C17.0467 16.4362 16.2288 15.6064 16.2288 14.582Z" fill="#003392" stroke="#003392" stroke-width="0.2"/>
<path d="M11.5208 20.7821C10.4075 19.811 9.38996 17.8237 9.10425 15.9027C8.77702 13.7025 9.40216 11.9385 11.0378 10.9494C13.9638 9.18004 17.3918 11.3147 17.3918 14.7162C17.3918 15.0593 17.6648 15.3409 18.0058 15.3409C18.3468 15.3409 18.6198 15.0593 18.6198 14.7162C18.6198 10.3803 14.1847 7.59297 10.4104 9.87536C8.28668 11.1596 7.49669 13.4447 7.89007 16.0897C8.21694 18.2874 9.36947 20.5512 10.7214 21.7306C10.9797 21.9559 11.3684 21.9245 11.5885 21.6614C11.8077 21.3996 11.7778 21.0064 11.5208 20.7821Z" fill="#003392" stroke="#003392" stroke-width="0.2"/>
<path d="M14.4496 18.8387L14.4496 18.8387C15.5472 19.7868 17.1341 20.1465 19.081 19.9092C19.4194 19.868 19.6575 19.5557 19.6177 19.2151C19.5778 18.8743 19.2737 18.6274 18.935 18.6687C17.2829 18.87 16.0437 18.5767 15.2444 17.8863C14.3406 17.1056 13.7878 15.6822 13.8205 14.5866C13.8308 14.2437 13.5664 13.9538 13.2256 13.9432C12.8846 13.9326 12.6033 14.2057 12.5931 14.5487C12.5496 16.0041 13.244 17.7974 14.4496 18.8387Z" fill="#003392" stroke="#003392" stroke-width="0.2"/>
</svg>
