<svg width="26" height="26" viewBox="0 0 26 26" fill="none" xmlns="http://www.w3.org/2000/svg">
<ellipse cx="13" cy="20.3667" rx="13" ry="5.2" fill="#F0F4FF"/>
<path d="M18.29 11.969C18.2919 12.3215 18.1537 12.6604 17.9058 12.9111C17.6579 13.1618 17.3206 13.3039 16.968 13.306C16.7934 13.3051 16.6206 13.2698 16.4596 13.2021C16.2986 13.1344 16.1525 13.0356 16.0296 12.9115C15.9068 12.7873 15.8096 12.6402 15.7436 12.4785C15.6776 12.3168 15.6441 12.1436 15.645 11.969C15.644 11.7942 15.6774 11.621 15.7433 11.4592C15.8092 11.2973 15.9064 11.1501 16.0293 11.0258C16.1521 10.9016 16.2983 10.8027 16.4594 10.735C16.6204 10.6672 16.7933 10.6319 16.968 10.631C17.698 10.631 18.29 11.23 18.29 11.969Z" fill="#FB8500"/>
<path fill-rule="evenodd" clip-rule="evenodd" d="M19.1319 7.40802C18.2829 7.28802 17.1899 7.28802 15.8269 7.28802H10.1729C8.80994 7.28802 7.71694 7.28802 6.86794 7.40802C5.99094 7.53302 5.25994 7.80103 4.71594 8.42803C4.17294 9.05603 4.00594 9.82502 3.99994 10.721C3.99394 11.587 4.13894 12.683 4.31894 14.05L4.68394 16.821C4.82494 17.89 4.93894 18.754 5.11594 19.431C5.30094 20.135 5.57294 20.72 6.08394 21.172C6.59394 21.624 7.20394 21.82 7.91794 21.912C8.60494 22 9.46794 22 10.5329 22H15.4669C16.5319 22 17.3949 22 18.0819 21.912C18.7969 21.82 19.4049 21.624 19.9159 21.172C20.4269 20.72 20.6989 20.135 20.8839 19.431C21.0609 18.754 21.1749 17.889 21.3159 16.821L21.6809 14.05C21.8609 12.683 22.0059 11.587 21.9999 10.72C21.9929 9.82503 21.8279 9.05602 21.2839 8.42902C20.7399 7.80102 20.0089 7.53302 19.1319 7.40802ZM7.05194 8.73203C6.32594 8.83603 5.95794 9.02403 5.71194 9.31003C5.46394 9.59503 5.32794 9.98802 5.32194 10.73C5.31694 11.492 5.44794 12.495 5.63694 13.925L5.68694 14.305L6.05794 14.032C7.01794 13.33 8.43394 13.364 9.34594 14.127L12.7299 16.96C13.0499 17.228 13.6009 17.278 13.9989 17.044L14.2339 16.906C15.3589 16.244 16.8679 16.314 17.9059 17.096L19.7379 18.476C19.8279 17.98 19.9089 17.371 20.0109 16.6L20.3629 13.925C20.5519 12.495 20.6829 11.492 20.6769 10.73C20.6719 9.98802 20.5359 9.59503 20.2889 9.31003C20.0419 9.02403 19.6739 8.83603 18.9469 8.73203C18.2019 8.62603 17.2019 8.62502 15.7749 8.62502H10.2249C8.79794 8.62502 7.79694 8.62603 7.05194 8.73203Z" fill="#FB8500"/>
<path d="M9.85901 2H16.141C16.351 2 16.511 2 16.651 2.015C17.1297 2.06859 17.5844 2.25296 17.9653 2.54789C18.3461 2.84282 18.6384 3.23693 18.81 3.687H7.19001C7.36167 3.23693 7.65394 2.84282 8.03478 2.54789C8.41561 2.25296 8.87031 2.06859 9.34901 2.015C9.48901 2 9.64901 2 9.85901 2ZM7.88001 4.5C6.62801 4.5 5.60201 5.34 5.26001 6.454C5.25271 6.47724 5.24571 6.50058 5.23901 6.524C5.59701 6.404 5.96901 6.324 6.34701 6.271C7.32001 6.132 8.54901 6.132 9.97601 6.132H16.179C17.606 6.132 18.835 6.132 19.807 6.271C20.185 6.324 20.557 6.403 20.917 6.524C20.9103 6.50058 20.9033 6.47724 20.896 6.454C20.553 5.34 19.527 4.5 18.276 4.5H7.88001Z" fill="#FB8500"/>
</svg>
