<svg width="26" height="26" viewBox="0 0 26 26" fill="none" xmlns="http://www.w3.org/2000/svg">
<ellipse cx="13" cy="20.3667" rx="13" ry="5.2" fill="#EEF3FB"/>
<path fill-rule="evenodd" clip-rule="evenodd" d="M4.91406 6.93945V4.91797C4.91406 3.81301 5.81303 2.91406 6.91797 2.91406H8.93945C9.19186 2.91406 9.39648 2.70944 9.39648 2.45703C9.39648 2.20463 9.19186 2 8.93945 2H6.91797C5.30901 2 4 3.30899 4 4.91797V6.93945C4 7.19186 4.20463 7.39648 4.45703 7.39648C4.70944 7.39648 4.91406 7.19186 4.91406 6.93945ZM8.93945 19.0859C9.19186 19.0859 9.39648 19.2906 9.39648 19.543C9.39648 19.7954 9.19186 20 8.93945 20H6.91797C5.30901 20 4 18.691 4 17.082V15.0605C4 14.8081 4.20463 14.6035 4.45703 14.6035C4.70944 14.6035 4.91406 14.8081 4.91406 15.0605V17.082C4.91406 18.187 5.81303 19.0859 6.91797 19.0859H8.93945ZM22 15.0605V17.082C22 18.691 20.691 20 19.082 20H17.0605C16.8081 20 16.6035 19.7954 16.6035 19.543C16.6035 19.2906 16.8081 19.0859 17.0605 19.0859H19.082C20.187 19.0859 21.0859 18.187 21.0859 17.082V15.0605C21.0859 14.8081 21.2906 14.6035 21.543 14.6035C21.7954 14.6035 22 14.8081 22 15.0605ZM22 4.91797V6.93945C22 7.19186 21.7954 7.39648 21.543 7.39648C21.2906 7.39648 21.0859 7.19186 21.0859 6.93945V4.91797C21.0859 3.81301 20.187 2.91406 19.082 2.91406H17.0605C16.8081 2.91406 16.6035 2.70944 16.6035 2.45703C16.6035 2.20463 16.8081 2 17.0605 2H19.082C20.691 2 22 3.30899 22 4.91797ZM16.154 15.3037C16.3465 15.1259 16.3584 14.8256 16.1806 14.633C16.0027 14.4405 15.7024 14.4286 15.5099 14.6064C14.8247 15.2393 13.9334 15.5879 12.9999 15.5879C12.0665 15.5879 11.1751 15.2393 10.49 14.6064C10.2974 14.4286 9.99719 14.4405 9.81931 14.633C9.64146 14.8256 9.65336 15.1259 9.84591 15.3037C10.707 16.0991 11.8271 16.5371 12.9999 16.5371C14.1728 16.5371 15.2929 16.0991 16.154 15.3037ZM13.9492 8.78516V12.1602C13.9492 12.829 13.4051 13.373 12.7363 13.373H12.3496C12.0875 13.373 11.875 13.1606 11.875 12.8984C11.875 12.6363 12.0875 12.4238 12.3496 12.4238H12.7363C12.8817 12.4238 13 12.3055 13 12.1602V8.78516C13 8.52303 13.2125 8.31055 13.4746 8.31055C13.7367 8.31055 13.9492 8.52303 13.9492 8.78516ZM17.2188 10.1123V8.75879C17.2188 8.51124 17.0181 8.31055 16.7705 8.31055C16.523 8.31055 16.3223 8.51124 16.3223 8.75879V10.1123C16.3223 10.3599 16.523 10.5605 16.7705 10.5605C17.0181 10.5605 17.2188 10.3599 17.2188 10.1123ZM8.88672 10.1123C8.88672 10.3599 9.08741 10.5605 9.33496 10.5605C9.58251 10.5605 9.7832 10.3599 9.7832 10.1123V8.75879C9.7832 8.51124 9.58251 8.31055 9.33496 8.31055C9.08741 8.31055 8.88672 8.51124 8.88672 8.75879V10.1123Z" fill="#003392"/>
</svg>
