<svg width="26" height="28" viewBox="0 0 26 28" fill="none" xmlns="http://www.w3.org/2000/svg">
<ellipse cx="13" cy="22.2" rx="13" ry="5.2" fill="#F0F4FF"/>
<g clip-path="url(#clip0_502_9619)">
<path d="M18 3C18.5046 2.99984 18.9906 3.19041 19.3605 3.5335C19.7305 3.87659 19.9572 4.34684 19.995 4.85L20 5V10H21.5C21.8729 10 22.2324 10.1389 22.5084 10.3896C22.7844 10.6403 22.9572 10.9848 22.993 11.356L23 11.5V19C23 19.7652 22.7077 20.5015 22.1827 21.0583C21.6578 21.615 20.9399 21.9501 20.176 21.995L20 22H7C6.49542 22.0002 6.00943 21.8096 5.63945 21.4665C5.26947 21.1234 5.04284 20.6532 5.005 20.15L5 20V5C4.99984 4.49542 5.19041 4.00943 5.5335 3.63945C5.87659 3.26947 6.34684 3.04284 6.85 3.005L7 3H18ZM21 12H20V20C20.2652 20 20.5196 19.8946 20.7071 19.7071C20.8946 19.5196 21 19.2652 21 19V12ZM13 13H10C9.74512 13.0003 9.49997 13.0979 9.31463 13.2728C9.1293 13.4478 9.01777 13.687 9.00283 13.9414C8.98789 14.1958 9.07067 14.4464 9.23426 14.6418C9.39786 14.8373 9.6299 14.9629 9.883 14.993L10 15H13C13.2549 14.9997 13.5 14.9021 13.6854 14.7272C13.8707 14.5522 13.9822 14.313 13.9972 14.0586C14.0121 13.8042 13.9293 13.5536 13.7657 13.3582C13.6021 13.1627 13.3701 13.0371 13.117 13.007L13 13ZM15 8H10C9.73478 8 9.48043 8.10536 9.29289 8.29289C9.10536 8.48043 9 8.73478 9 9C9 9.26522 9.10536 9.51957 9.29289 9.70711C9.48043 9.89464 9.73478 10 10 10H15C15.2652 10 15.5196 9.89464 15.7071 9.70711C15.8946 9.51957 16 9.26522 16 9C16 8.73478 15.8946 8.48043 15.7071 8.29289C15.5196 8.10536 15.2652 8 15 8Z" fill="#007892"/>
</g>
<defs>
<clipPath id="clip0_502_9619">
<rect width="24" height="24" fill="white" transform="translate(2)"/>
</clipPath>
</defs>
</svg>
