<svg width="15" height="17" viewBox="0 0 15 17" fill="none" xmlns="http://www.w3.org/2000/svg">
<path fill-rule="evenodd" clip-rule="evenodd" d="M13.9082 1.40747C14.3715 1.89268 14.5741 2.6598 14.2433 3.40214L9.02782 15.0967C8.90193 15.3982 8.68966 15.6558 8.41772 15.8369C8.14578 16.0181 7.82634 16.1147 7.49959 16.1147C7.17284 16.1147 6.8534 16.0181 6.58146 15.8369C6.30953 15.6558 6.09725 15.3982 5.97136 15.0967L0.756611 3.40143C0.606675 3.07355 0.558455 2.70826 0.618177 2.35271C0.677899 1.99715 0.842821 1.66766 1.09165 1.40676C1.55844 0.918013 2.32061 0.692055 3.05161 1.08235L7.23361 3.31501C7.31538 3.35934 7.40693 3.38256 7.49994 3.38256C7.59296 3.38256 7.6845 3.35934 7.76628 3.31501L11.9483 1.08376C12.6793 0.69418 13.4414 0.91943 13.9082 1.40818M12.4491 2.02089L8.26707 4.25426C8.0313 4.38081 7.76788 4.44703 7.5003 4.44703C7.23272 4.44703 6.9693 4.38081 6.73353 4.25426L2.55153 2.02018C2.29936 1.8856 2.04507 1.94722 1.86019 2.1413C1.67036 2.33964 1.58536 2.6513 1.72703 2.96935L6.94178 14.6639C7.17269 15.181 7.82719 15.181 8.0574 14.6639L13.2729 2.96935C13.4145 2.65201 13.3295 2.33964 13.1397 2.1413C12.9541 1.94722 12.7012 1.8863 12.4491 2.02089Z" fill="#466FFF"/>
</svg>
