<svg width="61" height="61" viewBox="0 0 61 61" fill="none" xmlns="http://www.w3.org/2000/svg">
<g clip-path="url(#clip0_502_10426)">
<path d="M46.6875 18.7143H38.2469L37.0212 15.5086C36.8536 15.0656 36.5585 14.6845 36.1748 14.4154C35.791 14.1462 35.3365 14.0014 34.8706 14H26.1294C25.6616 13.999 25.2045 14.1427 24.8184 14.412C24.4324 14.6814 24.1356 15.0637 23.9672 15.5086L22.7531 18.7143H14.3125C13.6992 18.7143 13.111 18.9626 12.6773 19.4047C12.2436 19.8467 12 20.4463 12 21.0714V44.6429C12 45.268 12.2436 45.8676 12.6773 46.3096C13.111 46.7517 13.6992 47 14.3125 47H46.6875C47.3008 47 47.889 46.7517 48.3227 46.3096C48.7564 45.8676 49 45.268 49 44.6429V21.0714C49 20.4463 48.7564 19.8467 48.3227 19.4047C47.889 18.9626 47.3008 18.7143 46.6875 18.7143ZM16.8216 25.3496C16.5762 25.3496 16.341 25.2503 16.1675 25.0735C15.994 24.8967 15.8966 24.6568 15.8966 24.4068C15.8966 24.1567 15.994 23.9169 16.1675 23.7401C16.341 23.5633 16.5762 23.4639 16.8216 23.4639H19.5966C19.8419 23.4639 20.0772 23.5633 20.2506 23.7401C20.4241 23.9169 20.5216 24.1567 20.5216 24.4068C20.5216 24.6568 20.4241 24.8967 20.2506 25.0735C20.0772 25.2503 19.8419 25.3496 19.5966 25.3496H16.8216ZM30.5 42.2857C28.4418 42.2857 26.4299 41.6636 24.7186 40.4981C23.0073 39.3326 21.6735 37.676 20.8859 35.7377C20.0983 33.7995 19.8922 31.6668 20.2937 29.6092C20.6952 27.5516 21.6863 25.6616 23.1417 24.1782C24.597 22.6948 26.4512 21.6845 28.4698 21.2752C30.4885 20.866 32.5808 21.076 34.4823 21.8789C36.3838 22.6817 38.009 24.0412 39.1525 25.7856C40.2959 27.5299 40.9062 29.5807 40.9062 31.6786C40.9062 34.4918 39.8099 37.1897 37.8583 39.179C35.9068 41.1682 33.2599 42.2857 30.5 42.2857Z" fill="#418D98"/>
<path d="M22 31.8614C22.0024 33.364 22.4744 34.8346 23.3603 36.0995C24.2461 37.3645 25.5087 38.3709 26.9991 39L28.3249 37.0622C27.5174 36.7476 26.7938 36.2766 26.2038 35.6817C25.6138 35.0867 25.1715 34.382 24.9071 33.6157C24.6428 32.8494 24.5627 32.0399 24.6724 31.2426C24.7821 30.4453 25.0789 29.6793 25.5426 28.997C26.0062 28.3147 26.6256 27.7323 27.3583 27.29C28.091 26.8476 28.9196 26.5556 29.7871 26.4342C30.6547 26.3127 31.5407 26.3646 32.3843 26.5863C33.2279 26.808 34.0091 27.1943 34.6742 27.7186L36 25.7585C34.7402 24.822 33.2164 24.2315 31.6051 24.0554C29.9938 23.8793 28.361 24.1248 26.8959 24.7635C25.4307 25.4022 24.1932 26.4079 23.3267 27.6641C22.4602 28.9204 22.0002 30.3756 22 31.8614Z" fill="#418D98"/>
</g>
<rect x="0.5" y="0.5" width="60" height="60" rx="30" stroke="#2C9C44"/>
<defs>
<clipPath id="clip0_502_10426">
<rect width="61" height="61" rx="30.5" fill="white"/>
</clipPath>
</defs>
</svg>
