<svg width="26" height="26" viewBox="0 0 26 26" fill="none" xmlns="http://www.w3.org/2000/svg">
<ellipse cx="13" cy="20.3667" rx="13" ry="5.2" fill="#EEF3FB"/>
<path d="M18.6119 5.75874V6.53496L14.8986 4.38461C13.493 3.57692 11.5315 3.57692 10.1364 4.38461L6.4231 6.54545V5.75874C6.4231 3.3986 7.71331 2.0979 10.0734 2.0979H14.9616C17.3217 2.0979 18.6119 3.3986 18.6119 5.75874Z" fill="#003392"/>
<path d="M18.6434 8.36014L18.4966 8.28672L17.07 7.46853L14.112 5.75874C13.2099 5.23427 11.8252 5.23427 10.9231 5.75874L7.96511 7.45804L6.53853 8.29721L6.34972 8.39161C4.51406 9.62937 4.38818 9.86014 4.38818 11.8427V16.5839C4.38818 18.5664 4.51406 18.7972 6.39168 20.0664L10.9231 22.6783C11.3742 22.9511 11.9406 23.0664 12.5176 23.0664C13.084 23.0664 13.6609 22.9406 14.112 22.6783L18.6854 20.035C20.5315 18.7972 20.6469 18.5769 20.6469 16.5839V11.8427C20.6469 9.86014 20.5211 9.62937 18.6434 8.36014ZM15.4441 14.1608L14.8043 14.9476C14.6994 15.0629 14.6259 15.2832 14.6364 15.4406L14.6994 16.4476C14.7413 17.0664 14.3008 17.3811 13.7238 17.1608L12.7903 16.7832C12.6434 16.7308 12.4022 16.7308 12.2553 16.7832L11.3217 17.1504C10.7448 17.3811 10.3043 17.0559 10.3462 16.4371L10.4092 15.4301C10.4197 15.2727 10.3462 15.0524 10.2413 14.9371L9.59098 14.1608C9.19238 13.6888 9.3707 13.1643 9.9686 13.007L10.9441 12.7552C11.1015 12.7133 11.2798 12.5664 11.3637 12.4406L11.9092 11.6014C12.2448 11.0769 12.7798 11.0769 13.1259 11.6014L13.6714 12.4406C13.7553 12.5769 13.9441 12.7133 14.091 12.7552L15.0665 13.007C15.6644 13.1643 15.8427 13.6888 15.4441 14.1608Z" fill="#003392"/>
</svg>
