<svg width="53" height="52" viewBox="0 0 53 52" fill="none" xmlns="http://www.w3.org/2000/svg">
<rect x="0.5" width="52" height="52" rx="12" fill="url(#paint0_linear_2202_5285)"/>
<ellipse cx="26.5" cy="37" rx="17" ry="5" fill="#208D46"/>
<g filter="url(#filter0_d_2202_5285)">
<path d="M28.7763 29.1447H33.5132V25.5921L39.4342 30.9211L33.5132 36.25V32.6974H28.7763V29.1447ZM37.0658 13.75H18.1184C17.4903 13.75 16.8879 13.9995 16.4437 14.4437C15.9995 14.8879 15.75 15.4903 15.75 16.1184V30.3289C15.75 30.9571 15.9995 31.5595 16.4437 32.0037C16.8879 32.4478 17.4903 32.6974 18.1184 32.6974H26.8224C26.546 31.9384 26.4057 31.1367 26.4079 30.3289C26.4096 28.8032 26.9023 27.3186 27.8132 26.0947C28.7241 24.8707 30.0048 23.9725 31.4658 23.5329C32.9268 23.0933 34.4905 23.1356 35.9256 23.6536C37.3606 24.1716 38.5908 25.1378 39.4342 26.4092V16.1184C39.4342 15.4903 39.1847 14.8879 38.7405 14.4437C38.2964 13.9995 37.6939 13.75 37.0658 13.75V13.75ZM37.0658 18.4868L27.5921 24.4079L18.1184 18.4868V16.1184L27.5921 22.0395L37.0658 16.1184V18.4868Z" fill="white"/>
</g>
<defs>
<filter id="filter0_d_2202_5285" x="8" y="7" width="38" height="38" filterUnits="userSpaceOnUse" color-interpolation-filters="sRGB">
<feFlood flood-opacity="0" result="BackgroundImageFix"/>
<feColorMatrix in="SourceAlpha" type="matrix" values="0 0 0 0 0 0 0 0 0 0 0 0 0 0 0 0 0 0 127 0" result="hardAlpha"/>
<feOffset dy="1"/>
<feGaussianBlur stdDeviation="2"/>
<feComposite in2="hardAlpha" operator="out"/>
<feColorMatrix type="matrix" values="0 0 0 0 0 0 0 0 0 0 0 0 0 0 0 0 0 0 0.12 0"/>
<feBlend mode="normal" in2="BackgroundImageFix" result="effect1_dropShadow_2202_5285"/>
<feBlend mode="normal" in="SourceGraphic" in2="effect1_dropShadow_2202_5285" result="shape"/>
</filter>
<linearGradient id="paint0_linear_2202_5285" x1="39.1061" y1="-1.43785e-09" x2="12.0021" y2="51.348" gradientUnits="userSpaceOnUse">
<stop stop-color="#43BA7A"/>
<stop offset="1" stop-color="#1CA143"/>
</linearGradient>
</defs>
</svg>
