<svg width="26" height="26" viewBox="0 0 26 26" fill="none" xmlns="http://www.w3.org/2000/svg">
<ellipse cx="13" cy="20.3667" rx="13" ry="5.2" fill="#F3F5F9"/>
<g clip-path="url(#clip0_2203_1637)">
<path d="M15.4825 12.7442C15.0249 12.7442 14.655 13.115 14.655 13.5718V16.8819C14.655 17.3379 14.2842 17.7095 13.8274 17.7095H11.3448V5.2963C11.3448 4.58958 10.8946 3.95816 10.2177 3.72313L9.97273 3.64121H13.8274C14.2842 3.64121 14.655 4.01278 14.655 4.46875V6.95139C14.655 7.4082 15.0249 7.77894 15.4825 7.77894C15.9402 7.77894 16.3101 7.4082 16.3101 6.95139V4.46875C16.3101 3.09999 15.1962 1.98611 13.8274 1.98611H4.93132C4.89987 1.98611 4.87339 2.00018 4.84277 2.00432C4.80305 2.00101 4.76498 1.98611 4.72443 1.98611C3.81164 1.98611 3.06934 2.72842 3.06934 3.64121V18.537C3.06934 19.2438 3.51952 19.8752 4.19645 20.1102L9.17663 21.7703C9.34545 21.8224 9.51344 21.8472 9.68971 21.8472C10.6025 21.8472 11.3448 21.1049 11.3448 20.1921V19.3646H13.8274C15.1962 19.3646 16.3101 18.2507 16.3101 16.8819V13.5718C16.3101 13.115 15.9402 12.7442 15.4825 12.7442Z" fill="#879ABF"/>
<path d="M22.688 9.67656L19.3778 6.36638C19.1411 6.1297 18.7852 6.05853 18.4757 6.1868C18.1671 6.31507 17.9651 6.61712 17.9651 6.95145V9.43409H14.6549C14.1981 9.43409 13.8274 9.80483 13.8274 10.2616C13.8274 10.7184 14.1981 11.0892 14.6549 11.0892H17.9651V13.5718C17.9651 13.9062 18.1671 14.2082 18.4757 14.3365C18.7852 14.4647 19.1411 14.3936 19.3778 14.1569L22.688 10.8467C23.0115 10.5231 23.0115 10.0001 22.688 9.67656Z" fill="#879ABF"/>
</g>
<defs>
<clipPath id="clip0_2203_1637">
<rect width="19.8611" height="19.8611" fill="white" transform="translate(3.06934 1.98611)"/>
</clipPath>
</defs>
</svg>
