<svg width="52" height="52" viewBox="0 0 52 52" fill="none" xmlns="http://www.w3.org/2000/svg">
<rect width="52" height="52" rx="12" fill="url(#paint0_linear_4202_9225)"/>
<ellipse cx="26" cy="38" rx="17" ry="5" fill="#235EB5"/>
<path d="M24.128 6.22678C19.8255 7.19445 16.5855 9.97816 14.7622 14.2995C14.513 14.8828 14.0145 15.8372 13.6473 16.4337C12.9389 17.587 12.8865 17.7593 13.1357 18.0111C13.503 18.3823 13.8834 18.1967 14.4212 17.3484C14.7098 16.9109 14.9459 16.4867 14.9459 16.4205C14.9459 16.1553 15.2082 16.4867 15.6673 17.3218C16.1133 18.1304 16.1789 18.1835 16.5593 18.1437C17.1889 18.0774 17.1627 17.6798 16.4675 16.4602C16.1002 15.8505 15.8641 15.2672 15.8641 15.0286C15.8641 14.4321 16.9135 12.404 17.7399 11.4098C19.9698 8.71886 23.1311 7.16794 26.4236 7.16794C30.831 7.16794 35.1203 10.0577 36.865 14.1935C37.4946 15.7046 37.6782 16.7121 37.6651 18.6607C37.652 19.9995 37.6913 20.4369 37.8356 20.5562C38.098 20.7816 38.5571 20.596 38.7014 20.1983C38.885 19.6814 38.8457 17.2025 38.6096 16.0758C37.8356 12.2582 35.081 8.78514 31.5524 7.16794C29.1651 6.06771 26.3842 5.72306 24.128 6.22678ZM15.3787 14.7105C15.3263 15.0551 15.3919 15.413 15.5755 15.8372C15.7329 16.1686 15.7985 16.447 15.7198 16.447C15.6542 16.447 15.6017 16.3939 15.6017 16.3144C15.6017 16.0626 14.9721 16.0228 14.6048 16.2614C14.4081 16.3939 14.2769 16.447 14.3031 16.3807C14.6179 15.7046 15.3787 14.1935 15.405 14.1935C15.4312 14.1935 15.4181 14.4188 15.3787 14.7105Z" fill="white"/>
<path d="M24.6921 8.67909C23.3279 9.12979 22.2654 10.0842 21.6489 11.3965C21.3472 12.0461 21.3078 12.3112 21.3078 13.4644C21.3078 14.6839 21.3472 14.8695 21.7276 15.6914C22.2654 16.8314 23.0655 17.8786 24.7708 19.6681L26.135 21.0997L26.7253 20.5297C27.591 19.6681 29.4012 17.5472 30.0177 16.6458C31.946 13.8488 31.1196 10.2698 28.2206 8.9177C27.3155 8.50677 25.5841 8.38747 24.6921 8.67909ZM27.6828 9.23583C28.378 9.46118 28.706 9.68653 29.4537 10.4554C30.2801 11.2905 30.5949 12.2449 30.5293 13.6633C30.4637 14.8828 30.2014 15.5853 29.4012 16.6988C28.5355 17.9051 26.3842 20.2911 26.1743 20.2911C25.7415 20.2911 22.8556 16.8977 22.2785 15.7046C21.8587 14.843 21.8325 14.7237 21.8325 13.3981C21.8325 12.0991 21.8587 11.9533 22.226 11.2905C23.2885 9.35514 25.4922 8.52002 27.6828 9.23583Z" fill="white"/>
<path d="M24.8888 9.75286C23.8132 10.1638 23.1049 10.8398 22.5933 11.9268C22.3047 12.5366 22.2654 12.7619 22.3178 13.6501C22.4097 15.2407 23.1836 16.3542 24.7052 17.0568C25.3611 17.3617 25.5972 17.4014 26.3055 17.3352C28.5223 17.1628 30.162 15.3203 29.9915 13.1994C29.8865 11.8473 29.1651 10.7205 27.8927 9.96496C27.2631 9.58054 25.6234 9.47449 24.8888 9.75286ZM27.5648 10.3229C27.7615 10.4024 28.1551 10.6808 28.4436 10.9459C30.1882 12.5498 29.7816 15.4263 27.6435 16.5C25.7939 17.4279 23.459 16.4073 22.8819 14.4056C22.6326 13.5838 22.6326 13.3452 22.895 12.4835C23.118 11.7147 23.905 10.7338 24.574 10.3891C25.3479 9.97821 26.6466 9.9517 27.5648 10.3229Z" fill="white"/>
<path d="M25.243 11.4628C23.4197 12.3112 23.6427 14.9491 25.5709 15.5323C26.253 15.7444 26.9351 15.5853 27.4992 15.0816C28.6141 14.0874 28.5617 12.51 27.3942 11.6616C26.8827 11.2905 25.807 11.1977 25.243 11.4628ZM25.5709 12.0593C25.5709 12.1388 25.5185 12.2316 25.4398 12.2714C25.3742 12.3112 25.3086 12.6028 25.3086 12.9209C25.3086 14.0874 26.5285 14.5514 27.3024 13.6765C27.5123 13.4379 27.7222 13.2656 27.7484 13.3053C27.7878 13.3451 27.7746 13.5837 27.7353 13.8488C27.6303 14.3658 27.0794 14.9358 26.5416 15.0684C25.3873 15.36 24.233 14.2067 24.5478 13.0535C24.7052 12.4305 25.5709 11.5954 25.5709 12.0593ZM26.9089 12.4305C27.4074 12.8812 27.0663 13.6633 26.3711 13.6633C25.9251 13.6633 25.7021 13.4379 25.7021 13.0137C25.7021 12.3244 26.4104 11.9798 26.9089 12.4305Z" fill="white"/>
<path d="M31.0408 17.3351L30.6867 17.9316L30.949 18.3691C31.3294 18.9921 31.4212 19.9597 31.1589 20.6888C31.0408 21.0202 30.949 21.3118 30.949 21.3516C30.949 21.3914 31.2376 21.4179 31.5787 21.4179C32.4182 21.4179 33.074 21.8686 33.5069 22.7302C34.0185 23.7641 33.8873 24.8246 33.1527 25.673C32.3919 26.5479 32.5493 26.5213 26.7515 26.5213C20.9405 26.5213 20.9536 26.5213 20.4551 25.6862C20.219 25.3018 20.1928 25.0102 20.1928 22.7435C20.1928 20.4767 20.219 20.1851 20.4551 19.8007C20.77 19.2837 21.3996 18.9258 22.0423 18.9258H22.5277L22.1079 18.3558C21.6619 17.7328 21.4652 17.6798 20.7437 17.9846C20.1272 18.2365 19.5894 18.7535 19.2352 19.4295C18.9598 19.92 18.9467 20.1453 18.9467 22.7435C18.9467 25.3548 18.9598 25.5669 19.2352 26.0706C19.5894 26.7467 20.2846 27.3697 20.9405 27.5951C21.334 27.7409 22.6195 27.7806 26.8171 27.7806C32.1689 27.7806 32.1952 27.7806 32.8117 27.4758C33.5331 27.1179 34.412 26.1899 34.7662 25.4211C35.1072 24.6655 35.1072 23.0881 34.7662 22.3325C34.4251 21.5769 33.6905 20.7816 33.0478 20.49L32.5231 20.2514V19.4428C32.5231 18.833 32.4313 18.4353 32.1558 17.8388C31.6049 16.6723 31.4868 16.6193 31.0408 17.3351ZM31.8148 18.2365C32.0246 18.7535 32.064 19.4163 31.8672 19.297C31.8017 19.2572 31.6836 18.9788 31.6049 18.6872C31.5262 18.3956 31.4212 18.0642 31.3819 17.9581C31.2245 17.5472 31.6311 17.7991 31.8148 18.2365ZM20.6126 18.9125C19.7206 19.6681 19.6419 19.9863 19.655 22.77C19.655 25.4079 19.7075 25.62 20.4551 26.3888C20.8749 26.8262 21.3471 27.0516 21.8456 27.0516C22.0161 27.0516 22.1604 27.1046 22.1604 27.1709C22.1604 27.3962 21.2028 27.1709 20.6519 26.813C20.3502 26.6406 19.9698 26.2695 19.7993 26.0044C19.4713 25.5404 19.4713 25.4741 19.4713 22.8097C19.4713 19.7609 19.5501 19.4428 20.442 18.7667C21.1241 18.263 21.2553 18.3691 20.6126 18.9125ZM32.3657 20.5828C32.5493 20.7949 32.7592 20.9539 32.8248 20.9539C33.1265 20.9539 33.8086 21.6432 34.1365 22.2662C35.0285 24.016 34.2808 26.3093 32.5887 26.9853L32.064 27.1841L32.4575 26.8925C33.1396 26.3623 33.9004 25.5404 34.0841 25.1295C34.3464 24.5595 34.3727 23.4062 34.1497 22.8628C33.8611 22.1602 32.9953 21.2853 32.3263 21.0335C31.7229 20.7949 31.6836 20.7286 31.8279 20.1586C31.8804 19.9465 31.9328 19.9067 31.9722 20.026C31.9984 20.1321 32.1821 20.3839 32.3657 20.5828ZM23.564 27.2106C23.1967 27.3034 23.013 27.3034 22.9081 27.1974C22.8032 27.0913 22.9343 27.0516 23.4197 27.0648L24.0624 27.0781L23.564 27.2106Z" fill="white"/>
<path d="M14.4737 18.3558C14.2507 18.5281 14.2244 18.7005 14.2507 20.1188C14.3031 23.2207 15.3656 25.8188 17.5694 28.1518C19.1041 29.7823 20.665 30.7764 23.0918 31.6248C23.8394 31.8899 24.797 32.3009 25.2168 32.5527C26.0825 33.0697 26.5416 33.136 26.7384 32.7648C26.9089 32.4467 26.5416 31.9297 25.9645 31.6911C25.7546 31.5983 25.5709 31.4923 25.5709 31.4392C25.5709 31.3862 25.7939 31.2404 26.0563 31.0946C27.1319 30.5113 27.4992 29.9811 27.1188 29.5967C26.8564 29.3316 26.5547 29.4111 25.5578 30.0341C24.4297 30.7367 24.128 30.7632 22.7901 30.286C20.7569 29.5569 18.5663 27.8999 17.3857 26.2032C16.0215 24.2811 15.4837 22.6242 15.3788 20.1586C15.3263 18.8595 15.2738 18.4619 15.1033 18.3293C14.8409 18.1305 14.7885 18.1305 14.4737 18.3558ZM25.5316 30.9223C25.1905 31.3862 25.2036 31.6513 25.5447 31.9164C25.8595 32.1683 25.4529 32.1418 25.0987 31.8899C24.9413 31.7839 24.5347 31.585 24.1805 31.4392L23.5377 31.1741L24.0624 31.1609C24.351 31.1609 24.8495 31.0018 25.1774 30.8295C25.5053 30.6571 25.7808 30.5113 25.807 30.4981C25.8333 30.4981 25.7021 30.6969 25.5316 30.9223Z" fill="white"/>
<path d="M21.5045 20.0526C21.1241 20.1984 21.0454 20.5298 21.3078 20.8214C21.4914 21.0335 21.7144 21.0865 22.3834 21.0865H23.2098V22.8098V24.533H22.3703C21.5177 24.533 21.111 24.7186 21.111 25.1163C21.111 25.5007 21.5045 25.6332 22.5277 25.6067C23.4197 25.5802 23.5771 25.5404 23.905 25.2356L24.2592 24.8777V22.9026C24.2592 20.8612 24.1936 20.543 23.6951 20.2647C23.341 20.0658 21.8587 19.92 21.5045 20.0526Z" fill="white"/>
<path d="M36.1697 20.8347C35.8025 21.0468 35.8943 21.4842 36.4583 22.3458C37.1535 23.4063 37.206 23.7112 36.8125 24.586C35.7238 26.9853 33.4676 29.0532 30.7785 30.1004C29.939 30.4318 29.1651 30.6174 27.5779 30.8427C27.0663 30.9223 26.804 31.3067 27.0007 31.6779C27.2106 32.0623 27.4598 32.102 28.6666 31.8767C31.054 31.4658 33.4807 30.2595 35.1728 28.6556C36.3796 27.5156 37.0748 26.5744 38.0586 24.7318C38.4522 24.0028 39.0556 22.9688 39.3835 22.4386C39.7245 21.9084 40 21.4047 40 21.2986C40 21.0335 39.5147 20.6491 39.2786 20.7419C39.1736 20.7816 38.8326 21.2058 38.544 21.683C38.2423 22.1602 37.9668 22.5447 37.9143 22.5447C37.875 22.5447 37.6651 22.2398 37.4552 21.8686C37.0748 21.1793 36.6682 20.6888 36.4977 20.6888C36.4321 20.6888 36.2878 20.7551 36.1697 20.8347ZM38.6096 22.7965C38.544 22.8363 38.3472 23.1677 38.1636 23.5123C37.6782 24.4535 37.5077 24.5595 37.5077 23.8967C37.5077 23.6051 37.4421 23.1942 37.3765 22.9953C37.206 22.5447 37.2978 22.4386 37.6126 22.717C37.9275 23.0086 38.0718 22.9953 38.3735 22.664C38.5309 22.4916 38.6358 22.4519 38.662 22.5447C38.7014 22.6374 38.6752 22.7435 38.6096 22.7965Z" fill="white"/>
<defs>
<linearGradient id="paint0_linear_4202_9225" x1="26" y1="0" x2="26" y2="52" gradientUnits="userSpaceOnUse">
<stop stop-color="#6C98DB"/>
<stop offset="1" stop-color="#376DAC"/>
</linearGradient>
</defs>
</svg>
