<svg width="26" height="26" viewBox="0 0 26 26" fill="none" xmlns="http://www.w3.org/2000/svg">
<ellipse cx="13" cy="20.3667" rx="13" ry="5.2" fill="#F0F4FF"/>
<path d="M22.9006 2.31381C22.1856 1.4995 21.123 0.993042 19.9512 0.993042C18.839 0.993042 17.8261 1.44985 17.1012 2.19464C16.6841 2.62165 16.3663 3.13804 16.1776 3.71401C16.0485 4.11124 15.979 4.52832 15.979 4.96526C15.979 5.71006 16.1875 6.41513 16.555 7.01096C16.7536 7.3486 17.0118 7.65644 17.3097 7.91464C18.0048 8.55019 18.9284 8.93749 19.9512 8.93749C20.3882 8.93749 20.8053 8.86797 21.1925 8.72894C22.1062 8.44096 22.8708 7.81533 23.3475 7.01096C23.556 6.67332 23.7149 6.28603 23.8043 5.88881C23.8837 5.59089 23.9234 5.28304 23.9234 4.96526C23.9234 3.95235 23.5362 3.01888 22.9006 2.31381ZM21.4309 5.69019H20.696V6.46478C20.696 6.87193 20.3584 7.20957 19.9512 7.20957C19.5441 7.20957 19.2064 6.87193 19.2064 6.46478V5.69019H18.4716C18.0644 5.69019 17.7268 5.35256 17.7268 4.9454C17.7268 4.53825 18.0644 4.20061 18.4716 4.20061H19.2064V3.49554C19.2064 3.08839 19.5441 2.75075 19.9512 2.75075C20.3584 2.75075 20.696 3.08839 20.696 3.49554V4.20061H21.4309C21.838 4.20061 22.1757 4.53825 22.1757 4.9454C22.1757 5.35256 21.848 5.69019 21.4309 5.69019Z" fill="#466FFF"/>
<path d="M22.9304 11.9166C22.9304 10.6157 22.6822 9.36449 22.2154 8.22247C21.9076 8.44095 21.56 8.60977 21.1926 8.72893C21.0834 8.76865 20.9741 8.79845 20.855 8.82824C21.2323 9.78157 21.4409 10.8243 21.4409 11.9166C21.4409 14.2205 20.5074 16.3159 18.9979 17.8452C18.71 17.4778 18.3425 17.1401 17.9056 16.8521C15.2144 15.0448 10.8052 15.0448 8.0942 16.8521C7.65725 17.1401 7.29975 17.4778 7.00184 17.8452C5.49239 16.3159 4.55892 14.2205 4.55892 11.9166C4.55892 7.25921 8.34246 3.47567 12.9999 3.47567C14.0823 3.47567 15.125 3.68421 16.0784 4.06157C16.1082 3.9424 16.1379 3.83317 16.1777 3.714C16.2968 3.34657 16.4657 3.00893 16.6941 2.70108C15.552 2.23435 14.3008 1.98608 12.9999 1.98608C7.52816 1.98608 3.06934 6.4449 3.06934 11.9166C3.06934 14.7965 4.31066 17.3884 6.27691 19.2057C6.27691 19.2156 6.27691 19.2156 6.26697 19.2255C6.36628 19.3248 6.48545 19.4043 6.58475 19.4937C6.64434 19.5433 6.69399 19.593 6.75357 19.6327C6.93232 19.7816 7.13093 19.9207 7.31961 20.0597C7.38913 20.1094 7.44871 20.1491 7.51822 20.1987C7.70691 20.3278 7.90552 20.447 8.11406 20.5562C8.18357 20.5959 8.26302 20.6456 8.33253 20.6853C8.53114 20.7946 8.73968 20.8939 8.95816 20.9832C9.0376 21.023 9.11704 21.0627 9.19649 21.0925C9.41496 21.1818 9.63343 21.2613 9.85191 21.3308C9.93135 21.3606 10.0108 21.3904 10.0902 21.4103C10.3286 21.4798 10.5669 21.5393 10.8052 21.5989C10.8748 21.6188 10.9443 21.6387 11.0237 21.6486C11.3018 21.7082 11.5798 21.7479 11.8678 21.7777C11.9075 21.7777 11.9473 21.7876 11.987 21.7975C12.3246 21.8273 12.6623 21.8472 12.9999 21.8472C13.3375 21.8472 13.6752 21.8273 14.0029 21.7975C14.0426 21.7975 14.0823 21.7876 14.122 21.7777C14.41 21.7479 14.6881 21.7082 14.9661 21.6486C15.0357 21.6387 15.1052 21.6089 15.1846 21.5989C15.4229 21.5393 15.6712 21.4897 15.8996 21.4103C15.9791 21.3805 16.0585 21.3507 16.1379 21.3308C16.3564 21.2514 16.5848 21.1818 16.7934 21.0925C16.8728 21.0627 16.9523 21.023 17.0317 20.9832C17.2402 20.8939 17.4488 20.7946 17.6573 20.6853C17.7368 20.6456 17.8063 20.5959 17.8758 20.5562C18.0744 20.4371 18.273 20.3278 18.4716 20.1987C18.5411 20.159 18.6007 20.1094 18.6702 20.0597C18.8688 19.9207 19.0575 19.7816 19.2363 19.6327C19.2959 19.583 19.3455 19.5334 19.4051 19.4937C19.5143 19.4043 19.6236 19.3149 19.7229 19.2255C19.7229 19.2156 19.7229 19.2156 19.7129 19.2057C21.6891 17.3884 22.9304 14.7965 22.9304 11.9166Z" fill="#466FFF"/>
<path d="M12.9998 6.8819C10.9442 6.8819 9.27588 8.55023 9.27588 10.6059C9.27588 12.6218 10.8548 14.2603 12.9502 14.3199C12.98 14.3199 13.0197 14.3199 13.0396 14.3199C13.0594 14.3199 13.0892 14.3199 13.1091 14.3199C13.119 14.3199 13.1289 14.3199 13.1289 14.3199C15.1349 14.2504 16.7139 12.6218 16.7238 10.6059C16.7238 8.55023 15.0555 6.8819 12.9998 6.8819Z" fill="#466FFF"/>
</svg>
