<svg width="24" height="20" viewBox="0 0 24 20" fill="none" xmlns="http://www.w3.org/2000/svg">
<path d="M23.7901 0.432391C23.6999 0.284381 23.5694 0.165182 23.4138 0.0888118C23.2583 0.0124318 23.0841 -0.0179289 22.9119 0.00127113L1.7302 2.29919C1.54688 2.32169 1.37473 2.39929 1.23661 2.52199C1.09849 2.64459 1.00093 2.80629 0.956899 2.98559C0.912879 3.16499 0.924459 3.35349 0.990109 3.52619C1.05576 3.69879 1.17238 3.84729 1.32447 3.95209L8.17302 8.84769L15.1569 4.60159L16.0973 6.15389L9.08472 10.4023L10.2616 18.7414C10.2867 18.9219 10.3655 19.0908 10.4877 19.226C10.6099 19.3613 10.7698 19.4567 10.9469 19.5C11.1264 19.5402 11.3139 19.5251 11.4847 19.4565C11.6554 19.388 11.8014 19.2694 11.9033 19.1163L23.7479 1.40609C23.8465 1.26449 23.9028 1.09769 23.9103 0.925351C23.9178 0.752961 23.8761 0.581991 23.7901 0.432391Z" fill="#003392"/>
</svg>
