<svg width="20" height="20" viewBox="0 0 20 20" fill="none" xmlns="http://www.w3.org/2000/svg">
<path d="M5.52204 4.55146C5.23361 4.26279 4.76564 4.26279 4.4772 4.55146C3.40626 5.6224 2.8799 7.11427 3.03286 8.64482C3.07103 9.02611 3.39224 9.31033 3.76736 9.31033C3.79201 9.31033 3.81685 9.30908 3.8415 9.30661C4.24767 9.26599 4.54396 8.90365 4.50333 8.49775C4.39447 7.41005 4.76591 6.35244 5.52204 5.59627C5.81072 5.30787 5.81072 4.83986 5.52204 4.55146Z" fill="#637392"/>
<path d="M8.44828 0C3.78988 0 0 3.78988 0 8.44827C0 13.1067 3.78988 16.8965 8.44828 16.8965C13.1067 16.8965 16.8966 13.1067 16.8966 8.44827C16.8966 3.78988 13.1066 0 8.44828 0ZM8.44828 15.4187C4.60469 15.4187 1.47785 12.2919 1.47785 8.44827C1.47785 4.60468 4.60469 1.47785 8.44828 1.47785C12.2916 1.47785 15.4187 4.60468 15.4187 8.44827C15.4187 12.2919 12.2919 15.4187 8.44828 15.4187Z" fill="#637392"/>
<path d="M19.7837 18.7385L14.4142 13.3691C14.1255 13.0804 13.658 13.0804 13.3693 13.3691C13.0807 13.6575 13.0807 14.1255 13.3693 14.4139L18.7388 19.7834C18.8832 19.9277 19.0721 19.9998 19.2612 19.9998C19.4504 19.9998 19.6393 19.9277 19.7837 19.7834C20.0723 19.4949 20.0723 19.027 19.7837 18.7385Z" fill="#637392"/>
</svg>
