<svg width="16" height="17" viewBox="0 0 16 17" fill="none" xmlns="http://www.w3.org/2000/svg">
<path d="M8 16.8051C12.4183 16.8051 16 15.4475 16 13.7727C16 12.0979 12.4183 10.7402 8 10.7402C3.58172 10.7402 0 12.0979 0 13.7727C0 15.4475 3.58172 16.8051 8 16.8051Z" fill="#EEF3FB"/>
<path d="M8.00016 1.26343C4.32016 1.26343 1.3335 4.09371 1.3335 7.58103C1.3335 11.0683 4.32016 13.8986 8.00016 13.8986C11.6802 13.8986 14.6668 11.0683 14.6668 7.58103C14.6668 4.09371 11.6802 1.26343 8.00016 1.26343ZM8.00016 9.16043C7.08016 9.16043 6.3335 8.45286 6.3335 7.58103C6.3335 6.7092 7.08016 6.00163 8.00016 6.00163C8.92016 6.00163 9.66683 6.7092 9.66683 7.58103C9.66683 8.45286 8.92016 9.16043 8.00016 9.16043Z" fill="#003392"/>
</svg>
