<svg width="18" height="18" viewBox="0 0 18 18" fill="none" xmlns="http://www.w3.org/2000/svg">
<g clip-path="url(#clip0_502_9076)">
<path d="M8.99996 0.666626C4.39803 0.666626 0.666626 4.39803 0.666626 8.99996C0.666626 13.6019 4.39803 17.3333 8.99996 17.3333C13.6019 17.3333 17.3333 13.6019 17.3333 8.99996C17.3333 4.39803 13.6019 0.666626 8.99996 0.666626ZM8.99996 15.9196C5.17928 15.9196 2.08032 12.8206 2.08032 8.99996C2.08032 5.17928 5.17928 2.08032 8.99996 2.08032C12.8206 2.08032 15.9196 5.17928 15.9196 8.99996C15.9196 12.8206 12.8206 15.9196 8.99996 15.9196Z" fill="#637392"/>
<path d="M12.2495 11.355L9.597 9.43718V4.83338C9.597 4.75153 9.53004 4.68457 9.44819 4.68457H8.55347C8.47163 4.68457 8.40466 4.75153 8.40466 4.83338V9.95615C8.40466 10.0045 8.42698 10.0492 8.46605 10.0771L11.5427 12.3204C11.6096 12.3687 11.7027 12.3538 11.751 12.2887L12.283 11.5633C12.3314 11.4945 12.3165 11.4015 12.2495 11.355Z" fill="#637392"/>
</g>
<defs>
<clipPath id="clip0_502_9076">
<rect width="18" height="18" fill="white"/>
</clipPath>
</defs>
</svg>
