<svg width="32" height="32" viewBox="0 0 32 32" fill="none" xmlns="http://www.w3.org/2000/svg">
<path d="M24.9315 3.17229C19.8733 -0.188668 12.569 -0.147487 7.51132 3.16972C7.14876 3.40751 7.04368 3.90032 7.27662 4.27044C7.50956 4.64056 7.99232 4.74783 8.35488 4.51003C12.9001 1.52891 19.5412 1.49147 24.0801 4.50746C24.4413 4.74745 24.9247 4.64311 25.1598 4.27441C25.3948 3.90571 25.2926 3.41227 24.9315 3.17229Z" fill="#007F3E"/>
<path d="M28.8588 11.2851C26.287 7.22458 21.6826 4.65527 16.7585 4.43553C11.5423 4.20274 6.6612 6.59616 3.4704 11.342C3.22654 11.7047 3.31688 12.2006 3.67219 12.4495C4.0275 12.6984 4.51322 12.6062 4.75709 12.2435C7.638 7.95856 12.0035 5.81795 16.6904 6.02711C21.1206 6.22482 25.2574 8.53321 27.5483 12.1501C27.7823 12.5195 28.2653 12.6254 28.6272 12.3865C28.9891 12.1477 29.0928 11.6545 28.8588 11.2851Z" fill="#007F3E"/>
<path d="M6.91054 25.4398C5.43469 20.612 5.96571 16.5814 8.10576 13.6955C9.98303 11.164 13.0205 9.69907 16.1584 9.69907C22.0737 9.69907 26.4279 14.5599 26.4279 20.0203C26.4279 21.6587 25.1267 22.9869 23.5215 22.9869C21.9145 22.9869 20.6074 21.6566 20.6074 20.0203H19.8271H19.0468V20.131H19.8271H20.6074C20.6074 17.6128 18.6074 15.5712 16.1405 15.5712C13.7125 15.5712 11.7989 17.5636 11.6748 20.0911C11.5945 21.7259 12.1177 23.914 13.2144 25.8302C14.653 28.3438 16.9426 30.2548 20.1064 31.246C20.5183 31.3751 20.9548 31.1388 21.0813 30.7183C21.2077 30.2977 20.9763 29.8521 20.5643 29.7231C17.7835 28.8518 15.807 27.2022 14.5618 25.0265C13.6181 23.3776 13.1683 21.4964 13.2334 20.1708C13.317 18.4677 14.5689 17.1644 16.1405 17.1644C17.7455 17.1644 19.0468 18.4927 19.0468 20.131C19.0468 21.193 20.6074 21.193 20.6074 20.131V20.0203C20.6074 18.9582 19.0468 18.9582 19.0468 20.0203C19.0468 22.5375 21.0537 24.58 23.5215 24.58C25.9886 24.58 27.9885 22.5386 27.9885 20.0203C27.9885 13.7103 22.9683 8.10596 16.1584 8.10596C12.5428 8.10596 9.04101 9.79487 6.86149 12.734C4.40258 16.0498 3.80103 20.6158 5.42081 25.9144C5.54919 26.3343 5.98674 26.5685 6.39812 26.4375C6.8095 26.3064 7.03892 25.8598 6.91054 25.4398Z" fill="#007F3E"/>
<path d="M13.5121 29.5472C11.7892 28.0442 10.2311 24.9915 9.79332 22.0478C9.29042 18.6664 10.2499 15.9182 12.8003 14.376C17.3537 11.6225 22.6765 14.9547 22.6765 20.2243C22.6765 20.6642 23.0258 21.0208 23.4568 21.0208C23.8877 21.0208 24.237 20.6642 24.237 20.2243C24.237 13.7482 17.6233 9.6078 12.0049 13.0053C8.8467 14.9151 7.65968 18.315 8.25041 22.2869C8.74244 25.5951 10.4783 28.9962 12.4983 30.7583C12.8259 31.0441 13.3185 31.0047 13.5984 30.6702C13.8784 30.3358 13.8398 29.833 13.5121 29.5472Z" fill="#007F3E"/>
<path d="M15.3916 19.9741C15.3269 22.1419 16.3647 24.8188 18.1574 26.3674C19.7806 27.7693 22.1411 28.3137 25.0707 27.9567C25.4986 27.9045 25.8041 27.5081 25.753 27.0713C25.7019 26.6345 25.3136 26.3226 24.8857 26.3748C22.3546 26.6832 20.4237 26.2379 19.1654 25.1512C17.7559 23.9336 16.9006 21.7274 16.9515 20.0226C16.9646 19.5829 16.626 19.2156 16.1953 19.2022C15.7645 19.1888 15.4047 19.5344 15.3916 19.9741Z" fill="#007F3E"/>
</svg>
