<svg width="53" height="52" viewBox="0 0 53 52" fill="none" xmlns="http://www.w3.org/2000/svg">
<rect x="0.5" width="52" height="52" rx="12" fill="url(#paint0_linear_2202_4314)"/>
<ellipse cx="26.5" cy="37" rx="17" ry="5" fill="#4D2CC0"/>
<g filter="url(#filter0_d_2202_4314)">
<g clip-path="url(#clip0_2202_4314)">
<path d="M36.7639 20.8598C36.2824 20.3779 35.517 20.3477 34.9994 20.7694C34.9246 20.8304 34.9825 20.7767 33.8429 21.9163L36.8011 24.8746L37.8643 23.8247C38.3783 23.3106 38.3783 22.4743 37.8643 21.9602L36.7639 20.8598Z" fill="white"/>
<path d="M27.7767 28.0387L26.0366 31.7676C25.9194 32.0189 25.9718 32.3165 26.1678 32.5125C26.3638 32.7085 26.6616 32.7609 26.9127 32.6437L30.6416 30.9035C30.7891 30.8347 30.3425 31.2527 35.8633 25.8009L32.9109 22.8484C27.4372 28.3222 27.847 27.8883 27.7767 28.0387V28.0387Z" fill="white"/>
<path d="M31.752 31.7136C31.5905 31.873 31.4045 32.0024 31.1989 32.0983L27.47 33.8385C26.7367 34.1807 25.8409 34.0504 25.2355 33.4448C24.6496 32.859 24.4914 31.961 24.8417 31.2102L26.5819 27.4812C26.6796 27.2718 26.8121 27.0827 26.9755 26.9192L32.5815 21.3133V15.7275C32.5815 14.6371 31.6944 13.75 30.6039 13.75H17.728C16.6376 13.75 15.7504 14.6371 15.7504 15.7275V34.2725C15.7504 35.3629 16.6376 36.25 17.728 36.25H30.6039C31.6944 36.25 32.5815 35.3629 32.5815 34.2725V30.8943L31.752 31.7136ZM19.2661 18.0127H29.1098C29.4739 18.0127 29.769 18.3078 29.769 18.6719C29.769 19.0359 29.4739 19.3311 29.1098 19.3311H19.2661C18.9021 19.3311 18.6069 19.0359 18.6069 18.6719C18.6069 18.3078 18.9021 18.0127 19.2661 18.0127ZM19.2661 21.5283H27.0005C27.3645 21.5283 27.6596 21.8235 27.6596 22.1875C27.6596 22.5515 27.3645 22.8467 27.0005 22.8467H19.2661C18.9021 22.8467 18.6069 22.5515 18.6069 22.1875C18.6069 21.8235 18.9021 21.5283 19.2661 21.5283ZM18.6069 25.7031C18.6069 25.3391 18.9021 25.0439 19.2661 25.0439H24.8911C25.2551 25.0439 25.5503 25.3391 25.5503 25.7031C25.5503 26.0672 25.2551 26.3623 24.8911 26.3623H19.2661C18.9021 26.3623 18.6069 26.0672 18.6069 25.7031Z" fill="white"/>
</g>
</g>
<defs>
<filter id="filter0_d_2202_4314" x="8" y="7" width="38" height="38" filterUnits="userSpaceOnUse" color-interpolation-filters="sRGB">
<feFlood flood-opacity="0" result="BackgroundImageFix"/>
<feColorMatrix in="SourceAlpha" type="matrix" values="0 0 0 0 0 0 0 0 0 0 0 0 0 0 0 0 0 0 127 0" result="hardAlpha"/>
<feOffset dy="1"/>
<feGaussianBlur stdDeviation="2"/>
<feComposite in2="hardAlpha" operator="out"/>
<feColorMatrix type="matrix" values="0 0 0 0 0 0 0 0 0 0 0 0 0 0 0 0 0 0 0.12 0"/>
<feBlend mode="normal" in2="BackgroundImageFix" result="effect1_dropShadow_2202_4314"/>
<feBlend mode="normal" in="SourceGraphic" in2="effect1_dropShadow_2202_4314" result="shape"/>
</filter>
<linearGradient id="paint0_linear_2202_4314" x1="39.1061" y1="-1.43785e-09" x2="12.0021" y2="51.348" gradientUnits="userSpaceOnUse">
<stop stop-color="#846CDB"/>
<stop offset="1" stop-color="#5836D4"/>
</linearGradient>
<clipPath id="clip0_2202_4314">
<rect width="22.5" height="22.5" fill="white" transform="translate(15.75 13.75)"/>
</clipPath>
</defs>
</svg>
