<svg width="25" height="24" viewBox="0 0 25 24" fill="none" xmlns="http://www.w3.org/2000/svg">
<path d="M20.074 15.8085C19.9999 15.7192 19.9271 15.6299 19.8557 15.5437C18.8735 14.3558 18.2793 13.6388 18.2793 10.2759C18.2793 8.53482 17.8628 7.10625 17.0418 6.03482C16.4365 5.2433 15.6182 4.64286 14.5396 4.19911C14.5257 4.19139 14.5133 4.18126 14.503 4.1692C14.115 2.87009 13.0534 2 11.8561 2C10.6588 2 9.59763 2.87009 9.20968 4.16786C9.19933 4.17948 9.18711 4.18928 9.17352 4.19687C6.65656 5.23304 5.43334 7.22098 5.43334 10.2746C5.43334 13.6388 4.84004 14.3558 3.85701 15.5424C3.78558 15.6286 3.71281 15.7161 3.6387 15.8071C3.44727 16.038 3.32599 16.3189 3.2892 16.6165C3.25241 16.9141 3.30166 17.2161 3.43111 17.4866C3.70656 18.067 4.29361 18.4272 4.9637 18.4272H18.7534C19.4204 18.4272 20.0034 18.0674 20.2798 17.4897C20.4098 17.2191 20.4595 16.917 20.423 16.619C20.3865 16.321 20.2654 16.0397 20.074 15.8085Z" fill="#D5DAD9"/>
<path d="M11.8563 21.9998C12.5014 21.9993 13.1344 21.8242 13.688 21.493C14.2416 21.1619 14.6953 20.6871 15.001 20.119C15.0154 20.0918 15.0225 20.0613 15.0216 20.0305C15.0207 19.9997 15.0119 19.9697 14.996 19.9433C14.9801 19.9169 14.9577 19.8951 14.9308 19.88C14.904 19.8648 14.8737 19.8569 14.8429 19.8569H8.8706C8.83977 19.8568 8.80943 19.8647 8.78254 19.8798C8.75565 19.8949 8.73313 19.9167 8.71718 19.9431C8.70122 19.9695 8.69237 19.9996 8.69148 20.0304C8.69059 20.0612 8.69771 20.0917 8.71212 20.119C9.01772 20.687 9.47134 21.1618 10.0249 21.4929C10.5784 21.824 11.2113 21.9992 11.8563 21.9998Z" fill="#D5DAD9"/>
</svg>
