<svg width="97" height="96" viewBox="0 0 97 96" fill="none" xmlns="http://www.w3.org/2000/svg">
<ellipse opacity="0.1" cx="48.5" cy="88" rx="20" ry="4" fill="#2F9E44"/>
<g clip-path="url(#clip0_2243_382)">
<path d="M76.6052 71.2547C65.5879 80.2484 31.1871 80.2484 20.3946 71.2547C9.37737 62.261 10.5016 23.813 20.3946 13.6951C30.2877 3.57722 66.7121 3.57722 76.6052 13.6951C86.4983 23.813 87.6225 62.2611 76.6052 71.2547Z" fill="#2F9E44"/>
<path opacity="0.2" d="M48.7247 55.5158C38.8316 63.3853 27.8143 67.4324 17.4716 67.6572C9.82694 54.6164 11.4009 22.9137 20.3946 13.6952C28.4889 5.37612 53.896 3.80215 68.5108 8.9735C72.1082 23.8131 64.6885 42.6997 48.7247 55.5158Z" fill="white"/>
<path d="M43.3282 62.036C41.7542 62.036 40.1804 61.3615 39.2811 60.0125L26.69 43.8239C24.8912 41.5755 25.341 38.4277 27.5894 36.6289C29.8377 34.8302 32.9855 35.2799 34.7843 37.5283L43.3282 48.5456L62.215 24.0378C64.0138 21.7895 67.1615 21.3397 69.4099 23.1385C71.6583 24.9372 72.1081 28.085 70.3093 30.3334L47.3754 60.0125C46.2512 61.1367 44.9022 62.036 43.3282 62.036Z" fill="white"/>
</g>
<defs>
<clipPath id="clip0_2243_382">
<rect x="12.5" y="6" width="72" height="72" rx="36" fill="white"/>
</clipPath>
</defs>
</svg>
