<svg width="25" height="24" viewBox="0 0 25 24" fill="none" xmlns="http://www.w3.org/2000/svg">
<path d="M20.6789 6.82018L14.9189 2.79018C13.3489 1.69018 10.9389 1.75018 9.42891 2.92018L4.41891 6.83018C3.41891 7.61018 2.62891 9.21018 2.62891 10.4702V17.3702C2.62891 19.9202 4.69891 22.0002 7.24891 22.0002H18.0289C20.5789 22.0002 22.6489 19.9302 22.6489 17.3802V10.6002C22.6489 9.25018 21.7789 7.59018 20.6789 6.82018ZM13.3889 18.0002C13.3889 18.4102 13.0489 18.7502 12.6389 18.7502C12.2289 18.7502 11.8889 18.4102 11.8889 18.0002V15.0002C11.8889 14.5902 12.2289 14.2502 12.6389 14.2502C13.0489 14.2502 13.3889 14.5902 13.3889 15.0002V18.0002Z" fill="#007F3E"/>
</svg>
