<?xml version="1.0" encoding="UTF-8"?>
<!DOCTYPE svg PUBLIC "-//W3C//DTD SVG 1.1//EN" "http://www.w3.org/Graphics/SVG/1.1/DTD/svg11.dtd">
<!-- Creator: CorelDRAW 2018 (64-Bit) -->
<svg xmlns="http://www.w3.org/2000/svg" xml:space="preserve" width="1.9685in" height="0.590551in" version="1.1" style="shape-rendering:geometricPrecision; text-rendering:geometricPrecision; image-rendering:optimizeQuality; fill-rule:evenodd; clip-rule:evenodd"
viewBox="0 0 1968.5 590.55"
 xmlns:xlink="http://www.w3.org/1999/xlink">
 <defs>
  <style type="text/css">
   <![CDATA[
    .fil1 {fill:black}
    .fil0 {fill:black;fill-rule:nonzero}
   ]]>
  </style>
 </defs>
 <g id="Layer_x0020_1">
  <metadata id="CorelCorpID_0Corel-Layer"/>
  <path class="fil0" d="M846.96 448.77l-34.72 0 0 -259.88 34.72 0 0 259.88zm231.5 -22.78c0,7.72 -2.24,13.81 -6.72,18.3 -4.48,4.48 -11.33,6.72 -20.54,6.72 -8.46,0 -15,-1.68 -19.6,-5.04 -4.61,-3.36 -9.52,-10.15 -14.75,-20.35l-91.85 -190.06 -1.12 0 0 213.2 -34.72 0 0 -230.01c0,-10.95 2.74,-19.04 8.22,-24.27 5.48,-5.22 12.88,-7.84 22.09,-7.84 10.95,0 19.85,4.73 26.57,14.19 3.24,4.42 7.59,12.38 13.07,23.83l83.52 172.75 0.74 -208.54 35.1 0 0 237.1zm308.05 22.78l-36.53 0.06 -24.33 -211.03 -56.76 181.47c-3.73,12.44 -7.34,20.47 -10.83,24.08 -3.48,3.61 -8.71,5.41 -15.69,5.41 -6.72,0 -11.94,-1.93 -15.68,-5.79 -3.73,-3.86 -7.47,-11.76 -11.2,-23.71l-55.63 -181.47 -25.45 211.03 -36.53 -0.06 29.87 -236.73c1,-8.71 4.3,-15.5 9.9,-20.35 5.54,-4.85 11.94,-7.28 19.17,-7.28 8.4,0 14.94,2.05 19.54,6.16 4.61,4.11 8.78,12.26 12.45,24.52l52.9 174.93 53.52 -175.06c3.49,-11.95 7.72,-19.98 12.57,-24.21 4.85,-4.23 11.39,-6.35 19.67,-6.35 7.22,0 13.63,2.43 19.3,7.28 5.6,4.85 8.9,11.64 9.89,20.35l29.87 236.73zm192.3 0l-35.1 0 0 -117.99 -93.35 0 0 -32.48 93.35 0 0 -16.49c0,-20.29 -4.92,-36.16 -14.75,-47.67 -9.83,-11.51 -22.84,-17.24 -39.02,-17.24 -16.18,0 -29.19,5.66 -39.02,16.99 -9.83,11.39 -14.75,27.26 -14.75,47.73l0 167.15 -34.72 0 0 -164.67c0,-30.37 8.28,-54.57 24.83,-72.62 16.55,-18.05 37.77,-27.07 63.66,-27.07 25.89,0 47.17,8.96 63.85,26.88 16.68,17.92 25.02,42.19 25.02,72.81l0 164.67zm198.27 -180.35c0,22.9 -7.03,42.38 -21.1,58.43 -14.06,16.06 -31.3,24.09 -51.71,24.09l-47.05 0 0 -32.49 36.96 0c13.94,0 25.45,-4.54 34.54,-13.69 9.09,-9.09 13.63,-21.28 13.63,-36.53 0,-15.99 -4.67,-28.56 -14,-37.65 -9.33,-9.15 -21.47,-13.69 -36.41,-13.69 -14.19,0 -25.83,4.79 -34.91,14.37 -9.09,9.65 -13.63,22.78 -13.63,39.46l0 178.04 -34.72 0 0 -173.63c0,-27.38 8.03,-49.35 24.08,-65.9 16.06,-16.56 35.66,-24.83 58.81,-24.83 25.39,0 46.18,8.34 62.36,25.02 15.43,15.93 23.15,35.59 23.15,59zm179.97 180.35l-144.87 0c-8.71,0 -15.56,-2.61 -20.54,-7.84 -4.98,-5.22 -7.47,-11.07 -7.47,-17.55 0,-6.97 1.62,-13.94 4.85,-20.91 2.49,-5.23 6.22,-11.33 11.2,-18.3l116.31 -162.8 -118.55 0 0 -32.48 124.71 0c10.46,0 18.17,2.11 23.15,6.35 4.98,4.23 7.47,9.58 7.47,16.06 0,12.44 -5.1,25.76 -15.31,39.95l-116.13 165.04 135.17 0 0 32.48z"/>
  <polygon class="fil1" points="141.51,348.87 5.3,395.72 141.51,442.56 252.88,404.26 241.67,383.31 "/>
  <polygon class="fil1" points="5.3,506.31 141.51,553.16 277.73,506.31 141.52,459.46 "/>
  <polygon class="fil1" points="463.07,348.87 362.98,383.3 351.7,404.26 463.07,442.57 599.28,395.72 "/>
  <polygon class="fil1" points="463.08,459.46 326.86,506.31 463.08,553.15 599.29,506.31 "/>
  <path class="fil1" d="M302.3 35.44c80.28,0 145.37,65.09 145.37,145.37 0,34.6 -12.09,66.37 -32.28,91.33l0 0.01c-89.78,117.56 -97.22,178.56 -112.52,178.87 -15.67,-1.25 -22.33,-61.39 -113.78,-178.99l0 -0.01c-20.12,-24.94 -32.17,-56.66 -32.17,-91.2 0,-80.28 65.08,-145.37 145.37,-145.37l0.01 -0.01zm0 72.18c41.49,0 75.13,33.63 75.13,75.13 0,41.49 -33.64,75.13 -75.13,75.13 -41.49,0 -75.13,-33.63 -75.13,-75.13 0,-41.49 33.64,-75.13 75.13,-75.13z"/>
 </g>
</svg>
